<svg width="12" height="16" viewBox="0 0 12 16" fill="none" xmlns="http://www.w3.org/2000/svg">
<path d="M5.75 6.5C5.75 6.375 5.625 6.25 5.5 6.25C5.34375 6.25 5.25 6.375 5.25 6.5C5.25 6.59375 5.25 7.25 5.53125 8.09375C5.59375 7.8125 5.75 7.09375 5.75 6.5ZM8 0V4H12L8 0ZM2.5 13.2188C2.5 13.5312 2.8125 13.5938 2.9375 13.4062C3.09375 13.1875 3.375 12.75 3.75 12.1562C3.28125 12.4062 2.875 12.6875 2.5625 13.0312C2.5 13.0938 2.5 13.1562 2.5 13.2188ZM7 4V0H1.5C0.65625 0 0 0.6875 0 1.5V14.5C0 15.3438 0.65625 16 1.5 16H10.5C11.3125 16 12 15.3438 12 14.5V5H8C7.4375 5 7 4.5625 7 4ZM9.125 9.75C9.875 9.75 10.5 10.375 10.5 11.125C10.5 11.9062 9.90625 12.5 9.125 12.5C8.9375 12.5 8.78125 12.5 8.59375 12.4375C7.96875 12.2188 7.40625 11.9375 6.90625 11.5625C6.15625 11.7188 5.46875 11.9375 4.875 12.1562C4.4375 13 4.03125 13.625 3.75 14C3.5 14.3125 3.125 14.5 2.71875 14.5C2.03125 14.5 1.5 13.9688 1.5 13.2812C1.5 12.9062 1.59375 12.5938 1.84375 12.3438C2.34375 11.8438 3 11.375 3.8125 11C4.15625 10.2812 4.5 9.5625 4.75 8.84375C4.25 7.59375 4.25 6.53125 4.25 6.5C4.25 5.8125 4.78125 5.25 5.5 5.25C6.1875 5.25 6.75 5.8125 6.75 6.5C6.75 7.28125 6.5 8.25 6.46875 8.46875C6.4375 8.5625 6.40625 8.6875 6.34375 8.78125C6.59375 9.21875 6.90625 9.625 7.28125 9.96875C8.21875 9.8125 8.875 9.78125 8.96875 9.75H9.125ZM4.875 11.0938C5.4375 10.9062 6 10.75 6.53125 10.625C6.15625 10.25 5.84375 9.84375 5.59375 9.4375C5.375 10.0312 5.125 10.5938 4.875 11.0938ZM9.125 11.5C9.34375 11.5 9.5 11.3438 9.5 11.1562C9.5 10.9375 9.3125 10.75 9.125 10.75H9C8.96875 10.7812 8.46875 10.7812 7.71875 10.9062C8.0625 11.125 8.46875 11.3125 8.90625 11.4688C9 11.5 9.0625 11.5 9.125 11.5Z" fill="#012A4D"/>
</svg>
