<svg width="1067" height="437" xmlns="http://www.w3.org/2000/svg" xmlns:xlink="http://www.w3.org/1999/xlink" xml:space="preserve" overflow="hidden"><g transform="translate(-149 -172)"><g><g><g><g><path d="M-1763.73 1753.86C-1763.73 1751.52-1761.83 1749.62-1759.5 1749.62L-1598.65 1749.62C-1596.31 1749.62-1594.41 1751.52-1594.41 1753.86L-1594.41 1837.58C-1594.41 1839.91-1596.31 1841.81-1598.65 1841.81L-1759.5 1841.81C-1761.83 1841.81-1763.73 1839.91-1763.73 1837.58Z" stroke="#012A4D" stroke-width="4.23296" stroke-linecap="butt" stroke-linejoin="miter" stroke-miterlimit="4" stroke-opacity="1" fill="#FFFFFF" fill-rule="nonzero" fill-opacity="1" transform="matrix(1 0 0 1.00069 1949.71 -1326.79)"/><path d="M1.08872-9.75497 1.08872-11.3663 3.26617-11.3663 3.26617-9.75497 1.08872-9.75497ZM1.08872 0 1.08872-8.2743 3.26617-8.2743 3.26617 0 1.08872 0" fill="#012A4D" fill-rule="nonzero" fill-opacity="1" transform="matrix(1 0 0 1.00069 216.831 473.382)"/><path d="M5.87911-8.4485C9.66787-8.49205 8.40495-3.52747 8.62269 0L6.44525 0C6.1404-2.48229 7.44687-6.83719 4.96458-6.83719 2.39519-6.83719 3.48392-2.61294 3.26617 0L1.08872 0 1.04517-8.2743 3.09198-8.2743C3.17907-7.75171 3.04843-7.05493 3.22262-6.61944 3.74521-7.75171 4.44199-8.40495 5.87911-8.4485" fill="#012A4D" fill-rule="nonzero" fill-opacity="1" transform="matrix(1 0 0 1.00069 221.186 473.382)"/><path d="M5.87911-8.4485C8.1872-8.4485 8.92754-6.53234 8.92754-4.1807 8.92754-1.74196 8.10011 0.0870979 5.74846 0.174196 4.39844 0.217745 3.78876-0.566136 3.17907-1.30647 3.30972 0.130647 3.26617 1.69841 3.26617 3.26617L1.08872 3.26617 1.04517-8.2743 3.13552-8.2743C3.22262-7.83881 3.13552-7.27268 3.26617-6.92428 3.74521-7.96946 4.52909-8.4485 5.87911-8.4485ZM4.96458-1.30647C6.4017-1.30647 6.66299-2.65649 6.70654-4.1807 6.70654-5.83556 6.3146-6.96783 4.96458-6.96783 2.52584-6.96783 2.56939-1.30647 4.96458-1.30647" fill="#012A4D" fill-rule="nonzero" fill-opacity="1" transform="matrix(1 0 0 1.00069 230.723 473.382)"/><path d="M3.70166 0.174196C-0.0870979 0.217745 1.17582-4.74684 0.958077-8.2743L3.13552-8.2743C3.44037-5.79201 2.1339-1.74196 4.57264-1.43712 7.18558-1.65486 6.09685-5.66136 6.3146-8.2743L8.49205-8.2743 8.5356 0 6.48879 0C6.4017-0.522587 6.53234-1.21937 6.35815-1.65486 5.83556-0.566136 5.13878 0.174196 3.70166 0.174196" fill="#012A4D" fill-rule="nonzero" fill-opacity="1" transform="matrix(1 0 0 1.00069 240.261 473.382)"/><path d="M5.00813-0.130647C3.44037 0.479039 1.21937 0.174196 1.21937-1.9597L1.21937-6.83719 0.174196-6.83719 0.174196-8.2743 1.35002-8.2743 2.00325-10.234 3.35327-10.234 3.35327-8.2743 4.92103-8.2743 4.92103-6.83719 3.35327-6.83719 3.35327-2.52584C3.30972-1.52421 4.05005-1.17582 5.00813-1.43712L5.00813-0.130647" fill="#012A4D" fill-rule="nonzero" fill-opacity="1" transform="matrix(1 0 0 1.00069 249.798 473.382)"/><path d="M3.65811 0.174196C1.39357 0.174196 0.653234-1.78551 0.653234-4.13715 0.653234-6.53234 1.43712-8.4485 3.83231-8.4485 5.09523-8.4485 5.87911-7.92591 6.35815-6.96783L6.44525-8.2743 8.5356-8.2743 8.49205 3.26617 6.35815 3.26617 6.35815-1.39357C5.92266-0.391941 4.96458 0.174196 3.65811 0.174196ZM4.57264-1.30647C5.96621-1.30647 6.35815-2.56939 6.35815-4.1807 6.35815-5.74846 5.96621-6.96783 4.61619-6.96783 3.17907-6.96783 2.91778-5.66136 2.87423-4.13715 2.87423-2.26455 3.44037-1.30647 4.57264-1.30647" fill="#012A4D" fill-rule="nonzero" fill-opacity="1" transform="matrix(1 0 0 1.00069 259.337 473.382)"/><path d="M3.70166 0.174196C-0.0870979 0.217745 1.17582-4.74684 0.958077-8.2743L3.13552-8.2743C3.44037-5.79201 2.1339-1.74196 4.57264-1.43712 7.18558-1.65486 6.09685-5.66136 6.3146-8.2743L8.49205-8.2743 8.5356 0 6.48879 0C6.4017-0.522587 6.53234-1.21937 6.35815-1.65486 5.83556-0.566136 5.13878 0.174196 3.70166 0.174196" fill="#012A4D" fill-rule="nonzero" fill-opacity="1" transform="matrix(1 0 0 1.00069 268.875 473.382)"/><path d="M8.05656-2.09035C7.49042-0.783881 6.44525 0.217745 4.48554 0.174196 1.87261 0.0870979 0.609685-1.43712 0.609685-4.1807 0.609685-6.92428 1.91615-8.4485 4.52909-8.4485 7.22913-8.4485 8.14365-6.48879 8.1872-3.74521L2.87423-3.74521C2.87423-2.39519 3.22262-1.35002 4.57264-1.30647 5.35652-1.30647 5.87911-1.61131 6.05331-2.26455ZM6.09685-5.09523C6.3146-7.09848 3.61456-7.83881 3.04843-6.00976 2.96133-5.74846 2.87423-5.44362 2.87423-5.09523L6.09685-5.09523" fill="#012A4D" fill-rule="nonzero" fill-opacity="1" transform="matrix(1 0 0 1.00069 278.412 473.382)"/><path d="M5.96621-6.00976C6.00976-7.27268 2.91778-7.49042 2.87423-6.18395 3.52747-4.1807 8.01301-5.87911 8.05656-2.43874 8.10011 1.17582 0.914528 0.870979 0.566136-2.0468L2.43874-2.35164C2.61294-1.52421 3.30972-1.26292 4.3549-1.26292 5.79201-0.914528 6.83719-2.56939 5.40007-3.04843 3.52747-3.65811 0.958077-3.52747 0.870979-5.92266 0.783881-9.40657 7.57752-9.14528 7.88236-6.2275" fill="#012A4D" fill-rule="nonzero" fill-opacity="1" transform="matrix(1 0 0 1.00069 287.122 473.382)"/><path d="M5.00813-0.130647C3.44037 0.479039 1.21937 0.174196 1.21937-1.9597L1.21937-6.83719 0.174196-6.83719 0.174196-8.2743 1.35002-8.2743 2.00325-10.234 3.35327-10.234 3.35327-8.2743 4.92103-8.2743 4.92103-6.83719 3.35327-6.83719 3.35327-2.52584C3.30972-1.52421 4.05005-1.17582 5.00813-1.43712L5.00813-0.130647" fill="#012A4D" fill-rule="nonzero" fill-opacity="1" transform="matrix(1 0 0 1.00069 295.831 473.382)"/><path d="M1.08872-9.75497 1.08872-11.3663 3.26617-11.3663 3.26617-9.75497 1.08872-9.75497ZM1.08872 0 1.08872-8.2743 3.26617-8.2743 3.26617 0 1.08872 0" fill="#012A4D" fill-rule="nonzero" fill-opacity="1" transform="matrix(1 0 0 1.00069 301.014 473.382)"/><path d="M4.79039-8.4485C7.57752-8.4485 8.97108-6.88073 8.97108-4.13715 8.97108-1.35002 7.44687 0.174196 4.74684 0.174196 2.09035 0.174196 0.609685-1.39357 0.609685-4.13715 0.609685-6.83719 2.09035-8.4485 4.79039-8.4485ZM4.74684-1.30647C6.27105-1.30647 6.70654-2.52584 6.70654-4.13715 6.70654-5.87911 6.27105-6.96783 4.83393-6.96783 3.35327-6.96783 2.87423-5.83556 2.87423-4.13715 2.87423-2.56939 3.30972-1.30647 4.74684-1.30647" fill="#012A4D" fill-rule="nonzero" fill-opacity="1" transform="matrix(1 0 0 1.00069 305.369 473.382)"/><path d="M5.87911-8.4485C9.66787-8.49205 8.40495-3.52747 8.62269 0L6.44525 0C6.1404-2.48229 7.44687-6.83719 4.96458-6.83719 2.39519-6.83719 3.48392-2.61294 3.26617 0L1.08872 0 1.04517-8.2743 3.09198-8.2743C3.17907-7.75171 3.04843-7.05493 3.22262-6.61944 3.74521-7.75171 4.44199-8.40495 5.87911-8.4485" fill="#012A4D" fill-rule="nonzero" fill-opacity="1" transform="matrix(1 0 0 1.00069 314.906 473.382)"/><path d="M-1485.77 1560.08C-1485.77 1557.74-1483.87 1555.84-1481.54 1555.84L-1320.68 1555.84C-1318.35 1555.84-1316.45 1557.74-1316.45 1560.08L-1316.45 1643.8C-1316.45 1646.13-1318.35 1648.03-1320.68 1648.03L-1481.54 1648.03C-1483.87 1648.03-1485.77 1646.13-1485.77 1643.8Z" stroke="#012A4D" stroke-width="4.23296" stroke-linecap="butt" stroke-linejoin="miter" stroke-miterlimit="4" stroke-opacity="1" fill="#FFFFFF" fill-rule="nonzero" fill-opacity="1" transform="matrix(1 0 0 1.00069 1949.71 -1326.79)"/><path d="M1.04517-10.8001C5.09523-10.7566 10.0163-11.4969 9.92916-7.35977 9.88561-4.0936 6.92428-3.52747 3.30972-3.78876L3.30972 0 1.04517 0 1.04517-10.8001ZM3.30972-5.53072C5.35652-5.53072 7.66462-5.22587 7.66462-7.31622 7.66462-9.36303 5.31297-9.01463 3.30972-9.01463L3.30972-5.53072" fill="#012A4D" fill-rule="nonzero" fill-opacity="1" transform="matrix(1 0 0 1.00069 474.266 270.032)"/><path d="M8.05656-2.09035C7.49042-0.783881 6.44525 0.217745 4.48554 0.174196 1.87261 0.0870979 0.609685-1.43712 0.609685-4.1807 0.609685-6.92428 1.91615-8.4485 4.52909-8.4485 7.22913-8.4485 8.14365-6.48879 8.1872-3.74521L2.87423-3.74521C2.87423-2.39519 3.22262-1.35002 4.57264-1.30647 5.35652-1.30647 5.87911-1.61131 6.05331-2.26455ZM6.09685-5.09523C6.3146-7.09848 3.61456-7.83881 3.04843-6.00976 2.96133-5.74846 2.87423-5.44362 2.87423-5.09523L6.09685-5.09523" fill="#012A4D" fill-rule="nonzero" fill-opacity="1" transform="matrix(1 0 0 1.00069 484.717 270.032)"/><path d="M5.87911-6.53234C4.1807-7.05493 3.26617-5.96621 3.26617-4.05005L3.26617 0 1.08872 0 1.04517-8.2743 3.09198-8.2743C3.17907-7.70817 3.04843-7.01138 3.22262-6.53234 3.48392-7.75171 4.39844-8.84044 5.87911-8.31785L5.87911-6.53234" fill="#012A4D" fill-rule="nonzero" fill-opacity="1" transform="matrix(1 0 0 1.00069 493.427 270.032)"/><path d="M5.96621-6.00976C6.00976-7.27268 2.91778-7.49042 2.87423-6.18395 3.52747-4.1807 8.01301-5.87911 8.05656-2.43874 8.10011 1.17582 0.914528 0.870979 0.566136-2.0468L2.43874-2.35164C2.61294-1.52421 3.30972-1.26292 4.3549-1.26292 5.79201-0.914528 6.83719-2.56939 5.40007-3.04843 3.52747-3.65811 0.958077-3.52747 0.870979-5.92266 0.783881-9.40657 7.57752-9.14528 7.88236-6.2275" fill="#012A4D" fill-rule="nonzero" fill-opacity="1" transform="matrix(1 0 0 1.00069 499.524 270.032)"/><path d="M4.79039-8.4485C7.57752-8.4485 8.97108-6.88073 8.97108-4.13715 8.97108-1.35002 7.44687 0.174196 4.74684 0.174196 2.09035 0.174196 0.609685-1.39357 0.609685-4.13715 0.609685-6.83719 2.09035-8.4485 4.79039-8.4485ZM4.74684-1.30647C6.27105-1.30647 6.70654-2.52584 6.70654-4.13715 6.70654-5.87911 6.27105-6.96783 4.83393-6.96783 3.35327-6.96783 2.87423-5.83556 2.87423-4.13715 2.87423-2.56939 3.30972-1.30647 4.74684-1.30647" fill="#012A4D" fill-rule="nonzero" fill-opacity="1" transform="matrix(1 0 0 1.00069 508.234 270.032)"/><path d="M5.87911-8.4485C9.66787-8.49205 8.40495-3.52747 8.62269 0L6.44525 0C6.1404-2.48229 7.44687-6.83719 4.96458-6.83719 2.39519-6.83719 3.48392-2.61294 3.26617 0L1.08872 0 1.04517-8.2743 3.09198-8.2743C3.17907-7.75171 3.04843-7.05493 3.22262-6.61944 3.74521-7.75171 4.44199-8.40495 5.87911-8.4485" fill="#012A4D" fill-rule="nonzero" fill-opacity="1" transform="matrix(1 0 0 1.00069 517.771 270.032)"/><path d="M5.79201-1.48066C5.09523-0.653234 4.48554 0.217745 3.00488 0.174196 1.39357 0.130647 0.479039-0.696783 0.479039-2.35164 0.43549-4.96458 2.87423-5.09523 5.53072-5.00813 5.57427-6.1404 5.40007-7.05493 4.31135-7.05493 3.52747-7.01138 3.17907-6.66299 3.09198-5.87911L0.82743-5.96621C1.13227-7.62107 2.39519-8.49205 4.39844-8.4485 6.4017-8.40495 7.62107-7.49042 7.66462-5.48717L7.70817-1.91615C7.66462-1.30647 8.23075-1.13227 8.79689-1.26292L8.79689-0.0870979C7.49042 0.261294 5.70491 0.130647 5.79201-1.48066ZM3.70166-1.35002C4.96458-1.35002 5.57427-2.39519 5.53072-3.83231 4.13715-3.83231 2.65649-3.96295 2.70004-2.52584 2.70004-1.78551 3.04843-1.35002 3.70166-1.35002" fill="#012A4D" fill-rule="nonzero" fill-opacity="1" transform="matrix(1 0 0 1.00069 527.308 270.032)"/><path d="M1.08872 0 1.08872-11.3663 3.26617-11.3663 3.26617 0 1.08872 0" fill="#012A4D" fill-rule="nonzero" fill-opacity="1" transform="matrix(1 0 0 1.00069 536.018 270.032)"/><path d="M1.08872-9.75497 1.08872-11.3663 3.26617-11.3663 3.26617-9.75497 1.08872-9.75497ZM1.08872 0 1.08872-8.2743 3.26617-8.2743 3.26617 0 1.08872 0" fill="#012A4D" fill-rule="nonzero" fill-opacity="1" transform="matrix(1 0 0 1.00069 540.373 270.032)"/><path d="M0.522587 0 0.522587-1.52421 4.65974-6.75009 0.82743-6.75009 0.82743-8.2743 7.01138-8.2743 7.01138-6.75009 2.91778-1.56776 7.40332-1.56776 7.40332 0 0.522587 0" fill="#012A4D" fill-rule="nonzero" fill-opacity="1" transform="matrix(1 0 0 1.00069 544.728 270.032)"/><path d="M8.05656-2.09035C7.49042-0.783881 6.44525 0.217745 4.48554 0.174196 1.87261 0.0870979 0.609685-1.43712 0.609685-4.1807 0.609685-6.92428 1.91615-8.4485 4.52909-8.4485 7.22913-8.4485 8.14365-6.48879 8.1872-3.74521L2.87423-3.74521C2.87423-2.39519 3.22262-1.35002 4.57264-1.30647 5.35652-1.30647 5.87911-1.61131 6.05331-2.26455ZM6.09685-5.09523C6.3146-7.09848 3.61456-7.83881 3.04843-6.00976 2.96133-5.74846 2.87423-5.44362 2.87423-5.09523L6.09685-5.09523" fill="#012A4D" fill-rule="nonzero" fill-opacity="1" transform="matrix(1 0 0 1.00069 552.567 270.032)"/><path d="M3.83231-8.4485C5.18233-8.49205 5.83556-7.79526 6.35815-6.96783L6.3146-11.3663 8.49205-11.3663 8.5356 0 6.44525 0C6.35815-0.43549 6.44525-1.00163 6.3146-1.35002 5.83556-0.348392 5.05168 0.174196 3.65811 0.174196 1.39357 0.174196 0.696783-1.78551 0.653234-4.13715 0.653234-6.57589 1.48066-8.3614 3.83231-8.4485ZM4.57264-1.30647C6.00976-1.30647 6.3146-2.61294 6.35815-4.1807 6.4017-5.79201 5.96621-6.96783 4.57264-6.96783 3.17907-6.96783 2.91778-5.66136 2.87423-4.13715 2.87423-2.26455 3.44037-1.30647 4.57264-1.30647" fill="#012A4D" fill-rule="nonzero" fill-opacity="1" transform="matrix(1 0 0 1.00069 561.276 270.032)"/><path d="M8.10011 0 8.10011-4.61619 3.30972-4.61619 3.30972 0 1.04517 0 1.04517-10.8001 3.30972-10.8001 3.30972-6.48879 8.10011-6.48879 8.10011-10.8001 10.2776-10.8001 10.2776 0 8.10011 0" fill="#012A4D" fill-rule="nonzero" fill-opacity="1" transform="matrix(1 0 0 1.00069 575.165 270.032)"/><path d="M8.05656-2.09035C7.49042-0.783881 6.44525 0.217745 4.48554 0.174196 1.87261 0.0870979 0.609685-1.43712 0.609685-4.1807 0.609685-6.92428 1.91615-8.4485 4.52909-8.4485 7.22913-8.4485 8.14365-6.48879 8.1872-3.74521L2.87423-3.74521C2.87423-2.39519 3.22262-1.35002 4.57264-1.30647 5.35652-1.30647 5.87911-1.61131 6.05331-2.26455ZM6.09685-5.09523C6.3146-7.09848 3.61456-7.83881 3.04843-6.00976 2.96133-5.74846 2.87423-5.44362 2.87423-5.09523L6.09685-5.09523" fill="#012A4D" fill-rule="nonzero" fill-opacity="1" transform="matrix(1 0 0 1.00069 586.445 270.032)"/><path d="M5.79201-1.48066C5.09523-0.653234 4.48554 0.217745 3.00488 0.174196 1.39357 0.130647 0.479039-0.696783 0.479039-2.35164 0.43549-4.96458 2.87423-5.09523 5.53072-5.00813 5.57427-6.1404 5.40007-7.05493 4.31135-7.05493 3.52747-7.01138 3.17907-6.66299 3.09198-5.87911L0.82743-5.96621C1.13227-7.62107 2.39519-8.49205 4.39844-8.4485 6.4017-8.40495 7.62107-7.49042 7.66462-5.48717L7.70817-1.91615C7.66462-1.30647 8.23075-1.13227 8.79689-1.26292L8.79689-0.0870979C7.49042 0.261294 5.70491 0.130647 5.79201-1.48066ZM3.70166-1.35002C4.96458-1.35002 5.57427-2.39519 5.53072-3.83231 4.13715-3.83231 2.65649-3.96295 2.70004-2.52584 2.70004-1.78551 3.04843-1.35002 3.70166-1.35002" fill="#012A4D" fill-rule="nonzero" fill-opacity="1" transform="matrix(1 0 0 1.00069 595.154 270.032)"/><path d="M1.08872 0 1.08872-11.3663 3.26617-11.3663 3.26617 0 1.08872 0" fill="#012A4D" fill-rule="nonzero" fill-opacity="1" transform="matrix(1 0 0 1.00069 603.864 270.032)"/><path d="M5.00813-0.130647C3.44037 0.479039 1.21937 0.174196 1.21937-1.9597L1.21937-6.83719 0.174196-6.83719 0.174196-8.2743 1.35002-8.2743 2.00325-10.234 3.35327-10.234 3.35327-8.2743 4.92103-8.2743 4.92103-6.83719 3.35327-6.83719 3.35327-2.52584C3.30972-1.52421 4.05005-1.17582 5.00813-1.43712L5.00813-0.130647" fill="#012A4D" fill-rule="nonzero" fill-opacity="1" transform="matrix(1 0 0 1.00069 608.219 270.032)"/><path d="M4.96458-6.83719C2.39519-6.83719 3.48392-2.61294 3.26617 0L1.08872 0 1.08872-11.3663 3.26617-11.3663 3.22262-6.61944C3.74521-7.75171 4.44199-8.40495 5.87911-8.4485 9.62432-8.49205 8.40495-3.52747 8.62269 0L6.44525 0C6.1404-2.48229 7.44687-6.83719 4.96458-6.83719" fill="#012A4D" fill-rule="nonzero" fill-opacity="1" transform="matrix(1 0 0 1.00069 613.401 270.032)"/><path d="M8.49205 0 4.65974-4.96458 3.30972-3.91941 3.30972 0 1.04517 0 1.04517-10.8001 3.30972-10.8001 3.30972-5.87911 8.1872-10.8001 10.8001-10.8001 6.18395-6.2275 11.1921 0 8.49205 0" fill="#012A4D" fill-rule="nonzero" fill-opacity="1" transform="matrix(1 0 0 1.00069 481.688 288.86)"/><path d="M5.87911-8.4485C9.66787-8.49205 8.40495-3.52747 8.62269 0L6.44525 0C6.1404-2.48229 7.44687-6.83719 4.96458-6.83719 2.39519-6.83719 3.48392-2.61294 3.26617 0L1.08872 0 1.04517-8.2743 3.09198-8.2743C3.17907-7.75171 3.04843-7.05493 3.22262-6.61944 3.74521-7.75171 4.44199-8.40495 5.87911-8.4485" fill="#012A4D" fill-rule="nonzero" fill-opacity="1" transform="matrix(1 0 0 1.00069 492.967 288.86)"/><path d="M4.79039-8.4485C7.57752-8.4485 8.97108-6.88073 8.97108-4.13715 8.97108-1.35002 7.44687 0.174196 4.74684 0.174196 2.09035 0.174196 0.609685-1.39357 0.609685-4.13715 0.609685-6.83719 2.09035-8.4485 4.79039-8.4485ZM4.74684-1.30647C6.27105-1.30647 6.70654-2.52584 6.70654-4.13715 6.70654-5.87911 6.27105-6.96783 4.83393-6.96783 3.35327-6.96783 2.87423-5.83556 2.87423-4.13715 2.87423-2.56939 3.30972-1.30647 4.74684-1.30647" fill="#012A4D" fill-rule="nonzero" fill-opacity="1" transform="matrix(1 0 0 1.00069 502.504 288.86)"/><path d="M10.0598 0 7.79526 0 6.09685-6.75009 4.3549 0 2.09035 0-0.043549-8.2743 1.9597-8.2743 3.35327-1.9597C3.74521-4.22425 4.39844-6.18395 4.92103-8.2743L7.22913-8.2743 8.84044-1.9597 10.234-8.2743 12.2373-8.2743" fill="#012A4D" fill-rule="nonzero" fill-opacity="1" transform="matrix(1 0 0 1.00069 512.041 288.86)"/><path d="M1.08872 0 1.08872-11.3663 3.26617-11.3663 3.26617 0 1.08872 0" fill="#012A4D" fill-rule="nonzero" fill-opacity="1" transform="matrix(1 0 0 1.00069 524.235 288.86)"/><path d="M8.05656-2.09035C7.49042-0.783881 6.44525 0.217745 4.48554 0.174196 1.87261 0.0870979 0.609685-1.43712 0.609685-4.1807 0.609685-6.92428 1.91615-8.4485 4.52909-8.4485 7.22913-8.4485 8.14365-6.48879 8.1872-3.74521L2.87423-3.74521C2.87423-2.39519 3.22262-1.35002 4.57264-1.30647 5.35652-1.30647 5.87911-1.61131 6.05331-2.26455ZM6.09685-5.09523C6.3146-7.09848 3.61456-7.83881 3.04843-6.00976 2.96133-5.74846 2.87423-5.44362 2.87423-5.09523L6.09685-5.09523" fill="#012A4D" fill-rule="nonzero" fill-opacity="1" transform="matrix(1 0 0 1.00069 528.59 288.86)"/><path d="M3.83231-8.4485C5.18233-8.49205 5.83556-7.79526 6.35815-6.96783L6.3146-11.3663 8.49205-11.3663 8.5356 0 6.44525 0C6.35815-0.43549 6.44525-1.00163 6.3146-1.35002 5.83556-0.348392 5.05168 0.174196 3.65811 0.174196 1.39357 0.174196 0.696783-1.78551 0.653234-4.13715 0.653234-6.57589 1.48066-8.3614 3.83231-8.4485ZM4.57264-1.30647C6.00976-1.30647 6.3146-2.61294 6.35815-4.1807 6.4017-5.79201 5.96621-6.96783 4.57264-6.96783 3.17907-6.96783 2.91778-5.66136 2.87423-4.13715 2.87423-2.26455 3.44037-1.30647 4.57264-1.30647" fill="#012A4D" fill-rule="nonzero" fill-opacity="1" transform="matrix(1 0 0 1.00069 537.3 288.86)"/><path d="M8.49205-0.261294C8.97108 3.57101 3.26617 4.3549 1.35002 2.00325 1.17582 1.74196 1.08872 1.43712 1.00163 1.08872L3.13552 0.82743C3.26617 1.52421 3.83231 1.87261 4.61619 1.91615 6.35815 1.91615 6.44525 0.304843 6.35815-1.52421 5.87911-0.566136 5.05168 0 3.70166 0 1.39357 0 0.653234-1.87261 0.653234-4.22425 0.653234-6.66299 1.43712-8.40495 3.83231-8.4485 5.13878-8.4485 5.83556-7.83881 6.4017-6.96783L6.48879-8.2743 8.5356-8.2743ZM4.57264-1.52421C5.96621-1.52421 6.35815-2.70004 6.35815-4.2678 6.35815-5.79201 5.96621-6.96783 4.61619-6.96783 3.22262-6.96783 2.91778-5.70491 2.87423-4.22425 2.87423-2.65649 3.26617-1.52421 4.57264-1.52421" fill="#012A4D" fill-rule="nonzero" fill-opacity="1" transform="matrix(1 0 0 1.00069 546.837 288.86)"/><path d="M8.05656-2.09035C7.49042-0.783881 6.44525 0.217745 4.48554 0.174196 1.87261 0.0870979 0.609685-1.43712 0.609685-4.1807 0.609685-6.92428 1.91615-8.4485 4.52909-8.4485 7.22913-8.4485 8.14365-6.48879 8.1872-3.74521L2.87423-3.74521C2.87423-2.39519 3.22262-1.35002 4.57264-1.30647 5.35652-1.30647 5.87911-1.61131 6.05331-2.26455ZM6.09685-5.09523C6.3146-7.09848 3.61456-7.83881 3.04843-6.00976 2.96133-5.74846 2.87423-5.44362 2.87423-5.09523L6.09685-5.09523" fill="#012A4D" fill-rule="nonzero" fill-opacity="1" transform="matrix(1 0 0 1.00069 556.374 288.86)"/><path d="M2.91778-5.44362C2.91778-3.09198 3.91941-1.61131 6.18395-1.61131 7.40332-1.61131 8.49205-1.91615 9.14528-2.52584L9.14528-4.0065 6.53234-4.0065 6.53234-5.70491 11.2356-5.70491 11.2356-1.74196C10.1034-0.609685 8.3614 0.174196 6.09685 0.174196 2.52584 0.174196 0.870979-1.82906 0.653234-5.44362 0.348392-10.2776 5.48717-12.1937 9.36303-10.1905 10.1905-9.75497 10.6259-9.05818 10.9743-8.14365L8.92754-7.49042C8.4485-8.49205 7.66462-9.18883 6.18395-9.18883 3.87586-9.14528 2.91778-7.75171 2.91778-5.44362" fill="#012A4D" fill-rule="nonzero" fill-opacity="1" transform="matrix(1 0 0 1.00069 569.444 288.86)"/><path d="M5.87911-6.53234C4.1807-7.05493 3.26617-5.96621 3.26617-4.05005L3.26617 0 1.08872 0 1.04517-8.2743 3.09198-8.2743C3.17907-7.70817 3.04843-7.01138 3.22262-6.53234 3.48392-7.75171 4.39844-8.84044 5.87911-8.31785L5.87911-6.53234" fill="#012A4D" fill-rule="nonzero" fill-opacity="1" transform="matrix(1 0 0 1.00069 581.638 288.86)"/><path d="M5.79201-1.48066C5.09523-0.653234 4.48554 0.217745 3.00488 0.174196 1.39357 0.130647 0.479039-0.696783 0.479039-2.35164 0.43549-4.96458 2.87423-5.09523 5.53072-5.00813 5.57427-6.1404 5.40007-7.05493 4.31135-7.05493 3.52747-7.01138 3.17907-6.66299 3.09198-5.87911L0.82743-5.96621C1.13227-7.62107 2.39519-8.49205 4.39844-8.4485 6.4017-8.40495 7.62107-7.49042 7.66462-5.48717L7.70817-1.91615C7.66462-1.30647 8.23075-1.13227 8.79689-1.26292L8.79689-0.0870979C7.49042 0.261294 5.70491 0.130647 5.79201-1.48066ZM3.70166-1.35002C4.96458-1.35002 5.57427-2.39519 5.53072-3.83231 4.13715-3.83231 2.65649-3.96295 2.70004-2.52584 2.70004-1.78551 3.04843-1.35002 3.70166-1.35002" fill="#012A4D" fill-rule="nonzero" fill-opacity="1" transform="matrix(1 0 0 1.00069 587.734 288.86)"/><path d="M5.87911-8.4485C8.1872-8.4485 8.92754-6.53234 8.92754-4.1807 8.92754-1.74196 8.10011 0.0870979 5.74846 0.174196 4.39844 0.217745 3.78876-0.566136 3.17907-1.30647 3.30972 0.130647 3.26617 1.69841 3.26617 3.26617L1.08872 3.26617 1.04517-8.2743 3.13552-8.2743C3.22262-7.83881 3.13552-7.27268 3.26617-6.92428 3.74521-7.96946 4.52909-8.4485 5.87911-8.4485ZM4.96458-1.30647C6.4017-1.30647 6.66299-2.65649 6.70654-4.1807 6.70654-5.83556 6.3146-6.96783 4.96458-6.96783 2.52584-6.96783 2.56939-1.30647 4.96458-1.30647" fill="#012A4D" fill-rule="nonzero" fill-opacity="1" transform="matrix(1 0 0 1.00069 596.444 288.86)"/><path d="M4.96458-6.83719C2.39519-6.83719 3.48392-2.61294 3.26617 0L1.08872 0 1.08872-11.3663 3.26617-11.3663 3.22262-6.61944C3.74521-7.75171 4.44199-8.40495 5.87911-8.4485 9.62432-8.49205 8.40495-3.52747 8.62269 0L6.44525 0C6.1404-2.48229 7.44687-6.83719 4.96458-6.83719" fill="#012A4D" fill-rule="nonzero" fill-opacity="1" transform="matrix(1 0 0 1.00069 605.981 288.86)"/><path d="M-1199.34 1753.86C-1199.34 1751.52-1197.44 1749.62-1195.11 1749.62L-1034.25 1749.62C-1031.92 1749.62-1030.02 1751.52-1030.02 1753.86L-1030.02 1837.58C-1030.02 1839.91-1031.92 1841.81-1034.25 1841.81L-1195.11 1841.81C-1197.44 1841.81-1199.34 1839.91-1199.34 1837.58Z" stroke="#012A4D" stroke-width="4.23296" stroke-linecap="butt" stroke-linejoin="miter" stroke-miterlimit="4" stroke-opacity="1" fill="#FFFFFF" fill-rule="nonzero" fill-opacity="1" transform="matrix(1 0 0 1.00069 1949.71 -1326.79)"/><path d="M8.49205 0 4.65974-4.96458 3.30972-3.91941 3.30972 0 1.04517 0 1.04517-10.8001 3.30972-10.8001 3.30972-5.87911 8.1872-10.8001 10.8001-10.8001 6.18395-6.2275 11.1921 0 8.49205 0" fill="#012A4D" fill-rule="nonzero" fill-opacity="1" transform="matrix(1 0 0 1.00069 812.021 473.382)"/><path d="M7.92591-5.66136C9.53722-5.48717 10.6259-4.70329 10.6259-3.09198 10.6259 1.00163 5.05168-0.174196 1.04517 0L1.04517-10.8001C4.70329-10.5824 9.88561-11.8018 9.97271-8.05656 9.97271-6.70654 9.14528-5.87911 7.92591-5.66136ZM3.30972-6.44525C5.05168-6.57589 7.70817-5.87911 7.70817-7.75171 7.70817-9.66787 5.09523-8.97108 3.30972-9.10173L3.30972-6.44525ZM3.30972-1.65486C5.40007-1.78551 8.3614-1.04517 8.3614-3.26617 8.3614-5.35652 5.35652-4.65974 3.30972-4.79039L3.30972-1.65486" fill="#012A4D" fill-rule="nonzero" fill-opacity="1" transform="matrix(1 0 0 1.00069 823.3 473.382)"/><path d="M6.09685-10.9308C9.58077-10.9308 11.5405-8.97108 11.5405-5.44362 11.5405-2.39519 10.1034-0.609685 7.53397-0.043549 7.79526 1.17582 9.01463 1.61131 10.4953 1.30647L10.4517 2.87423C7.70817 3.61456 5.61782 2.39519 5.22587 0.0870979 2.221-0.261294 0.653234-2.17745 0.653234-5.44362 0.653234-8.97108 2.56939-10.9308 6.09685-10.9308ZM6.05331-1.61131C8.31785-1.61131 9.23238-3.13552 9.23238-5.44362 9.23238-7.62107 8.31785-9.18883 6.09685-9.18883 3.83231-9.18883 2.91778-7.66462 2.91778-5.44362 2.91778-3.22262 3.87586-1.61131 6.05331-1.61131" fill="#012A4D" fill-rule="nonzero" fill-opacity="1" transform="matrix(1 0 0 1.00069 834.579 473.382)"/><path d="M8.66624 0 7.70817-2.74358 3.61456-2.74358 2.65649 0 0.391941 0 4.31135-10.8001 6.96783-10.8001 10.8872 0 8.66624 0ZM7.22913-4.44199 5.66136-9.14528C5.22587-7.49042 4.61619-6.00976 4.0936-4.44199L7.22913-4.44199" fill="#012A4D" fill-rule="nonzero" fill-opacity="1" transform="matrix(1 0 0 1.00069 846.773 473.382)"/><path d="M-1199.34 1560.08C-1199.34 1557.74-1197.44 1555.84-1195.11 1555.84L-1034.25 1555.84C-1031.92 1555.84-1030.02 1557.74-1030.02 1560.08L-1030.02 1643.8C-1030.02 1646.13-1031.92 1648.03-1034.25 1648.03L-1195.11 1648.03C-1197.44 1648.03-1199.34 1646.13-1199.34 1643.8Z" stroke="#012A4D" stroke-width="4.23296" stroke-linecap="butt" stroke-linejoin="miter" stroke-miterlimit="4" stroke-opacity="1" fill="#FFFFFF" fill-rule="nonzero" fill-opacity="1" transform="matrix(1 0 0 1.00069 1949.71 -1326.79)"/><path d="M3.30972-9.05818 3.30972-5.70491 8.84044-5.70491 8.84044-3.96295 3.30972-3.96295 3.30972 0 1.04517 0 1.04517-10.8001 9.01463-10.8001 9.01463-9.05818 3.30972-9.05818" fill="#012A4D" fill-rule="nonzero" fill-opacity="1" transform="matrix(1 0 0 1.00069 802.045 279.478)"/><path d="M4.79039-8.4485C7.57752-8.4485 8.97108-6.88073 8.97108-4.13715 8.97108-1.35002 7.44687 0.174196 4.74684 0.174196 2.09035 0.174196 0.609685-1.39357 0.609685-4.13715 0.609685-6.83719 2.09035-8.4485 4.79039-8.4485ZM4.74684-1.30647C6.27105-1.30647 6.70654-2.52584 6.70654-4.13715 6.70654-5.87911 6.27105-6.96783 4.83393-6.96783 3.35327-6.96783 2.87423-5.83556 2.87423-4.13715 2.87423-2.56939 3.30972-1.30647 4.74684-1.30647" fill="#012A4D" fill-rule="nonzero" fill-opacity="1" transform="matrix(1 0 0 1.00069 811.582 279.478)"/><path d="M4.79039-8.4485C7.57752-8.4485 8.97108-6.88073 8.97108-4.13715 8.97108-1.35002 7.44687 0.174196 4.74684 0.174196 2.09035 0.174196 0.609685-1.39357 0.609685-4.13715 0.609685-6.83719 2.09035-8.4485 4.79039-8.4485ZM4.74684-1.30647C6.27105-1.30647 6.70654-2.52584 6.70654-4.13715 6.70654-5.87911 6.27105-6.96783 4.83393-6.96783 3.35327-6.96783 2.87423-5.83556 2.87423-4.13715 2.87423-2.56939 3.30972-1.30647 4.74684-1.30647" fill="#012A4D" fill-rule="nonzero" fill-opacity="1" transform="matrix(1 0 0 1.00069 821.119 279.478)"/><path d="M3.83231-8.4485C5.18233-8.49205 5.83556-7.79526 6.35815-6.96783L6.3146-11.3663 8.49205-11.3663 8.5356 0 6.44525 0C6.35815-0.43549 6.44525-1.00163 6.3146-1.35002 5.83556-0.348392 5.05168 0.174196 3.65811 0.174196 1.39357 0.174196 0.696783-1.78551 0.653234-4.13715 0.653234-6.57589 1.48066-8.3614 3.83231-8.4485ZM4.57264-1.30647C6.00976-1.30647 6.3146-2.61294 6.35815-4.1807 6.4017-5.79201 5.96621-6.96783 4.57264-6.96783 3.17907-6.96783 2.91778-5.66136 2.87423-4.13715 2.87423-2.26455 3.44037-1.30647 4.57264-1.30647" fill="#012A4D" fill-rule="nonzero" fill-opacity="1" transform="matrix(1 0 0 1.00069 830.657 279.478)"/><path d="M8.49205 0 4.65974-4.96458 3.30972-3.91941 3.30972 0 1.04517 0 1.04517-10.8001 3.30972-10.8001 3.30972-5.87911 8.1872-10.8001 10.8001-10.8001 6.18395-6.2275 11.1921 0 8.49205 0" fill="#012A4D" fill-rule="nonzero" fill-opacity="1" transform="matrix(1 0 0 1.00069 844.551 279.478)"/><path d="M2.91778-5.44362C2.91778-3.09198 3.91941-1.61131 6.18395-1.61131 7.40332-1.61131 8.49205-1.91615 9.14528-2.52584L9.14528-4.0065 6.53234-4.0065 6.53234-5.70491 11.2356-5.70491 11.2356-1.74196C10.1034-0.609685 8.3614 0.174196 6.09685 0.174196 2.52584 0.174196 0.870979-1.82906 0.653234-5.44362 0.348392-10.2776 5.48717-12.1937 9.36303-10.1905 10.1905-9.75497 10.6259-9.05818 10.9743-8.14365L8.92754-7.49042C8.4485-8.49205 7.66462-9.18883 6.18395-9.18883 3.87586-9.14528 2.91778-7.75171 2.91778-5.44362" fill="#012A4D" fill-rule="nonzero" fill-opacity="1" transform="matrix(1 0 0 1.00069 855.83 279.478)"/><path d="M-931.251 1753.86C-931.251 1751.52-929.353 1749.62-927.018 1749.62L-766.165 1749.62C-763.83 1749.62-761.932 1751.52-761.932 1753.86L-761.932 1837.58C-761.932 1839.91-763.83 1841.81-766.165 1841.81L-927.018 1841.81C-929.353 1841.81-931.251 1839.91-931.251 1837.58Z" stroke="#012A4D" stroke-width="4.23296" stroke-linecap="butt" stroke-linejoin="miter" stroke-miterlimit="4" stroke-opacity="1" fill="#FFFFFF" fill-rule="nonzero" fill-opacity="1" transform="matrix(1 0 0 1.00069 1949.71 -1326.79)"/><path d="M10.4517-7.57752C10.4517-5.83556 9.45012-4.92103 8.10011-4.52909L11.0179 0 8.4485 0 5.96621-4.0936 3.30972-4.0936 3.30972 0 1.04517 0 1.04517-10.8001C5.09523-10.6259 10.4953-11.8018 10.4517-7.57752ZM3.30972-5.83556C5.40007-5.92266 8.1872-5.31297 8.1872-7.49042 8.1872-9.58077 5.31297-8.88399 3.30972-9.01463L3.30972-5.83556" fill="#012A4D" fill-rule="nonzero" fill-opacity="1" transform="matrix(1 0 0 1.00069 1047.05 463.943)"/><path d="M8.05656-2.09035C7.49042-0.783881 6.44525 0.217745 4.48554 0.174196 1.87261 0.0870979 0.609685-1.43712 0.609685-4.1807 0.609685-6.92428 1.91615-8.4485 4.52909-8.4485 7.22913-8.4485 8.14365-6.48879 8.1872-3.74521L2.87423-3.74521C2.87423-2.39519 3.22262-1.35002 4.57264-1.30647 5.35652-1.30647 5.87911-1.61131 6.05331-2.26455ZM6.09685-5.09523C6.3146-7.09848 3.61456-7.83881 3.04843-6.00976 2.96133-5.74846 2.87423-5.44362 2.87423-5.09523L6.09685-5.09523" fill="#012A4D" fill-rule="nonzero" fill-opacity="1" transform="matrix(1 0 0 1.00069 1058.33 463.943)"/><path d="M8.2743-2.74358C7.96946-0.914528 6.61944 0.174196 4.52909 0.174196 1.9597 0.174196 0.870979-1.48066 0.609685-4.0936 0.0870979-8.88399 7.31622-10.0598 8.1872-5.66136L6.05331-5.57427C5.96621-6.4017 5.40007-6.96783 4.52909-6.96783 3.22262-6.96783 3.00488-5.74846 2.87423-4.1807 2.61294-0.958077 5.70491-0.391941 6.09685-2.87423" fill="#012A4D" fill-rule="nonzero" fill-opacity="1" transform="matrix(1 0 0 1.00069 1067.04 463.943)"/><path d="M4.79039-8.4485C7.57752-8.4485 8.97108-6.88073 8.97108-4.13715 8.97108-1.35002 7.44687 0.174196 4.74684 0.174196 2.09035 0.174196 0.609685-1.39357 0.609685-4.13715 0.609685-6.83719 2.09035-8.4485 4.79039-8.4485ZM4.74684-1.30647C6.27105-1.30647 6.70654-2.52584 6.70654-4.13715 6.70654-5.87911 6.27105-6.96783 4.83393-6.96783 3.35327-6.96783 2.87423-5.83556 2.87423-4.13715 2.87423-2.56939 3.30972-1.30647 4.74684-1.30647" fill="#012A4D" fill-rule="nonzero" fill-opacity="1" transform="matrix(1 0 0 1.00069 1075.75 463.943)"/><path d="M9.58077-6.83719C7.27268-6.44525 8.3614-2.48229 8.10011 0L5.96621 0 5.96621-4.65974C6.00976-5.83556 5.74846-6.79364 4.70329-6.83719 2.39519-6.4017 3.52747-2.48229 3.26617 0L1.08872 0 1.04517-8.2743 3.09198-8.2743C3.17907-7.75171 3.04843-7.05493 3.22262-6.61944 3.65811-8.92754 7.62107-9.05818 7.92591-6.61944 8.49205-7.57752 8.97108-8.49205 10.4953-8.4485 14.0663-8.40495 12.7163-3.39682 12.9776 0L10.8437 0 10.8437-4.65974C10.8001-5.74846 10.6259-6.75009 9.58077-6.83719" fill="#012A4D" fill-rule="nonzero" fill-opacity="1" transform="matrix(1 0 0 1.00069 1085.28 463.943)"/><path d="M9.58077-6.83719C7.27268-6.44525 8.3614-2.48229 8.10011 0L5.96621 0 5.96621-4.65974C6.00976-5.83556 5.74846-6.79364 4.70329-6.83719 2.39519-6.4017 3.52747-2.48229 3.26617 0L1.08872 0 1.04517-8.2743 3.09198-8.2743C3.17907-7.75171 3.04843-7.05493 3.22262-6.61944 3.65811-8.92754 7.62107-9.05818 7.92591-6.61944 8.49205-7.57752 8.97108-8.49205 10.4953-8.4485 14.0663-8.40495 12.7163-3.39682 12.9776 0L10.8437 0 10.8437-4.65974C10.8001-5.74846 10.6259-6.75009 9.58077-6.83719" fill="#012A4D" fill-rule="nonzero" fill-opacity="1" transform="matrix(1 0 0 1.00069 1099.22 463.943)"/><path d="M8.05656-2.09035C7.49042-0.783881 6.44525 0.217745 4.48554 0.174196 1.87261 0.0870979 0.609685-1.43712 0.609685-4.1807 0.609685-6.92428 1.91615-8.4485 4.52909-8.4485 7.22913-8.4485 8.14365-6.48879 8.1872-3.74521L2.87423-3.74521C2.87423-2.39519 3.22262-1.35002 4.57264-1.30647 5.35652-1.30647 5.87911-1.61131 6.05331-2.26455ZM6.09685-5.09523C6.3146-7.09848 3.61456-7.83881 3.04843-6.00976 2.96133-5.74846 2.87423-5.44362 2.87423-5.09523L6.09685-5.09523" fill="#012A4D" fill-rule="nonzero" fill-opacity="1" transform="matrix(1 0 0 1.00069 1113.16 463.943)"/><path d="M5.87911-8.4485C9.66787-8.49205 8.40495-3.52747 8.62269 0L6.44525 0C6.1404-2.48229 7.44687-6.83719 4.96458-6.83719 2.39519-6.83719 3.48392-2.61294 3.26617 0L1.08872 0 1.04517-8.2743 3.09198-8.2743C3.17907-7.75171 3.04843-7.05493 3.22262-6.61944 3.74521-7.75171 4.44199-8.40495 5.87911-8.4485" fill="#012A4D" fill-rule="nonzero" fill-opacity="1" transform="matrix(1 0 0 1.00069 1121.87 463.943)"/><path d="M3.83231-8.4485C5.18233-8.49205 5.83556-7.79526 6.35815-6.96783L6.3146-11.3663 8.49205-11.3663 8.5356 0 6.44525 0C6.35815-0.43549 6.44525-1.00163 6.3146-1.35002 5.83556-0.348392 5.05168 0.174196 3.65811 0.174196 1.39357 0.174196 0.696783-1.78551 0.653234-4.13715 0.653234-6.57589 1.48066-8.3614 3.83231-8.4485ZM4.57264-1.30647C6.00976-1.30647 6.3146-2.61294 6.35815-4.1807 6.4017-5.79201 5.96621-6.96783 4.57264-6.96783 3.17907-6.96783 2.91778-5.66136 2.87423-4.13715 2.87423-2.26455 3.44037-1.30647 4.57264-1.30647" fill="#012A4D" fill-rule="nonzero" fill-opacity="1" transform="matrix(1 0 0 1.00069 1131.4 463.943)"/><path d="M8.05656-2.09035C7.49042-0.783881 6.44525 0.217745 4.48554 0.174196 1.87261 0.0870979 0.609685-1.43712 0.609685-4.1807 0.609685-6.92428 1.91615-8.4485 4.52909-8.4485 7.22913-8.4485 8.14365-6.48879 8.1872-3.74521L2.87423-3.74521C2.87423-2.39519 3.22262-1.35002 4.57264-1.30647 5.35652-1.30647 5.87911-1.61131 6.05331-2.26455ZM6.09685-5.09523C6.3146-7.09848 3.61456-7.83881 3.04843-6.00976 2.96133-5.74846 2.87423-5.44362 2.87423-5.09523L6.09685-5.09523" fill="#012A4D" fill-rule="nonzero" fill-opacity="1" transform="matrix(1 0 0 1.00069 1140.94 463.943)"/><path d="M3.83231-8.4485C5.18233-8.49205 5.83556-7.79526 6.35815-6.96783L6.3146-11.3663 8.49205-11.3663 8.5356 0 6.44525 0C6.35815-0.43549 6.44525-1.00163 6.3146-1.35002 5.83556-0.348392 5.05168 0.174196 3.65811 0.174196 1.39357 0.174196 0.696783-1.78551 0.653234-4.13715 0.653234-6.57589 1.48066-8.3614 3.83231-8.4485ZM4.57264-1.30647C6.00976-1.30647 6.3146-2.61294 6.35815-4.1807 6.4017-5.79201 5.96621-6.96783 4.57264-6.96783 3.17907-6.96783 2.91778-5.66136 2.87423-4.13715 2.87423-2.26455 3.44037-1.30647 4.57264-1.30647" fill="#012A4D" fill-rule="nonzero" fill-opacity="1" transform="matrix(1 0 0 1.00069 1149.65 463.943)"/><path d="M5.87911-6.53234C4.1807-7.05493 3.26617-5.96621 3.26617-4.05005L3.26617 0 1.08872 0 1.04517-8.2743 3.09198-8.2743C3.17907-7.70817 3.04843-7.01138 3.22262-6.53234 3.48392-7.75171 4.39844-8.84044 5.87911-8.31785L5.87911-6.53234" fill="#012A4D" fill-rule="nonzero" fill-opacity="1" transform="matrix(1 0 0 1.00069 1080.06 482.764)"/><path d="M8.05656-2.09035C7.49042-0.783881 6.44525 0.217745 4.48554 0.174196 1.87261 0.0870979 0.609685-1.43712 0.609685-4.1807 0.609685-6.92428 1.91615-8.4485 4.52909-8.4485 7.22913-8.4485 8.14365-6.48879 8.1872-3.74521L2.87423-3.74521C2.87423-2.39519 3.22262-1.35002 4.57264-1.30647 5.35652-1.30647 5.87911-1.61131 6.05331-2.26455ZM6.09685-5.09523C6.3146-7.09848 3.61456-7.83881 3.04843-6.00976 2.96133-5.74846 2.87423-5.44362 2.87423-5.09523L6.09685-5.09523" fill="#012A4D" fill-rule="nonzero" fill-opacity="1" transform="matrix(1 0 0 1.00069 1086.16 482.764)"/><path d="M8.2743-2.74358C7.96946-0.914528 6.61944 0.174196 4.52909 0.174196 1.9597 0.174196 0.870979-1.48066 0.609685-4.0936 0.0870979-8.88399 7.31622-10.0598 8.1872-5.66136L6.05331-5.57427C5.96621-6.4017 5.40007-6.96783 4.52909-6.96783 3.22262-6.96783 3.00488-5.74846 2.87423-4.1807 2.61294-0.958077 5.70491-0.391941 6.09685-2.87423" fill="#012A4D" fill-rule="nonzero" fill-opacity="1" transform="matrix(1 0 0 1.00069 1094.87 482.764)"/><path d="M1.08872-9.75497 1.08872-11.3663 3.26617-11.3663 3.26617-9.75497 1.08872-9.75497ZM1.08872 0 1.08872-8.2743 3.26617-8.2743 3.26617 0 1.08872 0" fill="#012A4D" fill-rule="nonzero" fill-opacity="1" transform="matrix(1 0 0 1.00069 1103.57 482.764)"/><path d="M5.87911-8.4485C8.1872-8.4485 8.92754-6.53234 8.92754-4.1807 8.92754-1.74196 8.10011 0.0870979 5.74846 0.174196 4.39844 0.217745 3.78876-0.566136 3.17907-1.30647 3.30972 0.130647 3.26617 1.69841 3.26617 3.26617L1.08872 3.26617 1.04517-8.2743 3.13552-8.2743C3.22262-7.83881 3.13552-7.27268 3.26617-6.92428 3.74521-7.96946 4.52909-8.4485 5.87911-8.4485ZM4.96458-1.30647C6.4017-1.30647 6.66299-2.65649 6.70654-4.1807 6.70654-5.83556 6.3146-6.96783 4.96458-6.96783 2.52584-6.96783 2.56939-1.30647 4.96458-1.30647" fill="#012A4D" fill-rule="nonzero" fill-opacity="1" transform="matrix(1 0 0 1.00069 1107.93 482.764)"/><path d="M8.05656-2.09035C7.49042-0.783881 6.44525 0.217745 4.48554 0.174196 1.87261 0.0870979 0.609685-1.43712 0.609685-4.1807 0.609685-6.92428 1.91615-8.4485 4.52909-8.4485 7.22913-8.4485 8.14365-6.48879 8.1872-3.74521L2.87423-3.74521C2.87423-2.39519 3.22262-1.35002 4.57264-1.30647 5.35652-1.30647 5.87911-1.61131 6.05331-2.26455ZM6.09685-5.09523C6.3146-7.09848 3.61456-7.83881 3.04843-6.00976 2.96133-5.74846 2.87423-5.44362 2.87423-5.09523L6.09685-5.09523" fill="#012A4D" fill-rule="nonzero" fill-opacity="1" transform="matrix(1 0 0 1.00069 1117.47 482.764)"/><path d="M-1485.77 1753.86C-1485.77 1751.52-1483.87 1749.62-1481.54 1749.62L-1320.68 1749.62C-1318.35 1749.62-1316.45 1751.52-1316.45 1753.86L-1316.45 1837.58C-1316.45 1839.91-1318.35 1841.81-1320.68 1841.81L-1481.54 1841.81C-1483.87 1841.81-1485.77 1839.91-1485.77 1837.58Z" stroke="#012A4D" stroke-width="4.23296" stroke-linecap="butt" stroke-linejoin="miter" stroke-miterlimit="4" stroke-opacity="1" fill="#FFFFFF" fill-rule="nonzero" fill-opacity="1" transform="matrix(1 0 0 1.00069 1949.71 -1326.79)"/><path d="M8.05656-2.09035C7.49042-0.783881 6.44525 0.217745 4.48554 0.174196 1.87261 0.0870979 0.609685-1.43712 0.609685-4.1807 0.609685-6.92428 1.91615-8.4485 4.52909-8.4485 7.22913-8.4485 8.14365-6.48879 8.1872-3.74521L2.87423-3.74521C2.87423-2.39519 3.22262-1.35002 4.57264-1.30647 5.35652-1.30647 5.87911-1.61131 6.05331-2.26455ZM6.09685-5.09523C6.3146-7.09848 3.61456-7.83881 3.04843-6.00976 2.96133-5.74846 2.87423-5.44362 2.87423-5.09523L6.09685-5.09523" fill="#012A4D" fill-rule="nonzero" fill-opacity="1" transform="matrix(1 0 0 1.00069 493.406 463.943)"/><path d="M6.27105 0 4.3549-3.00488 2.39519 0 0.0870979 0 3.13552-4.2678 0.261294-8.2743 2.56939-8.2743 4.3549-5.57427 6.09685-8.2743 8.4485-8.2743 5.53072-4.31135 8.62269 0 6.27105 0" fill="#012A4D" fill-rule="nonzero" fill-opacity="1" transform="matrix(1 0 0 1.00069 502.116 463.943)"/><path d="M5.87911-8.4485C8.1872-8.4485 8.92754-6.53234 8.92754-4.1807 8.92754-1.74196 8.10011 0.0870979 5.74846 0.174196 4.39844 0.217745 3.78876-0.566136 3.17907-1.30647 3.30972 0.130647 3.26617 1.69841 3.26617 3.26617L1.08872 3.26617 1.04517-8.2743 3.13552-8.2743C3.22262-7.83881 3.13552-7.27268 3.26617-6.92428 3.74521-7.96946 4.52909-8.4485 5.87911-8.4485ZM4.96458-1.30647C6.4017-1.30647 6.66299-2.65649 6.70654-4.1807 6.70654-5.83556 6.3146-6.96783 4.96458-6.96783 2.52584-6.96783 2.56939-1.30647 4.96458-1.30647" fill="#012A4D" fill-rule="nonzero" fill-opacity="1" transform="matrix(1 0 0 1.00069 510.825 463.943)"/><path d="M5.79201-1.48066C5.09523-0.653234 4.48554 0.217745 3.00488 0.174196 1.39357 0.130647 0.479039-0.696783 0.479039-2.35164 0.43549-4.96458 2.87423-5.09523 5.53072-5.00813 5.57427-6.1404 5.40007-7.05493 4.31135-7.05493 3.52747-7.01138 3.17907-6.66299 3.09198-5.87911L0.82743-5.96621C1.13227-7.62107 2.39519-8.49205 4.39844-8.4485 6.4017-8.40495 7.62107-7.49042 7.66462-5.48717L7.70817-1.91615C7.66462-1.30647 8.23075-1.13227 8.79689-1.26292L8.79689-0.0870979C7.49042 0.261294 5.70491 0.130647 5.79201-1.48066ZM3.70166-1.35002C4.96458-1.35002 5.57427-2.39519 5.53072-3.83231 4.13715-3.83231 2.65649-3.96295 2.70004-2.52584 2.70004-1.78551 3.04843-1.35002 3.70166-1.35002" fill="#012A4D" fill-rule="nonzero" fill-opacity="1" transform="matrix(1 0 0 1.00069 520.363 463.943)"/><path d="M5.87911-8.4485C9.66787-8.49205 8.40495-3.52747 8.62269 0L6.44525 0C6.1404-2.48229 7.44687-6.83719 4.96458-6.83719 2.39519-6.83719 3.48392-2.61294 3.26617 0L1.08872 0 1.04517-8.2743 3.09198-8.2743C3.17907-7.75171 3.04843-7.05493 3.22262-6.61944 3.74521-7.75171 4.44199-8.40495 5.87911-8.4485" fill="#012A4D" fill-rule="nonzero" fill-opacity="1" transform="matrix(1 0 0 1.00069 529.072 463.943)"/><path d="M3.83231-8.4485C5.18233-8.49205 5.83556-7.79526 6.35815-6.96783L6.3146-11.3663 8.49205-11.3663 8.5356 0 6.44525 0C6.35815-0.43549 6.44525-1.00163 6.3146-1.35002 5.83556-0.348392 5.05168 0.174196 3.65811 0.174196 1.39357 0.174196 0.696783-1.78551 0.653234-4.13715 0.653234-6.57589 1.48066-8.3614 3.83231-8.4485ZM4.57264-1.30647C6.00976-1.30647 6.3146-2.61294 6.35815-4.1807 6.4017-5.79201 5.96621-6.96783 4.57264-6.96783 3.17907-6.96783 2.91778-5.66136 2.87423-4.13715 2.87423-2.26455 3.44037-1.30647 4.57264-1.30647" fill="#012A4D" fill-rule="nonzero" fill-opacity="1" transform="matrix(1 0 0 1.00069 538.61 463.943)"/><path d="M8.05656-2.09035C7.49042-0.783881 6.44525 0.217745 4.48554 0.174196 1.87261 0.0870979 0.609685-1.43712 0.609685-4.1807 0.609685-6.92428 1.91615-8.4485 4.52909-8.4485 7.22913-8.4485 8.14365-6.48879 8.1872-3.74521L2.87423-3.74521C2.87423-2.39519 3.22262-1.35002 4.57264-1.30647 5.35652-1.30647 5.87911-1.61131 6.05331-2.26455ZM6.09685-5.09523C6.3146-7.09848 3.61456-7.83881 3.04843-6.00976 2.96133-5.74846 2.87423-5.44362 2.87423-5.09523L6.09685-5.09523" fill="#012A4D" fill-rule="nonzero" fill-opacity="1" transform="matrix(1 0 0 1.00069 548.147 463.943)"/><path d="M3.83231-8.4485C5.18233-8.49205 5.83556-7.79526 6.35815-6.96783L6.3146-11.3663 8.49205-11.3663 8.5356 0 6.44525 0C6.35815-0.43549 6.44525-1.00163 6.3146-1.35002 5.83556-0.348392 5.05168 0.174196 3.65811 0.174196 1.39357 0.174196 0.696783-1.78551 0.653234-4.13715 0.653234-6.57589 1.48066-8.3614 3.83231-8.4485ZM4.57264-1.30647C6.00976-1.30647 6.3146-2.61294 6.35815-4.1807 6.4017-5.79201 5.96621-6.96783 4.57264-6.96783 3.17907-6.96783 2.91778-5.66136 2.87423-4.13715 2.87423-2.26455 3.44037-1.30647 4.57264-1.30647" fill="#012A4D" fill-rule="nonzero" fill-opacity="1" transform="matrix(1 0 0 1.00069 556.857 463.943)"/><path d="M3.70166 0.174196C-0.0870979 0.217745 1.17582-4.74684 0.958077-8.2743L3.13552-8.2743C3.44037-5.79201 2.1339-1.74196 4.57264-1.43712 7.18558-1.65486 6.09685-5.66136 6.3146-8.2743L8.49205-8.2743 8.5356 0 6.48879 0C6.4017-0.522587 6.53234-1.21937 6.35815-1.65486 5.83556-0.566136 5.13878 0.174196 3.70166 0.174196" fill="#012A4D" fill-rule="nonzero" fill-opacity="1" transform="matrix(1 0 0 1.00069 570.749 463.943)"/><path d="M5.96621-6.00976C6.00976-7.27268 2.91778-7.49042 2.87423-6.18395 3.52747-4.1807 8.01301-5.87911 8.05656-2.43874 8.10011 1.17582 0.914528 0.870979 0.566136-2.0468L2.43874-2.35164C2.61294-1.52421 3.30972-1.26292 4.3549-1.26292 5.79201-0.914528 6.83719-2.56939 5.40007-3.04843 3.52747-3.65811 0.958077-3.52747 0.870979-5.92266 0.783881-9.40657 7.57752-9.14528 7.88236-6.2275" fill="#012A4D" fill-rule="nonzero" fill-opacity="1" transform="matrix(1 0 0 1.00069 580.286 463.943)"/><path d="M8.05656-2.09035C7.49042-0.783881 6.44525 0.217745 4.48554 0.174196 1.87261 0.0870979 0.609685-1.43712 0.609685-4.1807 0.609685-6.92428 1.91615-8.4485 4.52909-8.4485 7.22913-8.4485 8.14365-6.48879 8.1872-3.74521L2.87423-3.74521C2.87423-2.39519 3.22262-1.35002 4.57264-1.30647 5.35652-1.30647 5.87911-1.61131 6.05331-2.26455ZM6.09685-5.09523C6.3146-7.09848 3.61456-7.83881 3.04843-6.00976 2.96133-5.74846 2.87423-5.44362 2.87423-5.09523L6.09685-5.09523" fill="#012A4D" fill-rule="nonzero" fill-opacity="1" transform="matrix(1 0 0 1.00069 588.996 463.943)"/><path d="M5.87911-6.53234C4.1807-7.05493 3.26617-5.96621 3.26617-4.05005L3.26617 0 1.08872 0 1.04517-8.2743 3.09198-8.2743C3.17907-7.70817 3.04843-7.01138 3.22262-6.53234 3.48392-7.75171 4.39844-8.84044 5.87911-8.31785L5.87911-6.53234" fill="#012A4D" fill-rule="nonzero" fill-opacity="1" transform="matrix(1 0 0 1.00069 597.706 463.943)"/><path d="M3.65811 0.174196C1.39357 0.174196 0.653234-1.78551 0.653234-4.13715 0.653234-6.53234 1.43712-8.4485 3.83231-8.4485 5.09523-8.4485 5.87911-7.92591 6.35815-6.96783L6.44525-8.2743 8.5356-8.2743 8.49205 3.26617 6.35815 3.26617 6.35815-1.39357C5.92266-0.391941 4.96458 0.174196 3.65811 0.174196ZM4.57264-1.30647C5.96621-1.30647 6.35815-2.56939 6.35815-4.1807 6.35815-5.74846 5.96621-6.96783 4.61619-6.96783 3.17907-6.96783 2.91778-5.66136 2.87423-4.13715 2.87423-2.26455 3.44037-1.30647 4.57264-1.30647" fill="#012A4D" fill-rule="nonzero" fill-opacity="1" transform="matrix(1 0 0 1.00069 516.052 482.764)"/><path d="M3.70166 0.174196C-0.0870979 0.217745 1.17582-4.74684 0.958077-8.2743L3.13552-8.2743C3.44037-5.79201 2.1339-1.74196 4.57264-1.43712 7.18558-1.65486 6.09685-5.66136 6.3146-8.2743L8.49205-8.2743 8.5356 0 6.48879 0C6.4017-0.522587 6.53234-1.21937 6.35815-1.65486 5.83556-0.566136 5.13878 0.174196 3.70166 0.174196" fill="#012A4D" fill-rule="nonzero" fill-opacity="1" transform="matrix(1 0 0 1.00069 525.589 482.764)"/><path d="M8.05656-2.09035C7.49042-0.783881 6.44525 0.217745 4.48554 0.174196 1.87261 0.0870979 0.609685-1.43712 0.609685-4.1807 0.609685-6.92428 1.91615-8.4485 4.52909-8.4485 7.22913-8.4485 8.14365-6.48879 8.1872-3.74521L2.87423-3.74521C2.87423-2.39519 3.22262-1.35002 4.57264-1.30647 5.35652-1.30647 5.87911-1.61131 6.05331-2.26455ZM6.09685-5.09523C6.3146-7.09848 3.61456-7.83881 3.04843-6.00976 2.96133-5.74846 2.87423-5.44362 2.87423-5.09523L6.09685-5.09523" fill="#012A4D" fill-rule="nonzero" fill-opacity="1" transform="matrix(1 0 0 1.00069 535.127 482.764)"/><path d="M5.96621-6.00976C6.00976-7.27268 2.91778-7.49042 2.87423-6.18395 3.52747-4.1807 8.01301-5.87911 8.05656-2.43874 8.10011 1.17582 0.914528 0.870979 0.566136-2.0468L2.43874-2.35164C2.61294-1.52421 3.30972-1.26292 4.3549-1.26292 5.79201-0.914528 6.83719-2.56939 5.40007-3.04843 3.52747-3.65811 0.958077-3.52747 0.870979-5.92266 0.783881-9.40657 7.57752-9.14528 7.88236-6.2275" fill="#012A4D" fill-rule="nonzero" fill-opacity="1" transform="matrix(1 0 0 1.00069 543.836 482.764)"/><path d="M5.00813-0.130647C3.44037 0.479039 1.21937 0.174196 1.21937-1.9597L1.21937-6.83719 0.174196-6.83719 0.174196-8.2743 1.35002-8.2743 2.00325-10.234 3.35327-10.234 3.35327-8.2743 4.92103-8.2743 4.92103-6.83719 3.35327-6.83719 3.35327-2.52584C3.30972-1.52421 4.05005-1.17582 5.00813-1.43712L5.00813-0.130647" fill="#012A4D" fill-rule="nonzero" fill-opacity="1" transform="matrix(1 0 0 1.00069 552.546 482.764)"/><path d="M1.08872-9.75497 1.08872-11.3663 3.26617-11.3663 3.26617-9.75497 1.08872-9.75497ZM1.08872 0 1.08872-8.2743 3.26617-8.2743 3.26617 0 1.08872 0" fill="#012A4D" fill-rule="nonzero" fill-opacity="1" transform="matrix(1 0 0 1.00069 557.729 482.764)"/><path d="M4.79039-8.4485C7.57752-8.4485 8.97108-6.88073 8.97108-4.13715 8.97108-1.35002 7.44687 0.174196 4.74684 0.174196 2.09035 0.174196 0.609685-1.39357 0.609685-4.13715 0.609685-6.83719 2.09035-8.4485 4.79039-8.4485ZM4.74684-1.30647C6.27105-1.30647 6.70654-2.52584 6.70654-4.13715 6.70654-5.87911 6.27105-6.96783 4.83393-6.96783 3.35327-6.96783 2.87423-5.83556 2.87423-4.13715 2.87423-2.56939 3.30972-1.30647 4.74684-1.30647" fill="#012A4D" fill-rule="nonzero" fill-opacity="1" transform="matrix(1 0 0 1.00069 562.083 482.764)"/><path d="M5.87911-8.4485C9.66787-8.49205 8.40495-3.52747 8.62269 0L6.44525 0C6.1404-2.48229 7.44687-6.83719 4.96458-6.83719 2.39519-6.83719 3.48392-2.61294 3.26617 0L1.08872 0 1.04517-8.2743 3.09198-8.2743C3.17907-7.75171 3.04843-7.05493 3.22262-6.61944 3.74521-7.75171 4.44199-8.40495 5.87911-8.4485" fill="#012A4D" fill-rule="nonzero" fill-opacity="1" transform="matrix(1 0 0 1.00069 571.621 482.764)"/><path d="M-1589.12 1795.71-1511.4 1795.71" stroke="#BBC909" stroke-width="6.34944" stroke-linecap="butt" stroke-linejoin="miter" stroke-miterlimit="4" stroke-opacity="1" fill="none" fill-rule="nonzero" transform="matrix(1 0 0 1.00069 1949.71 -1326.79)"/><path d="M-1589.05 1798.89-1592.3 1798.89-1592.3 1792.54-1589.05 1792.54Z" stroke="#BBC909" stroke-width="0.0352746" stroke-linecap="butt" stroke-linejoin="miter" stroke-miterlimit="4" stroke-opacity="1" fill="#BBC909" fill-rule="nonzero" fill-opacity="1" transform="matrix(1 0 0 1.00069 1949.71 -1326.79)"/><path d="M-1498.16 1795.71-1508.22 1798.99-1508.22 1792.45Z" stroke="#BBC909" stroke-width="6.34944" stroke-linecap="butt" stroke-linejoin="miter" stroke-miterlimit="4" stroke-opacity="1" fill="#BBC909" fill-rule="nonzero" fill-opacity="1" transform="matrix(1 0 0 1.00069 1949.71 -1326.79)"/><path d="M-1401.11 1653.32-1401.11 1723.99" stroke="#BBC909" stroke-width="6.34944" stroke-linecap="butt" stroke-linejoin="miter" stroke-miterlimit="4" stroke-opacity="1" fill="none" fill-rule="nonzero" transform="matrix(1 0 0 1.00069 1949.71 -1326.79)"/><path d="M-1397.93 1653.39-1404.28 1653.39-1404.28 1650.15-1397.93 1650.15Z" stroke="#BBC909" stroke-width="0.0352746" stroke-linecap="butt" stroke-linejoin="miter" stroke-miterlimit="4" stroke-opacity="1" fill="#BBC909" fill-rule="nonzero" fill-opacity="1" transform="matrix(1 0 0 1.00069 1949.71 -1326.79)"/><path d="M-1401.11 1737.23-1404.38 1727.17-1397.84 1727.17Z" stroke="#BBC909" stroke-width="6.34944" stroke-linecap="butt" stroke-linejoin="miter" stroke-miterlimit="4" stroke-opacity="1" fill="#BBC909" fill-rule="nonzero" fill-opacity="1" transform="matrix(1 0 0 1.00069 1949.71 -1326.79)"/><path d="M-1311.16 1795.71-1224.97 1795.71" stroke="#BBC909" stroke-width="6.34944" stroke-linecap="butt" stroke-linejoin="miter" stroke-miterlimit="4" stroke-opacity="1" fill="none" fill-rule="nonzero" transform="matrix(1 0 0 1.00069 1949.71 -1326.79)"/><path d="M-1311.07 1798.89-1314.33 1798.89-1314.33 1792.54-1311.07 1792.54Z" stroke="#BBC909" stroke-width="0.0352746" stroke-linecap="butt" stroke-linejoin="miter" stroke-miterlimit="4" stroke-opacity="1" fill="#BBC909" fill-rule="nonzero" fill-opacity="1" transform="matrix(1 0 0 1.00069 1949.71 -1326.79)"/><path d="M-1211.73 1795.71-1221.79 1798.99-1221.79 1792.45Z" stroke="#BBC909" stroke-width="6.34944" stroke-linecap="butt" stroke-linejoin="miter" stroke-miterlimit="4" stroke-opacity="1" fill="#BBC909" fill-rule="nonzero" fill-opacity="1" transform="matrix(1 0 0 1.00069 1949.71 -1326.79)"/><path d="M-1114.68 1653.32-1114.68 1723.99" stroke="#BBC909" stroke-width="6.34944" stroke-linecap="butt" stroke-linejoin="miter" stroke-miterlimit="4" stroke-opacity="1" fill="none" fill-rule="nonzero" transform="matrix(1 0 0 1.00069 1949.71 -1326.79)"/><path d="M-1111.5 1653.39-1117.85 1653.39-1117.85 1650.15-1111.5 1650.15Z" stroke="#BBC909" stroke-width="0.0352746" stroke-linecap="butt" stroke-linejoin="miter" stroke-miterlimit="4" stroke-opacity="1" fill="#BBC909" fill-rule="nonzero" fill-opacity="1" transform="matrix(1 0 0 1.00069 1949.71 -1326.79)"/><path d="M-1114.68 1737.23-1117.95 1727.17-1111.41 1727.17Z" stroke="#BBC909" stroke-width="6.34944" stroke-linecap="butt" stroke-linejoin="miter" stroke-miterlimit="4" stroke-opacity="1" fill="#BBC909" fill-rule="nonzero" fill-opacity="1" transform="matrix(1 0 0 1.00069 1949.71 -1326.79)"/><path d="M-1024.73 1795.71-980.868 1795.71C-980.741 1795.71-980.635 1795.61-980.635 1795.48-980.635 1795.35-980.529 1795.25-980.403 1795.25L-956.881 1795.25" stroke="#BBC909" stroke-width="6.34944" stroke-linecap="butt" stroke-linejoin="miter" stroke-miterlimit="4" stroke-opacity="1" fill="none" fill-rule="nonzero" transform="matrix(1 0 0 1.00069 1949.71 -1326.79)"/><path d="M-1024.64 1798.89-1027.9 1798.89-1027.9 1792.54-1024.64 1792.54Z" stroke="#BBC909" stroke-width="0.0352746" stroke-linecap="butt" stroke-linejoin="miter" stroke-miterlimit="4" stroke-opacity="1" fill="#BBC909" fill-rule="nonzero" fill-opacity="1" transform="matrix(1 0 0 1.00069 1949.71 -1326.79)"/><path d="M-943.639 1795.25-953.707 1798.51-953.707 1791.97Z" stroke="#BBC909" stroke-width="6.34944" stroke-linecap="butt" stroke-linejoin="miter" stroke-miterlimit="4" stroke-opacity="1" fill="#BBC909" fill-rule="nonzero" fill-opacity="1" transform="matrix(1 0 0 1.00069 1949.71 -1326.79)"/></g></g></g></g></g></svg>