<svg width="1104" height="450" xmlns="http://www.w3.org/2000/svg" xmlns:xlink="http://www.w3.org/1999/xlink" xml:space="preserve" overflow="hidden"><g transform="translate(-108 -146)"><g><g><g><path d="M-2428.17 1183.94C-2428.17 1188.73-2444.81 1192.61-2465.34 1192.61-2485.87 1192.61-2502.5 1188.73-2502.5 1183.94L-2502.5 1114.56C-2502.5 1109.77-2485.87 1105.89-2465.34 1105.89-2444.81 1105.89-2428.17 1109.77-2428.17 1114.56Z" stroke="#012A4D" stroke-width="3.71659" stroke-linecap="butt" stroke-linejoin="miter" stroke-miterlimit="4" stroke-opacity="1" fill="#FFFFFF" fill-rule="nonzero" fill-opacity="1" transform="matrix(1 0 0 1.00041 2687.14 -830.295)"/><path d="M-2428.17 1114.56C-2428.17 1119.36-2444.81 1123.23-2465.34 1123.23-2485.87 1123.23-2502.5 1119.36-2502.5 1114.56" stroke="#012A4D" stroke-width="3.71659" stroke-linecap="butt" stroke-linejoin="miter" stroke-miterlimit="4" stroke-opacity="1" fill="none" fill-rule="nonzero" transform="matrix(1 0 0 1.00041 2687.14 -830.295)"/><path d="M0.917677-9.48266C4.47367-9.44442 8.7944-10.0944 8.71793-6.46197 8.67969-3.59423 6.07961-3.09716 2.90598-3.32658L2.90598 0 0.917677 0 0.917677-9.48266ZM2.90598-4.85604C4.70309-4.85604 6.72963-4.58838 6.72963-6.42374 6.72963-8.22085 4.66486-7.91496 2.90598-7.91496L2.90598-4.85604" fill="#012A4D" fill-rule="nonzero" fill-opacity="1" transform="matrix(1 0 0 1.00041 192.778 313.442)"/><path d="M7.07376-1.83535C6.57668-0.688258 5.65901 0.191183 3.93836 0.152946 1.64417 0.0764731 0.535311-1.26181 0.535311-3.67071 0.535311-6.07961 1.68241-7.41789 3.9766-7.41789 6.34726-7.41789 7.15023-5.69724 7.18847-3.28834L2.52361-3.28834C2.52361-2.10301 2.8295-1.18533 4.01484-1.1471 4.70309-1.1471 5.16193-1.41475 5.31488-1.9883ZM5.35311-4.47367C5.5443-6.23255 3.17363-6.88258 2.67656-5.27664 2.60008-5.04722 2.52361-4.77957 2.52361-4.47367L5.35311-4.47367" fill="#012A4D" fill-rule="nonzero" fill-opacity="1" transform="matrix(1 0 0 1.00041 201.955 313.442)"/><path d="M5.16193-5.73548C3.67071-6.19432 2.86774-5.2384 2.86774-3.556L2.86774 0 0.955913 0 0.917677-7.26494 2.71479-7.26494C2.79127-6.76787 2.67656-6.15608 2.8295-5.73548 3.05892-6.8061 3.86189-7.76202 5.16193-7.30318L5.16193-5.73548" fill="#012A4D" fill-rule="nonzero" fill-opacity="1" transform="matrix(1 0 0 1.00041 209.602 313.442)"/><path d="M5.2384-5.27664C5.27664-6.3855 2.56185-6.57668 2.52361-5.42959 3.09716-3.67071 7.03552-5.16193 7.07376-2.14125 7.11199 1.03239 0.802967 0.764731 0.497075-1.79712L2.14125-2.06477C2.29419-1.33828 2.90598-1.10886 3.82365-1.10886 5.08546-0.802967 6.00314-2.25596 4.74133-2.67656 3.09716-3.21187 0.841204-3.09716 0.764731-5.20017 0.688258-8.25909 6.65316-8.02967 6.92081-5.46782" fill="#012A4D" fill-rule="nonzero" fill-opacity="1" transform="matrix(1 0 0 1.00041 214.955 313.442)"/><path d="M4.20602-7.41789C6.65316-7.41789 7.87672-6.04137 7.87672-3.63247 7.87672-1.18533 6.53845 0.152946 4.16778 0.152946 1.83535 0.152946 0.535311-1.22357 0.535311-3.63247 0.535311-6.00314 1.83535-7.41789 4.20602-7.41789ZM4.16778-1.1471C5.50606-1.1471 5.88843-2.21772 5.88843-3.63247 5.88843-5.16193 5.50606-6.11784 4.24425-6.11784 2.94421-6.11784 2.52361-5.12369 2.52361-3.63247 2.52361-2.25596 2.90598-1.1471 4.16778-1.1471" fill="#012A4D" fill-rule="nonzero" fill-opacity="1" transform="matrix(1 0 0 1.00041 222.603 313.442)"/><path d="M5.16193-7.41789C8.48851-7.45612 7.37965-3.09716 7.57083 0L5.65901 0C5.39135-2.17948 6.53845-6.00314 4.35896-6.00314 2.10301-6.00314 3.05892-2.29419 2.86774 0L0.955913 0 0.917677-7.26494 2.71479-7.26494C2.79127-6.8061 2.67656-6.19432 2.8295-5.81195 3.28834-6.8061 3.90013-7.37965 5.16193-7.41789" fill="#012A4D" fill-rule="nonzero" fill-opacity="1" transform="matrix(1 0 0 1.00041 230.976 313.442)"/><path d="M5.08546-1.30004C4.47367-0.573548 3.93836 0.191183 2.63832 0.152946 1.22357 0.11471 0.420602-0.611784 0.420602-2.06477 0.382365-4.35896 2.52361-4.47367 4.85604-4.3972 4.89428-5.39135 4.74133-6.19432 3.78542-6.19432 3.09716-6.15608 2.79127-5.85019 2.71479-5.16193L0.726494-5.2384C0.99415-6.69139 2.10301-7.45612 3.86189-7.41789 5.62077-7.37965 6.69139-6.57668 6.72963-4.8178L6.76787-1.68241C6.72963-1.1471 7.2267-0.99415 7.72378-1.10886L7.72378-0.0764731C6.57668 0.229419 5.00899 0.11471 5.08546-1.30004ZM3.2501-1.18533C4.35896-1.18533 4.89428-2.10301 4.85604-3.36481 3.63247-3.36481 2.33243-3.47952 2.37066-2.21772 2.37066-1.5677 2.67656-1.18533 3.2501-1.18533" fill="#012A4D" fill-rule="nonzero" fill-opacity="1" transform="matrix(1 0 0 1.00041 239.35 313.442)"/><path d="M0.955913 0 0.955913-9.97973 2.86774-9.97973 2.86774 0 0.955913 0" fill="#012A4D" fill-rule="nonzero" fill-opacity="1" transform="matrix(1 0 0 1.00041 246.998 313.442)"/><path d="M7.11199 0 7.11199-4.05307 2.90598-4.05307 2.90598 0 0.917677 0 0.917677-9.48266 2.90598-9.48266 2.90598-5.69724 7.11199-5.69724 7.11199-9.48266 9.02382-9.48266 9.02382 0 7.11199 0" fill="#012A4D" fill-rule="nonzero" fill-opacity="1" transform="matrix(1 0 0 1.00041 200.825 329.969)"/><path d="M7.07376-1.83535C6.57668-0.688258 5.65901 0.191183 3.93836 0.152946 1.64417 0.0764731 0.535311-1.26181 0.535311-3.67071 0.535311-6.07961 1.68241-7.41789 3.9766-7.41789 6.34726-7.41789 7.15023-5.69724 7.18847-3.28834L2.52361-3.28834C2.52361-2.10301 2.8295-1.18533 4.01484-1.1471 4.70309-1.1471 5.16193-1.41475 5.31488-1.9883ZM5.35311-4.47367C5.5443-6.23255 3.17363-6.88258 2.67656-5.27664 2.60008-5.04722 2.52361-4.77957 2.52361-4.47367L5.35311-4.47367" fill="#012A4D" fill-rule="nonzero" fill-opacity="1" transform="matrix(1 0 0 1.00041 210.728 329.969)"/><path d="M5.08546-1.30004C4.47367-0.573548 3.93836 0.191183 2.63832 0.152946 1.22357 0.11471 0.420602-0.611784 0.420602-2.06477 0.382365-4.35896 2.52361-4.47367 4.85604-4.3972 4.89428-5.39135 4.74133-6.19432 3.78542-6.19432 3.09716-6.15608 2.79127-5.85019 2.71479-5.16193L0.726494-5.2384C0.99415-6.69139 2.10301-7.45612 3.86189-7.41789 5.62077-7.37965 6.69139-6.57668 6.72963-4.8178L6.76787-1.68241C6.72963-1.1471 7.2267-0.99415 7.72378-1.10886L7.72378-0.0764731C6.57668 0.229419 5.00899 0.11471 5.08546-1.30004ZM3.2501-1.18533C4.35896-1.18533 4.89428-2.10301 4.85604-3.36481 3.63247-3.36481 2.33243-3.47952 2.37066-2.21772 2.37066-1.5677 2.67656-1.18533 3.2501-1.18533" fill="#012A4D" fill-rule="nonzero" fill-opacity="1" transform="matrix(1 0 0 1.00041 218.375 329.969)"/><path d="M0.955913 0 0.955913-9.97973 2.86774-9.97973 2.86774 0 0.955913 0" fill="#012A4D" fill-rule="nonzero" fill-opacity="1" transform="matrix(1 0 0 1.00041 226.022 329.969)"/><path d="M4.3972-0.11471C3.02069 0.420602 1.07062 0.152946 1.07062-1.72064L1.07062-6.00314 0.152946-6.00314 0.152946-7.26494 1.18533-7.26494 1.75888-8.98558 2.94421-8.98558 2.94421-7.26494 4.32073-7.26494 4.32073-6.00314 2.94421-6.00314 2.94421-2.21772C2.90598-1.33828 3.556-1.03239 4.3972-1.26181L4.3972-0.11471" fill="#012A4D" fill-rule="nonzero" fill-opacity="1" transform="matrix(1 0 0 1.00041 229.846 329.969)"/><path d="M4.35896-6.00314C2.10301-6.00314 3.05892-2.29419 2.86774 0L0.955913 0 0.955913-9.97973 2.86774-9.97973 2.8295-5.81195C3.28834-6.8061 3.90013-7.37965 5.16193-7.41789 8.45027-7.45612 7.37965-3.09716 7.57083 0L5.65901 0C5.39135-2.17948 6.53845-6.00314 4.35896-6.00314" fill="#012A4D" fill-rule="nonzero" fill-opacity="1" transform="matrix(1 0 0 1.00041 234.396 329.969)"/><path d="M9.17677-6.65316C9.17677-5.12369 8.29733-4.32073 7.11199-3.9766L9.67384 0 7.41789 0 5.2384-3.59423 2.90598-3.59423 2.90598 0 0.917677 0 0.917677-9.48266C4.47367-9.32971 9.215-10.3621 9.17677-6.65316ZM2.90598-5.12369C4.74133-5.20017 7.18847-4.66486 7.18847-6.57668 7.18847-8.41204 4.66486-7.80025 2.90598-7.91496L2.90598-5.12369" fill="#012A4D" fill-rule="nonzero" fill-opacity="1" transform="matrix(1 0 0 1.00041 194.327 346.496)"/><path d="M7.07376-1.83535C6.57668-0.688258 5.65901 0.191183 3.93836 0.152946 1.64417 0.0764731 0.535311-1.26181 0.535311-3.67071 0.535311-6.07961 1.68241-7.41789 3.9766-7.41789 6.34726-7.41789 7.15023-5.69724 7.18847-3.28834L2.52361-3.28834C2.52361-2.10301 2.8295-1.18533 4.01484-1.1471 4.70309-1.1471 5.16193-1.41475 5.31488-1.9883ZM5.35311-4.47367C5.5443-6.23255 3.17363-6.88258 2.67656-5.27664 2.60008-5.04722 2.52361-4.77957 2.52361-4.47367L5.35311-4.47367" fill="#012A4D" fill-rule="nonzero" fill-opacity="1" transform="matrix(1 0 0 1.00041 204.23 346.496)"/><path d="M7.26494-2.4089C6.99728-0.802967 5.81195 0.152946 3.9766 0.152946 1.72064 0.152946 0.764731-1.30004 0.535311-3.59423 0.0764731-7.80025 6.42374-8.83264 7.18847-4.97075L5.31488-4.89428C5.2384-5.62077 4.74133-6.11784 3.9766-6.11784 2.8295-6.11784 2.63832-5.04722 2.52361-3.67071 2.29419-0.841204 5.00899-0.344129 5.35311-2.52361" fill="#012A4D" fill-rule="nonzero" fill-opacity="1" transform="matrix(1 0 0 1.00041 211.877 346.496)"/><path d="M4.20602-7.41789C6.65316-7.41789 7.87672-6.04137 7.87672-3.63247 7.87672-1.18533 6.53845 0.152946 4.16778 0.152946 1.83535 0.152946 0.535311-1.22357 0.535311-3.63247 0.535311-6.00314 1.83535-7.41789 4.20602-7.41789ZM4.16778-1.1471C5.50606-1.1471 5.88843-2.21772 5.88843-3.63247 5.88843-5.16193 5.50606-6.11784 4.24425-6.11784 2.94421-6.11784 2.52361-5.12369 2.52361-3.63247 2.52361-2.25596 2.90598-1.1471 4.16778-1.1471" fill="#012A4D" fill-rule="nonzero" fill-opacity="1" transform="matrix(1 0 0 1.00041 219.525 346.496)"/><path d="M5.16193-5.73548C3.67071-6.19432 2.86774-5.2384 2.86774-3.556L2.86774 0 0.955913 0 0.917677-7.26494 2.71479-7.26494C2.79127-6.76787 2.67656-6.15608 2.8295-5.73548 3.05892-6.8061 3.86189-7.76202 5.16193-7.30318L5.16193-5.73548" fill="#012A4D" fill-rule="nonzero" fill-opacity="1" transform="matrix(1 0 0 1.00041 227.898 346.496)"/><path d="M3.36481-7.41789C4.55015-7.45612 5.12369-6.84434 5.58253-6.11784L5.5443-9.97973 7.45612-9.97973 7.49436 0 5.65901 0C5.58253-0.382365 5.65901-0.87944 5.5443-1.18533 5.12369-0.305892 4.43544 0.152946 3.21187 0.152946 1.22357 0.152946 0.611784-1.5677 0.573548-3.63247 0.573548-5.77372 1.30004-7.34141 3.36481-7.41789ZM4.01484-1.1471C5.27664-1.1471 5.5443-2.29419 5.58253-3.67071 5.62077-5.08546 5.2384-6.11784 4.01484-6.11784 2.79127-6.11784 2.56185-4.97075 2.52361-3.63247 2.52361-1.9883 3.02069-1.1471 4.01484-1.1471" fill="#012A4D" fill-rule="nonzero" fill-opacity="1" transform="matrix(1 0 0 1.00041 233.251 346.496)"/><path d="M5.2384-5.27664C5.27664-6.3855 2.56185-6.57668 2.52361-5.42959 3.09716-3.67071 7.03552-5.16193 7.07376-2.14125 7.11199 1.03239 0.802967 0.764731 0.497075-1.79712L2.14125-2.06477C2.29419-1.33828 2.90598-1.10886 3.82365-1.10886 5.08546-0.802967 6.00314-2.25596 4.74133-2.67656 3.09716-3.21187 0.841204-3.09716 0.764731-5.20017 0.688258-8.25909 6.65316-8.02967 6.92081-5.46782" fill="#012A4D" fill-rule="nonzero" fill-opacity="1" transform="matrix(1 0 0 1.00041 241.625 346.496)"/><path d="M-2428.17 1333.84C-2428.17 1337.95-2444.81 1341.27-2465.34 1341.27-2485.87 1341.27-2502.5 1337.95-2502.5 1333.84L-2502.5 1274.38C-2502.5 1270.27-2485.87 1266.94-2465.34 1266.94-2444.81 1266.94-2428.17 1270.27-2428.17 1274.38Z" stroke="#012A4D" stroke-width="3.71659" stroke-linecap="butt" stroke-linejoin="miter" stroke-miterlimit="4" stroke-opacity="1" fill="#FFFFFF" fill-rule="nonzero" fill-opacity="1" transform="matrix(1 0 0 1.00041 2687.14 -830.295)"/><path d="M-2428.17 1274.38C-2428.17 1278.48-2444.81 1281.81-2465.34 1281.81-2485.87 1281.81-2502.5 1278.48-2502.5 1274.38" stroke="#012A4D" stroke-width="3.71659" stroke-linecap="butt" stroke-linejoin="miter" stroke-miterlimit="4" stroke-opacity="1" fill="none" fill-rule="nonzero" transform="matrix(1 0 0 1.00041 2687.14 -830.295)"/><path d="M0.917677-9.48266C4.47367-9.44442 8.7944-10.0944 8.71793-6.46197 8.67969-3.59423 6.07961-3.09716 2.90598-3.32658L2.90598 0 0.917677 0 0.917677-9.48266ZM2.90598-4.85604C4.70309-4.85604 6.72963-4.58838 6.72963-6.42374 6.72963-8.22085 4.66486-7.91496 2.90598-7.91496L2.90598-4.85604" fill="#012A4D" fill-rule="nonzero" fill-opacity="1" transform="matrix(1 0 0 1.00041 192.778 476.153)"/><path d="M7.07376-1.83535C6.57668-0.688258 5.65901 0.191183 3.93836 0.152946 1.64417 0.0764731 0.535311-1.26181 0.535311-3.67071 0.535311-6.07961 1.68241-7.41789 3.9766-7.41789 6.34726-7.41789 7.15023-5.69724 7.18847-3.28834L2.52361-3.28834C2.52361-2.10301 2.8295-1.18533 4.01484-1.1471 4.70309-1.1471 5.16193-1.41475 5.31488-1.9883ZM5.35311-4.47367C5.5443-6.23255 3.17363-6.88258 2.67656-5.27664 2.60008-5.04722 2.52361-4.77957 2.52361-4.47367L5.35311-4.47367" fill="#012A4D" fill-rule="nonzero" fill-opacity="1" transform="matrix(1 0 0 1.00041 201.955 476.153)"/><path d="M5.16193-5.73548C3.67071-6.19432 2.86774-5.2384 2.86774-3.556L2.86774 0 0.955913 0 0.917677-7.26494 2.71479-7.26494C2.79127-6.76787 2.67656-6.15608 2.8295-5.73548 3.05892-6.8061 3.86189-7.76202 5.16193-7.30318L5.16193-5.73548" fill="#012A4D" fill-rule="nonzero" fill-opacity="1" transform="matrix(1 0 0 1.00041 209.602 476.153)"/><path d="M5.2384-5.27664C5.27664-6.3855 2.56185-6.57668 2.52361-5.42959 3.09716-3.67071 7.03552-5.16193 7.07376-2.14125 7.11199 1.03239 0.802967 0.764731 0.497075-1.79712L2.14125-2.06477C2.29419-1.33828 2.90598-1.10886 3.82365-1.10886 5.08546-0.802967 6.00314-2.25596 4.74133-2.67656 3.09716-3.21187 0.841204-3.09716 0.764731-5.20017 0.688258-8.25909 6.65316-8.02967 6.92081-5.46782" fill="#012A4D" fill-rule="nonzero" fill-opacity="1" transform="matrix(1 0 0 1.00041 214.955 476.153)"/><path d="M4.20602-7.41789C6.65316-7.41789 7.87672-6.04137 7.87672-3.63247 7.87672-1.18533 6.53845 0.152946 4.16778 0.152946 1.83535 0.152946 0.535311-1.22357 0.535311-3.63247 0.535311-6.00314 1.83535-7.41789 4.20602-7.41789ZM4.16778-1.1471C5.50606-1.1471 5.88843-2.21772 5.88843-3.63247 5.88843-5.16193 5.50606-6.11784 4.24425-6.11784 2.94421-6.11784 2.52361-5.12369 2.52361-3.63247 2.52361-2.25596 2.90598-1.1471 4.16778-1.1471" fill="#012A4D" fill-rule="nonzero" fill-opacity="1" transform="matrix(1 0 0 1.00041 222.603 476.153)"/><path d="M5.16193-7.41789C8.48851-7.45612 7.37965-3.09716 7.57083 0L5.65901 0C5.39135-2.17948 6.53845-6.00314 4.35896-6.00314 2.10301-6.00314 3.05892-2.29419 2.86774 0L0.955913 0 0.917677-7.26494 2.71479-7.26494C2.79127-6.8061 2.67656-6.19432 2.8295-5.81195 3.28834-6.8061 3.90013-7.37965 5.16193-7.41789" fill="#012A4D" fill-rule="nonzero" fill-opacity="1" transform="matrix(1 0 0 1.00041 230.976 476.153)"/><path d="M5.08546-1.30004C4.47367-0.573548 3.93836 0.191183 2.63832 0.152946 1.22357 0.11471 0.420602-0.611784 0.420602-2.06477 0.382365-4.35896 2.52361-4.47367 4.85604-4.3972 4.89428-5.39135 4.74133-6.19432 3.78542-6.19432 3.09716-6.15608 2.79127-5.85019 2.71479-5.16193L0.726494-5.2384C0.99415-6.69139 2.10301-7.45612 3.86189-7.41789 5.62077-7.37965 6.69139-6.57668 6.72963-4.8178L6.76787-1.68241C6.72963-1.1471 7.2267-0.99415 7.72378-1.10886L7.72378-0.0764731C6.57668 0.229419 5.00899 0.11471 5.08546-1.30004ZM3.2501-1.18533C4.35896-1.18533 4.89428-2.10301 4.85604-3.36481 3.63247-3.36481 2.33243-3.47952 2.37066-2.21772 2.37066-1.5677 2.67656-1.18533 3.2501-1.18533" fill="#012A4D" fill-rule="nonzero" fill-opacity="1" transform="matrix(1 0 0 1.00041 239.35 476.153)"/><path d="M0.955913 0 0.955913-9.97973 2.86774-9.97973 2.86774 0 0.955913 0" fill="#012A4D" fill-rule="nonzero" fill-opacity="1" transform="matrix(1 0 0 1.00041 246.998 476.153)"/><path d="M2.90598-7.9532 2.90598-5.00899 7.76202-5.00899 7.76202-3.47952 2.90598-3.47952 2.90598 0 0.917677 0 0.917677-9.48266 7.91496-9.48266 7.91496-7.9532 2.90598-7.9532" fill="#012A4D" fill-rule="nonzero" fill-opacity="1" transform="matrix(1 0 0 1.00041 190.579 492.673)"/><path d="M4.20602-7.41789C6.65316-7.41789 7.87672-6.04137 7.87672-3.63247 7.87672-1.18533 6.53845 0.152946 4.16778 0.152946 1.83535 0.152946 0.535311-1.22357 0.535311-3.63247 0.535311-6.00314 1.83535-7.41789 4.20602-7.41789ZM4.16778-1.1471C5.50606-1.1471 5.88843-2.21772 5.88843-3.63247 5.88843-5.16193 5.50606-6.11784 4.24425-6.11784 2.94421-6.11784 2.52361-5.12369 2.52361-3.63247 2.52361-2.25596 2.90598-1.1471 4.16778-1.1471" fill="#012A4D" fill-rule="nonzero" fill-opacity="1" transform="matrix(1 0 0 1.00041 198.953 492.673)"/><path d="M4.20602-7.41789C6.65316-7.41789 7.87672-6.04137 7.87672-3.63247 7.87672-1.18533 6.53845 0.152946 4.16778 0.152946 1.83535 0.152946 0.535311-1.22357 0.535311-3.63247 0.535311-6.00314 1.83535-7.41789 4.20602-7.41789ZM4.16778-1.1471C5.50606-1.1471 5.88843-2.21772 5.88843-3.63247 5.88843-5.16193 5.50606-6.11784 4.24425-6.11784 2.94421-6.11784 2.52361-5.12369 2.52361-3.63247 2.52361-2.25596 2.90598-1.1471 4.16778-1.1471" fill="#012A4D" fill-rule="nonzero" fill-opacity="1" transform="matrix(1 0 0 1.00041 207.327 492.673)"/><path d="M3.36481-7.41789C4.55015-7.45612 5.12369-6.84434 5.58253-6.11784L5.5443-9.97973 7.45612-9.97973 7.49436 0 5.65901 0C5.58253-0.382365 5.65901-0.87944 5.5443-1.18533 5.12369-0.305892 4.43544 0.152946 3.21187 0.152946 1.22357 0.152946 0.611784-1.5677 0.573548-3.63247 0.573548-5.77372 1.30004-7.34141 3.36481-7.41789ZM4.01484-1.1471C5.27664-1.1471 5.5443-2.29419 5.58253-3.67071 5.62077-5.08546 5.2384-6.11784 4.01484-6.11784 2.79127-6.11784 2.56185-4.97075 2.52361-3.63247 2.52361-1.9883 3.02069-1.1471 4.01484-1.1471" fill="#012A4D" fill-rule="nonzero" fill-opacity="1" transform="matrix(1 0 0 1.00041 215.701 492.673)"/><path d="M0.917677 0 0.917677-9.48266 2.90598-9.48266 2.90598-1.52946 7.99143-1.52946 7.99143 0 0.917677 0" fill="#012A4D" fill-rule="nonzero" fill-opacity="1" transform="matrix(1 0 0 1.00041 227.9 492.673)"/><path d="M4.20602-7.41789C6.65316-7.41789 7.87672-6.04137 7.87672-3.63247 7.87672-1.18533 6.53845 0.152946 4.16778 0.152946 1.83535 0.152946 0.535311-1.22357 0.535311-3.63247 0.535311-6.00314 1.83535-7.41789 4.20602-7.41789ZM4.16778-1.1471C5.50606-1.1471 5.88843-2.21772 5.88843-3.63247 5.88843-5.16193 5.50606-6.11784 4.24425-6.11784 2.94421-6.11784 2.52361-5.12369 2.52361-3.63247 2.52361-2.25596 2.90598-1.1471 4.16778-1.1471" fill="#012A4D" fill-rule="nonzero" fill-opacity="1" transform="matrix(1 0 0 1.00041 236.274 492.673)"/><path d="M7.45612-0.229419C7.87672 3.1354 2.86774 3.82365 1.18533 1.75888 1.03239 1.52946 0.955913 1.26181 0.87944 0.955913L2.75303 0.726494C2.86774 1.33828 3.36481 1.64417 4.05307 1.68241 5.58253 1.68241 5.65901 0.267656 5.58253-1.33828 5.16193-0.497075 4.43544 0 3.2501 0 1.22357 0 0.573548-1.64417 0.573548-3.70894 0.573548-5.85019 1.26181-7.37965 3.36481-7.41789 4.51191-7.41789 5.12369-6.88258 5.62077-6.11784L5.69724-7.26494 7.49436-7.26494ZM4.01484-1.33828C5.2384-1.33828 5.58253-2.37066 5.58253-3.74718 5.58253-5.08546 5.2384-6.11784 4.05307-6.11784 2.8295-6.11784 2.56185-5.00899 2.52361-3.70894 2.52361-2.33243 2.86774-1.33828 4.01484-1.33828" fill="#012A4D" fill-rule="nonzero" fill-opacity="1" transform="matrix(1 0 0 1.00041 244.647 492.673)"/><path d="M-2361.96 1109.61C-2361.96 1107.56-2360.29 1105.89-2358.24 1105.89L-2266.56 1105.89C-2264.51 1105.89-2262.85 1107.56-2262.85 1109.61L-2262.85 1176.51C-2262.85 1178.56-2264.51 1180.22-2266.56 1180.22L-2358.24 1180.22C-2360.29 1180.22-2361.96 1178.56-2361.96 1176.51Z" stroke="#012A4D" stroke-width="3.71659" stroke-linecap="butt" stroke-linejoin="miter" stroke-miterlimit="4" stroke-opacity="1" fill="#FFFFFF" fill-rule="nonzero" fill-opacity="1" transform="matrix(1 0 0 1.00041 2687.14 -830.295)"/><path d="M6.46197-6.95905C6.42374-8.60322 2.86774-8.71793 2.75303-7.07376 3.44129-4.55015 8.52675-6.69139 8.64146-2.71479 8.75617 0.917677 2.33243 0.841204 0.841204-1.33828 0.611784-1.64417 0.458838-2.06477 0.382365-2.48537L2.29419-2.79127C2.4089-1.03239 6.57668-0.650021 6.72963-2.60008 6.07961-5.2384 0.99415-2.98245 0.841204-6.95905 0.688258-10.2856 6.69139-10.3239 8.02967-8.29733 8.22085-7.99143 8.33556-7.60907 8.41204-7.2267" fill="#012A4D" fill-rule="nonzero" fill-opacity="1" transform="matrix(1 0 0 1.00041 344.18 300.081)"/><path d="M7.07376-1.83535C6.57668-0.688258 5.65901 0.191183 3.93836 0.152946 1.64417 0.0764731 0.535311-1.26181 0.535311-3.67071 0.535311-6.07961 1.68241-7.41789 3.9766-7.41789 6.34726-7.41789 7.15023-5.69724 7.18847-3.28834L2.52361-3.28834C2.52361-2.10301 2.8295-1.18533 4.01484-1.1471 4.70309-1.1471 5.16193-1.41475 5.31488-1.9883ZM5.35311-4.47367C5.5443-6.23255 3.17363-6.88258 2.67656-5.27664 2.60008-5.04722 2.52361-4.77957 2.52361-4.47367L5.35311-4.47367" fill="#012A4D" fill-rule="nonzero" fill-opacity="1" transform="matrix(1 0 0 1.00041 353.356 300.081)"/><path d="M8.41204-6.00314C6.3855-5.65901 7.34141-2.17948 7.11199 0L5.2384 0 5.2384-4.09131C5.27664-5.12369 5.04722-5.9649 4.12955-6.00314 2.10301-5.62077 3.09716-2.17948 2.86774 0L0.955913 0 0.917677-7.26494 2.71479-7.26494C2.79127-6.8061 2.67656-6.19432 2.8295-5.81195 3.21187-7.83849 6.69139-7.9532 6.95905-5.81195 7.45612-6.65316 7.87672-7.45612 9.215-7.41789 12.3504-7.37965 11.1651-2.98245 11.3945 0L9.5209 0 9.5209-4.09131C9.48266-5.04722 9.32971-5.92666 8.41204-6.00314" fill="#012A4D" fill-rule="nonzero" fill-opacity="1" transform="matrix(1 0 0 1.00041 361.004 300.081)"/><path d="M5.08546-1.30004C4.47367-0.573548 3.93836 0.191183 2.63832 0.152946 1.22357 0.11471 0.420602-0.611784 0.420602-2.06477 0.382365-4.35896 2.52361-4.47367 4.85604-4.3972 4.89428-5.39135 4.74133-6.19432 3.78542-6.19432 3.09716-6.15608 2.79127-5.85019 2.71479-5.16193L0.726494-5.2384C0.99415-6.69139 2.10301-7.45612 3.86189-7.41789 5.62077-7.37965 6.69139-6.57668 6.72963-4.8178L6.76787-1.68241C6.72963-1.1471 7.2267-0.99415 7.72378-1.10886L7.72378-0.0764731C6.57668 0.229419 5.00899 0.11471 5.08546-1.30004ZM3.2501-1.18533C4.35896-1.18533 4.89428-2.10301 4.85604-3.36481 3.63247-3.36481 2.33243-3.47952 2.37066-2.21772 2.37066-1.5677 2.67656-1.18533 3.2501-1.18533" fill="#012A4D" fill-rule="nonzero" fill-opacity="1" transform="matrix(1 0 0 1.00041 373.239 300.081)"/><path d="M5.16193-7.41789C8.48851-7.45612 7.37965-3.09716 7.57083 0L5.65901 0C5.39135-2.17948 6.53845-6.00314 4.35896-6.00314 2.10301-6.00314 3.05892-2.29419 2.86774 0L0.955913 0 0.917677-7.26494 2.71479-7.26494C2.79127-6.8061 2.67656-6.19432 2.8295-5.81195 3.28834-6.8061 3.90013-7.37965 5.16193-7.41789" fill="#012A4D" fill-rule="nonzero" fill-opacity="1" transform="matrix(1 0 0 1.00041 380.887 300.081)"/><path d="M4.3972-0.11471C3.02069 0.420602 1.07062 0.152946 1.07062-1.72064L1.07062-6.00314 0.152946-6.00314 0.152946-7.26494 1.18533-7.26494 1.75888-8.98558 2.94421-8.98558 2.94421-7.26494 4.32073-7.26494 4.32073-6.00314 2.94421-6.00314 2.94421-2.21772C2.90598-1.33828 3.556-1.03239 4.3972-1.26181L4.3972-0.11471" fill="#012A4D" fill-rule="nonzero" fill-opacity="1" transform="matrix(1 0 0 1.00041 389.261 300.081)"/><path d="M0.955913-8.56498 0.955913-9.97973 2.86774-9.97973 2.86774-8.56498 0.955913-8.56498ZM0.955913 0 0.955913-7.26494 2.86774-7.26494 2.86774 0 0.955913 0" fill="#012A4D" fill-rule="nonzero" fill-opacity="1" transform="matrix(1 0 0 1.00041 393.811 300.081)"/><path d="M7.26494-2.4089C6.99728-0.802967 5.81195 0.152946 3.9766 0.152946 1.72064 0.152946 0.764731-1.30004 0.535311-3.59423 0.0764731-7.80025 6.42374-8.83264 7.18847-4.97075L5.31488-4.89428C5.2384-5.62077 4.74133-6.11784 3.9766-6.11784 2.8295-6.11784 2.63832-5.04722 2.52361-3.67071 2.29419-0.841204 5.00899-0.344129 5.35311-2.52361" fill="#012A4D" fill-rule="nonzero" fill-opacity="1" transform="matrix(1 0 0 1.00041 397.634 300.081)"/><path d="M0.917677-9.48266C5.50606-9.75031 9.44442-9.29148 9.36795-4.8178 9.32971-1.75888 7.68554 0 4.74133 0L0.917677 0 0.917677-9.48266ZM2.90598-1.52946C5.73548-1.26181 7.37965-2.21772 7.37965-4.8178 7.37965-7.37965 5.65901-8.18262 2.90598-7.9532L2.90598-1.52946" fill="#012A4D" fill-rule="nonzero" fill-opacity="1" transform="matrix(1 0 0 1.00041 359.857 316.608)"/><path d="M5.08546-1.30004C4.47367-0.573548 3.93836 0.191183 2.63832 0.152946 1.22357 0.11471 0.420602-0.611784 0.420602-2.06477 0.382365-4.35896 2.52361-4.47367 4.85604-4.3972 4.89428-5.39135 4.74133-6.19432 3.78542-6.19432 3.09716-6.15608 2.79127-5.85019 2.71479-5.16193L0.726494-5.2384C0.99415-6.69139 2.10301-7.45612 3.86189-7.41789 5.62077-7.37965 6.69139-6.57668 6.72963-4.8178L6.76787-1.68241C6.72963-1.1471 7.2267-0.99415 7.72378-1.10886L7.72378-0.0764731C6.57668 0.229419 5.00899 0.11471 5.08546-1.30004ZM3.2501-1.18533C4.35896-1.18533 4.89428-2.10301 4.85604-3.36481 3.63247-3.36481 2.33243-3.47952 2.37066-2.21772 2.37066-1.5677 2.67656-1.18533 3.2501-1.18533" fill="#012A4D" fill-rule="nonzero" fill-opacity="1" transform="matrix(1 0 0 1.00041 369.761 316.608)"/><path d="M4.3972-0.11471C3.02069 0.420602 1.07062 0.152946 1.07062-1.72064L1.07062-6.00314 0.152946-6.00314 0.152946-7.26494 1.18533-7.26494 1.75888-8.98558 2.94421-8.98558 2.94421-7.26494 4.32073-7.26494 4.32073-6.00314 2.94421-6.00314 2.94421-2.21772C2.90598-1.33828 3.556-1.03239 4.3972-1.26181L4.3972-0.11471" fill="#012A4D" fill-rule="nonzero" fill-opacity="1" transform="matrix(1 0 0 1.00041 377.408 316.608)"/><path d="M5.08546-1.30004C4.47367-0.573548 3.93836 0.191183 2.63832 0.152946 1.22357 0.11471 0.420602-0.611784 0.420602-2.06477 0.382365-4.35896 2.52361-4.47367 4.85604-4.3972 4.89428-5.39135 4.74133-6.19432 3.78542-6.19432 3.09716-6.15608 2.79127-5.85019 2.71479-5.16193L0.726494-5.2384C0.99415-6.69139 2.10301-7.45612 3.86189-7.41789 5.62077-7.37965 6.69139-6.57668 6.72963-4.8178L6.76787-1.68241C6.72963-1.1471 7.2267-0.99415 7.72378-1.10886L7.72378-0.0764731C6.57668 0.229419 5.00899 0.11471 5.08546-1.30004ZM3.2501-1.18533C4.35896-1.18533 4.89428-2.10301 4.85604-3.36481 3.63247-3.36481 2.33243-3.47952 2.37066-2.21772 2.37066-1.5677 2.67656-1.18533 3.2501-1.18533" fill="#012A4D" fill-rule="nonzero" fill-opacity="1" transform="matrix(1 0 0 1.00041 381.958 316.608)"/><path d="M0.917677-9.48266C5.50606-9.75031 9.44442-9.29148 9.36795-4.8178 9.32971-1.75888 7.68554 0 4.74133 0L0.917677 0 0.917677-9.48266ZM2.90598-1.52946C5.73548-1.26181 7.37965-2.21772 7.37965-4.8178 7.37965-7.37965 5.65901-8.18262 2.90598-7.9532L2.90598-1.52946" fill="#012A4D" fill-rule="nonzero" fill-opacity="1" transform="matrix(1 0 0 1.00041 341.157 333.129)"/><path d="M0.955913-8.56498 0.955913-9.97973 2.86774-9.97973 2.86774-8.56498 0.955913-8.56498ZM0.955913 0 0.955913-7.26494 2.86774-7.26494 2.86774 0 0.955913 0" fill="#012A4D" fill-rule="nonzero" fill-opacity="1" transform="matrix(1 0 0 1.00041 351.06 333.129)"/><path d="M7.26494-2.4089C6.99728-0.802967 5.81195 0.152946 3.9766 0.152946 1.72064 0.152946 0.764731-1.30004 0.535311-3.59423 0.0764731-7.80025 6.42374-8.83264 7.18847-4.97075L5.31488-4.89428C5.2384-5.62077 4.74133-6.11784 3.9766-6.11784 2.8295-6.11784 2.63832-5.04722 2.52361-3.67071 2.29419-0.841204 5.00899-0.344129 5.35311-2.52361" fill="#012A4D" fill-rule="nonzero" fill-opacity="1" transform="matrix(1 0 0 1.00041 354.884 333.129)"/><path d="M4.3972-0.11471C3.02069 0.420602 1.07062 0.152946 1.07062-1.72064L1.07062-6.00314 0.152946-6.00314 0.152946-7.26494 1.18533-7.26494 1.75888-8.98558 2.94421-8.98558 2.94421-7.26494 4.32073-7.26494 4.32073-6.00314 2.94421-6.00314 2.94421-2.21772C2.90598-1.33828 3.556-1.03239 4.3972-1.26181L4.3972-0.11471" fill="#012A4D" fill-rule="nonzero" fill-opacity="1" transform="matrix(1 0 0 1.00041 362.531 333.129)"/><path d="M0.955913-8.56498 0.955913-9.97973 2.86774-9.97973 2.86774-8.56498 0.955913-8.56498ZM0.955913 0 0.955913-7.26494 2.86774-7.26494 2.86774 0 0.955913 0" fill="#012A4D" fill-rule="nonzero" fill-opacity="1" transform="matrix(1 0 0 1.00041 367.081 333.129)"/><path d="M4.20602-7.41789C6.65316-7.41789 7.87672-6.04137 7.87672-3.63247 7.87672-1.18533 6.53845 0.152946 4.16778 0.152946 1.83535 0.152946 0.535311-1.22357 0.535311-3.63247 0.535311-6.00314 1.83535-7.41789 4.20602-7.41789ZM4.16778-1.1471C5.50606-1.1471 5.88843-2.21772 5.88843-3.63247 5.88843-5.16193 5.50606-6.11784 4.24425-6.11784 2.94421-6.11784 2.52361-5.12369 2.52361-3.63247 2.52361-2.25596 2.90598-1.1471 4.16778-1.1471" fill="#012A4D" fill-rule="nonzero" fill-opacity="1" transform="matrix(1 0 0 1.00041 370.905 333.129)"/><path d="M5.16193-7.41789C8.48851-7.45612 7.37965-3.09716 7.57083 0L5.65901 0C5.39135-2.17948 6.53845-6.00314 4.35896-6.00314 2.10301-6.00314 3.05892-2.29419 2.86774 0L0.955913 0 0.917677-7.26494 2.71479-7.26494C2.79127-6.8061 2.67656-6.19432 2.8295-5.81195 3.28834-6.8061 3.90013-7.37965 5.16193-7.41789" fill="#012A4D" fill-rule="nonzero" fill-opacity="1" transform="matrix(1 0 0 1.00041 379.279 333.129)"/><path d="M5.08546-1.30004C4.47367-0.573548 3.93836 0.191183 2.63832 0.152946 1.22357 0.11471 0.420602-0.611784 0.420602-2.06477 0.382365-4.35896 2.52361-4.47367 4.85604-4.3972 4.89428-5.39135 4.74133-6.19432 3.78542-6.19432 3.09716-6.15608 2.79127-5.85019 2.71479-5.16193L0.726494-5.2384C0.99415-6.69139 2.10301-7.45612 3.86189-7.41789 5.62077-7.37965 6.69139-6.57668 6.72963-4.8178L6.76787-1.68241C6.72963-1.1471 7.2267-0.99415 7.72378-1.10886L7.72378-0.0764731C6.57668 0.229419 5.00899 0.11471 5.08546-1.30004ZM3.2501-1.18533C4.35896-1.18533 4.89428-2.10301 4.85604-3.36481 3.63247-3.36481 2.33243-3.47952 2.37066-2.21772 2.37066-1.5677 2.67656-1.18533 3.2501-1.18533" fill="#012A4D" fill-rule="nonzero" fill-opacity="1" transform="matrix(1 0 0 1.00041 387.652 333.129)"/><path d="M5.16193-5.73548C3.67071-6.19432 2.86774-5.2384 2.86774-3.556L2.86774 0 0.955913 0 0.917677-7.26494 2.71479-7.26494C2.79127-6.76787 2.67656-6.15608 2.8295-5.73548 3.05892-6.8061 3.86189-7.76202 5.16193-7.30318L5.16193-5.73548" fill="#012A4D" fill-rule="nonzero" fill-opacity="1" transform="matrix(1 0 0 1.00041 395.3 333.129)"/><path d="M4.70309 0.382365C4.12955 2.02654 3.05892 3.28834 0.726494 2.75303L0.726494 1.41475C2.06477 1.72064 2.75303 0.99415 2.98245-0.0764731L0.11471-7.26494 2.10301-7.26494 3.93836-1.60593C4.3972-3.59423 5.00899-5.42959 5.62077-7.26494L7.57083-7.26494" fill="#012A4D" fill-rule="nonzero" fill-opacity="1" transform="matrix(1 0 0 1.00041 400.653 333.129)"/><path d="M-2361.96 1270.66C-2361.96 1268.61-2360.29 1266.94-2358.24 1266.94L-2266.56 1266.94C-2264.51 1266.94-2262.85 1268.61-2262.85 1270.66L-2262.85 1337.56C-2262.85 1339.61-2264.51 1341.27-2266.56 1341.27L-2358.24 1341.27C-2360.29 1341.27-2361.96 1339.61-2361.96 1337.56Z" stroke="#012A4D" stroke-width="3.71659" stroke-linecap="butt" stroke-linejoin="miter" stroke-miterlimit="4" stroke-opacity="1" fill="#FFFFFF" fill-rule="nonzero" fill-opacity="1" transform="matrix(1 0 0 1.00041 2687.14 -830.295)"/><path d="M5.20017-7.9532 5.20017 0 3.21187 0 3.21187-7.9532 0.152946-7.9532 0.152946-9.48266 8.25909-9.48266 8.25909-7.9532 5.20017-7.9532" fill="#012A4D" fill-rule="nonzero" fill-opacity="1" transform="matrix(1 0 0 1.00041 336.263 468.636)"/><path d="M0.955913-8.56498 0.955913-9.97973 2.86774-9.97973 2.86774-8.56498 0.955913-8.56498ZM0.955913 0 0.955913-7.26494 2.86774-7.26494 2.86774 0 0.955913 0" fill="#012A4D" fill-rule="nonzero" fill-opacity="1" transform="matrix(1 0 0 1.00041 344.369 468.636)"/><path d="M8.41204-6.00314C6.3855-5.65901 7.34141-2.17948 7.11199 0L5.2384 0 5.2384-4.09131C5.27664-5.12369 5.04722-5.9649 4.12955-6.00314 2.10301-5.62077 3.09716-2.17948 2.86774 0L0.955913 0 0.917677-7.26494 2.71479-7.26494C2.79127-6.8061 2.67656-6.19432 2.8295-5.81195 3.21187-7.83849 6.69139-7.9532 6.95905-5.81195 7.45612-6.65316 7.87672-7.45612 9.215-7.41789 12.3504-7.37965 11.1651-2.98245 11.3945 0L9.5209 0 9.5209-4.09131C9.48266-5.04722 9.32971-5.92666 8.41204-6.00314" fill="#012A4D" fill-rule="nonzero" fill-opacity="1" transform="matrix(1 0 0 1.00041 348.193 468.636)"/><path d="M7.07376-1.83535C6.57668-0.688258 5.65901 0.191183 3.93836 0.152946 1.64417 0.0764731 0.535311-1.26181 0.535311-3.67071 0.535311-6.07961 1.68241-7.41789 3.9766-7.41789 6.34726-7.41789 7.15023-5.69724 7.18847-3.28834L2.52361-3.28834C2.52361-2.10301 2.8295-1.18533 4.01484-1.1471 4.70309-1.1471 5.16193-1.41475 5.31488-1.9883ZM5.35311-4.47367C5.5443-6.23255 3.17363-6.88258 2.67656-5.27664 2.60008-5.04722 2.52361-4.77957 2.52361-4.47367L5.35311-4.47367" fill="#012A4D" fill-rule="nonzero" fill-opacity="1" transform="matrix(1 0 0 1.00041 360.429 468.636)"/><path d="M6.46197-6.95905C6.42374-8.60322 2.86774-8.71793 2.75303-7.07376 3.44129-4.55015 8.52675-6.69139 8.64146-2.71479 8.75617 0.917677 2.33243 0.841204 0.841204-1.33828 0.611784-1.64417 0.458838-2.06477 0.382365-2.48537L2.29419-2.79127C2.4089-1.03239 6.57668-0.650021 6.72963-2.60008 6.07961-5.2384 0.99415-2.98245 0.841204-6.95905 0.688258-10.2856 6.69139-10.3239 8.02967-8.29733 8.22085-7.99143 8.33556-7.60907 8.41204-7.2267" fill="#012A4D" fill-rule="nonzero" fill-opacity="1" transform="matrix(1 0 0 1.00041 371.899 468.636)"/><path d="M7.07376-1.83535C6.57668-0.688258 5.65901 0.191183 3.93836 0.152946 1.64417 0.0764731 0.535311-1.26181 0.535311-3.67071 0.535311-6.07961 1.68241-7.41789 3.9766-7.41789 6.34726-7.41789 7.15023-5.69724 7.18847-3.28834L2.52361-3.28834C2.52361-2.10301 2.8295-1.18533 4.01484-1.1471 4.70309-1.1471 5.16193-1.41475 5.31488-1.9883ZM5.35311-4.47367C5.5443-6.23255 3.17363-6.88258 2.67656-5.27664 2.60008-5.04722 2.52361-4.77957 2.52361-4.47367L5.35311-4.47367" fill="#012A4D" fill-rule="nonzero" fill-opacity="1" transform="matrix(1 0 0 1.00041 381.076 468.636)"/><path d="M5.16193-5.73548C3.67071-6.19432 2.86774-5.2384 2.86774-3.556L2.86774 0 0.955913 0 0.917677-7.26494 2.71479-7.26494C2.79127-6.76787 2.67656-6.15608 2.8295-5.73548 3.05892-6.8061 3.86189-7.76202 5.16193-7.30318L5.16193-5.73548" fill="#012A4D" fill-rule="nonzero" fill-opacity="1" transform="matrix(1 0 0 1.00041 388.723 468.636)"/><path d="M0.955913-8.56498 0.955913-9.97973 2.86774-9.97973 2.86774-8.56498 0.955913-8.56498ZM0.955913 0 0.955913-7.26494 2.86774-7.26494 2.86774 0 0.955913 0" fill="#012A4D" fill-rule="nonzero" fill-opacity="1" transform="matrix(1 0 0 1.00041 394.076 468.636)"/><path d="M7.07376-1.83535C6.57668-0.688258 5.65901 0.191183 3.93836 0.152946 1.64417 0.0764731 0.535311-1.26181 0.535311-3.67071 0.535311-6.07961 1.68241-7.41789 3.9766-7.41789 6.34726-7.41789 7.15023-5.69724 7.18847-3.28834L2.52361-3.28834C2.52361-2.10301 2.8295-1.18533 4.01484-1.1471 4.70309-1.1471 5.16193-1.41475 5.31488-1.9883ZM5.35311-4.47367C5.5443-6.23255 3.17363-6.88258 2.67656-5.27664 2.60008-5.04722 2.52361-4.77957 2.52361-4.47367L5.35311-4.47367" fill="#012A4D" fill-rule="nonzero" fill-opacity="1" transform="matrix(1 0 0 1.00041 397.9 468.636)"/><path d="M5.2384-5.27664C5.27664-6.3855 2.56185-6.57668 2.52361-5.42959 3.09716-3.67071 7.03552-5.16193 7.07376-2.14125 7.11199 1.03239 0.802967 0.764731 0.497075-1.79712L2.14125-2.06477C2.29419-1.33828 2.90598-1.10886 3.82365-1.10886 5.08546-0.802967 6.00314-2.25596 4.74133-2.67656 3.09716-3.21187 0.841204-3.09716 0.764731-5.20017 0.688258-8.25909 6.65316-8.02967 6.92081-5.46782" fill="#012A4D" fill-rule="nonzero" fill-opacity="1" transform="matrix(1 0 0 1.00041 405.547 468.636)"/><path d="M6.46197-6.95905C6.42374-8.60322 2.86774-8.71793 2.75303-7.07376 3.44129-4.55015 8.52675-6.69139 8.64146-2.71479 8.75617 0.917677 2.33243 0.841204 0.841204-1.33828 0.611784-1.64417 0.458838-2.06477 0.382365-2.48537L2.29419-2.79127C2.4089-1.03239 6.57668-0.650021 6.72963-2.60008 6.07961-5.2384 0.99415-2.98245 0.841204-6.95905 0.688258-10.2856 6.69139-10.3239 8.02967-8.29733 8.22085-7.99143 8.33556-7.60907 8.41204-7.2267" fill="#012A4D" fill-rule="nonzero" fill-opacity="1" transform="matrix(1 0 0 1.00041 335.365 485.163)"/><path d="M3.2501 0.152946C-0.0764731 0.191183 1.03239-4.16778 0.841204-7.26494L2.75303-7.26494C3.02069-5.08546 1.87359-1.52946 4.01484-1.26181 6.30903-1.45299 5.35311-4.97075 5.5443-7.26494L7.45612-7.26494 7.49436 0 5.69724 0C5.62077-0.458838 5.73548-1.07062 5.58253-1.45299 5.12369-0.497075 4.51191 0.152946 3.2501 0.152946" fill="#012A4D" fill-rule="nonzero" fill-opacity="1" transform="matrix(1 0 0 1.00041 344.542 485.163)"/><path d="M8.41204-6.00314C6.3855-5.65901 7.34141-2.17948 7.11199 0L5.2384 0 5.2384-4.09131C5.27664-5.12369 5.04722-5.9649 4.12955-6.00314 2.10301-5.62077 3.09716-2.17948 2.86774 0L0.955913 0 0.917677-7.26494 2.71479-7.26494C2.79127-6.8061 2.67656-6.19432 2.8295-5.81195 3.21187-7.83849 6.69139-7.9532 6.95905-5.81195 7.45612-6.65316 7.87672-7.45612 9.215-7.41789 12.3504-7.37965 11.1651-2.98245 11.3945 0L9.5209 0 9.5209-4.09131C9.48266-5.04722 9.32971-5.92666 8.41204-6.00314" fill="#012A4D" fill-rule="nonzero" fill-opacity="1" transform="matrix(1 0 0 1.00041 352.916 485.163)"/><path d="M8.41204-6.00314C6.3855-5.65901 7.34141-2.17948 7.11199 0L5.2384 0 5.2384-4.09131C5.27664-5.12369 5.04722-5.9649 4.12955-6.00314 2.10301-5.62077 3.09716-2.17948 2.86774 0L0.955913 0 0.917677-7.26494 2.71479-7.26494C2.79127-6.8061 2.67656-6.19432 2.8295-5.81195 3.21187-7.83849 6.69139-7.9532 6.95905-5.81195 7.45612-6.65316 7.87672-7.45612 9.215-7.41789 12.3504-7.37965 11.1651-2.98245 11.3945 0L9.5209 0 9.5209-4.09131C9.48266-5.04722 9.32971-5.92666 8.41204-6.00314" fill="#012A4D" fill-rule="nonzero" fill-opacity="1" transform="matrix(1 0 0 1.00041 365.151 485.163)"/><path d="M5.08546-1.30004C4.47367-0.573548 3.93836 0.191183 2.63832 0.152946 1.22357 0.11471 0.420602-0.611784 0.420602-2.06477 0.382365-4.35896 2.52361-4.47367 4.85604-4.3972 4.89428-5.39135 4.74133-6.19432 3.78542-6.19432 3.09716-6.15608 2.79127-5.85019 2.71479-5.16193L0.726494-5.2384C0.99415-6.69139 2.10301-7.45612 3.86189-7.41789 5.62077-7.37965 6.69139-6.57668 6.72963-4.8178L6.76787-1.68241C6.72963-1.1471 7.2267-0.99415 7.72378-1.10886L7.72378-0.0764731C6.57668 0.229419 5.00899 0.11471 5.08546-1.30004ZM3.2501-1.18533C4.35896-1.18533 4.89428-2.10301 4.85604-3.36481 3.63247-3.36481 2.33243-3.47952 2.37066-2.21772 2.37066-1.5677 2.67656-1.18533 3.2501-1.18533" fill="#012A4D" fill-rule="nonzero" fill-opacity="1" transform="matrix(1 0 0 1.00041 377.387 485.163)"/><path d="M5.16193-5.73548C3.67071-6.19432 2.86774-5.2384 2.86774-3.556L2.86774 0 0.955913 0 0.917677-7.26494 2.71479-7.26494C2.79127-6.76787 2.67656-6.15608 2.8295-5.73548 3.05892-6.8061 3.86189-7.76202 5.16193-7.30318L5.16193-5.73548" fill="#012A4D" fill-rule="nonzero" fill-opacity="1" transform="matrix(1 0 0 1.00041 385.034 485.163)"/><path d="M0.955913-8.56498 0.955913-9.97973 2.86774-9.97973 2.86774-8.56498 0.955913-8.56498ZM0.955913 0 0.955913-7.26494 2.86774-7.26494 2.86774 0 0.955913 0" fill="#012A4D" fill-rule="nonzero" fill-opacity="1" transform="matrix(1 0 0 1.00041 390.388 485.163)"/><path d="M0.458838 0 0.458838-1.33828 4.09131-5.92666 0.726494-5.92666 0.726494-7.26494 6.15608-7.26494 6.15608-5.92666 2.56185-1.37652 6.50021-1.37652 6.50021 0 0.458838 0" fill="#012A4D" fill-rule="nonzero" fill-opacity="1" transform="matrix(1 0 0 1.00041 394.211 485.163)"/><path d="M7.07376-1.83535C6.57668-0.688258 5.65901 0.191183 3.93836 0.152946 1.64417 0.0764731 0.535311-1.26181 0.535311-3.67071 0.535311-6.07961 1.68241-7.41789 3.9766-7.41789 6.34726-7.41789 7.15023-5.69724 7.18847-3.28834L2.52361-3.28834C2.52361-2.10301 2.8295-1.18533 4.01484-1.1471 4.70309-1.1471 5.16193-1.41475 5.31488-1.9883ZM5.35311-4.47367C5.5443-6.23255 3.17363-6.88258 2.67656-5.27664 2.60008-5.04722 2.52361-4.77957 2.52361-4.47367L5.35311-4.47367" fill="#012A4D" fill-rule="nonzero" fill-opacity="1" transform="matrix(1 0 0 1.00041 401.094 485.163)"/><path d="M5.16193-5.73548C3.67071-6.19432 2.86774-5.2384 2.86774-3.556L2.86774 0 0.955913 0 0.917677-7.26494 2.71479-7.26494C2.79127-6.76787 2.67656-6.15608 2.8295-5.73548 3.05892-6.8061 3.86189-7.76202 5.16193-7.30318L5.16193-5.73548" fill="#012A4D" fill-rule="nonzero" fill-opacity="1" transform="matrix(1 0 0 1.00041 408.741 485.163)"/><path d="M-1771.57 1123.23C-1771.57 1127.34-1788.21 1130.67-1808.74 1130.67-1829.27 1130.67-1845.91 1127.34-1845.91 1123.23L-1845.91 1063.77C-1845.91 1059.67-1829.27 1056.34-1808.74 1056.34-1788.21 1056.34-1771.57 1059.67-1771.57 1063.77Z" stroke="#012A4D" stroke-width="3.71659" stroke-linecap="butt" stroke-linejoin="miter" stroke-miterlimit="4" stroke-opacity="1" fill="#FFFFFF" fill-rule="nonzero" fill-opacity="1" transform="matrix(1 0 0 1.00041 2687.14 -830.295)"/><path d="M-1771.57 1063.77C-1771.57 1067.88-1788.21 1071.2-1808.74 1071.2-1829.27 1071.2-1845.91 1067.88-1845.91 1063.77" stroke="#012A4D" stroke-width="3.71659" stroke-linecap="butt" stroke-linejoin="miter" stroke-miterlimit="4" stroke-opacity="1" fill="none" fill-rule="nonzero" transform="matrix(1 0 0 1.00041 2687.14 -830.295)"/><path d="M0.917677-9.48266C5.50606-9.75031 9.44442-9.29148 9.36795-4.8178 9.32971-1.75888 7.68554 0 4.74133 0L0.917677 0 0.917677-9.48266ZM2.90598-1.52946C5.73548-1.26181 7.37965-2.21772 7.37965-4.8178 7.37965-7.37965 5.65901-8.18262 2.90598-7.9532L2.90598-1.52946" fill="#012A4D" fill-rule="nonzero" fill-opacity="1" transform="matrix(1 0 0 1.00041 855.112 265.583)"/><path d="M0.955913-8.56498 0.955913-9.97973 2.86774-9.97973 2.86774-8.56498 0.955913-8.56498ZM0.955913 0 0.955913-7.26494 2.86774-7.26494 2.86774 0 0.955913 0" fill="#012A4D" fill-rule="nonzero" fill-opacity="1" transform="matrix(1 0 0 1.00041 865.015 265.583)"/><path d="M7.07376-1.83535C6.57668-0.688258 5.65901 0.191183 3.93836 0.152946 1.64417 0.0764731 0.535311-1.26181 0.535311-3.67071 0.535311-6.07961 1.68241-7.41789 3.9766-7.41789 6.34726-7.41789 7.15023-5.69724 7.18847-3.28834L2.52361-3.28834C2.52361-2.10301 2.8295-1.18533 4.01484-1.1471 4.70309-1.1471 5.16193-1.41475 5.31488-1.9883ZM5.35311-4.47367C5.5443-6.23255 3.17363-6.88258 2.67656-5.27664 2.60008-5.04722 2.52361-4.77957 2.52361-4.47367L5.35311-4.47367" fill="#012A4D" fill-rule="nonzero" fill-opacity="1" transform="matrix(1 0 0 1.00041 868.839 265.583)"/><path d="M4.3972-0.11471C3.02069 0.420602 1.07062 0.152946 1.07062-1.72064L1.07062-6.00314 0.152946-6.00314 0.152946-7.26494 1.18533-7.26494 1.75888-8.98558 2.94421-8.98558 2.94421-7.26494 4.32073-7.26494 4.32073-6.00314 2.94421-6.00314 2.94421-2.21772C2.90598-1.33828 3.556-1.03239 4.3972-1.26181L4.3972-0.11471" fill="#012A4D" fill-rule="nonzero" fill-opacity="1" transform="matrix(1 0 0 1.00041 876.486 265.583)"/><path d="M5.08546-1.30004C4.47367-0.573548 3.93836 0.191183 2.63832 0.152946 1.22357 0.11471 0.420602-0.611784 0.420602-2.06477 0.382365-4.35896 2.52361-4.47367 4.85604-4.3972 4.89428-5.39135 4.74133-6.19432 3.78542-6.19432 3.09716-6.15608 2.79127-5.85019 2.71479-5.16193L0.726494-5.2384C0.99415-6.69139 2.10301-7.45612 3.86189-7.41789 5.62077-7.37965 6.69139-6.57668 6.72963-4.8178L6.76787-1.68241C6.72963-1.1471 7.2267-0.99415 7.72378-1.10886L7.72378-0.0764731C6.57668 0.229419 5.00899 0.11471 5.08546-1.30004ZM3.2501-1.18533C4.35896-1.18533 4.89428-2.10301 4.85604-3.36481 3.63247-3.36481 2.33243-3.47952 2.37066-2.21772 2.37066-1.5677 2.67656-1.18533 3.2501-1.18533" fill="#012A4D" fill-rule="nonzero" fill-opacity="1" transform="matrix(1 0 0 1.00041 881.036 265.583)"/><path d="M5.16193-5.73548C3.67071-6.19432 2.86774-5.2384 2.86774-3.556L2.86774 0 0.955913 0 0.917677-7.26494 2.71479-7.26494C2.79127-6.76787 2.67656-6.15608 2.8295-5.73548 3.05892-6.8061 3.86189-7.76202 5.16193-7.30318L5.16193-5.73548" fill="#012A4D" fill-rule="nonzero" fill-opacity="1" transform="matrix(1 0 0 1.00041 888.683 265.583)"/><path d="M4.70309 0.382365C4.12955 2.02654 3.05892 3.28834 0.726494 2.75303L0.726494 1.41475C2.06477 1.72064 2.75303 0.99415 2.98245-0.0764731L0.11471-7.26494 2.10301-7.26494 3.93836-1.60593C4.3972-3.59423 5.00899-5.42959 5.62077-7.26494L7.57083-7.26494" fill="#012A4D" fill-rule="nonzero" fill-opacity="1" transform="matrix(1 0 0 1.00041 894.036 265.583)"/><path d="M2.56185-4.77957C2.56185-2.71479 3.44129-1.41475 5.42959-1.41475 6.50021-1.41475 7.45612-1.68241 8.02967-2.21772L8.02967-3.51776 5.73548-3.51776 5.73548-5.00899 9.86502-5.00899 9.86502-1.52946C8.87087-0.535311 7.34141 0.152946 5.35311 0.152946 2.21772 0.152946 0.764731-1.60593 0.573548-4.77957 0.305892-9.02382 4.8178-10.7062 8.22085-8.94735 8.94735-8.56498 9.32971-7.9532 9.6356-7.15023L7.83849-6.57668C7.41789-7.45612 6.72963-8.06791 5.42959-8.06791 3.40305-8.02967 2.56185-6.8061 2.56185-4.77957" fill="#012A4D" fill-rule="nonzero" fill-opacity="1" transform="matrix(1 0 0 1.00041 843.274 282.11)"/><path d="M3.2501 0.152946C-0.0764731 0.191183 1.03239-4.16778 0.841204-7.26494L2.75303-7.26494C3.02069-5.08546 1.87359-1.52946 4.01484-1.26181 6.30903-1.45299 5.35311-4.97075 5.5443-7.26494L7.45612-7.26494 7.49436 0 5.69724 0C5.62077-0.458838 5.73548-1.07062 5.58253-1.45299 5.12369-0.497075 4.51191 0.152946 3.2501 0.152946" fill="#012A4D" fill-rule="nonzero" fill-opacity="1" transform="matrix(1 0 0 1.00041 853.981 282.11)"/><path d="M0.955913-8.56498 0.955913-9.97973 2.86774-9.97973 2.86774-8.56498 0.955913-8.56498ZM0.955913 0 0.955913-7.26494 2.86774-7.26494 2.86774 0 0.955913 0" fill="#012A4D" fill-rule="nonzero" fill-opacity="1" transform="matrix(1 0 0 1.00041 862.354 282.11)"/><path d="M3.36481-7.41789C4.55015-7.45612 5.12369-6.84434 5.58253-6.11784L5.5443-9.97973 7.45612-9.97973 7.49436 0 5.65901 0C5.58253-0.382365 5.65901-0.87944 5.5443-1.18533 5.12369-0.305892 4.43544 0.152946 3.21187 0.152946 1.22357 0.152946 0.611784-1.5677 0.573548-3.63247 0.573548-5.77372 1.30004-7.34141 3.36481-7.41789ZM4.01484-1.1471C5.27664-1.1471 5.5443-2.29419 5.58253-3.67071 5.62077-5.08546 5.2384-6.11784 4.01484-6.11784 2.79127-6.11784 2.56185-4.97075 2.52361-3.63247 2.52361-1.9883 3.02069-1.1471 4.01484-1.1471" fill="#012A4D" fill-rule="nonzero" fill-opacity="1" transform="matrix(1 0 0 1.00041 866.178 282.11)"/><path d="M7.07376-1.83535C6.57668-0.688258 5.65901 0.191183 3.93836 0.152946 1.64417 0.0764731 0.535311-1.26181 0.535311-3.67071 0.535311-6.07961 1.68241-7.41789 3.9766-7.41789 6.34726-7.41789 7.15023-5.69724 7.18847-3.28834L2.52361-3.28834C2.52361-2.10301 2.8295-1.18533 4.01484-1.1471 4.70309-1.1471 5.16193-1.41475 5.31488-1.9883ZM5.35311-4.47367C5.5443-6.23255 3.17363-6.88258 2.67656-5.27664 2.60008-5.04722 2.52361-4.77957 2.52361-4.47367L5.35311-4.47367" fill="#012A4D" fill-rule="nonzero" fill-opacity="1" transform="matrix(1 0 0 1.00041 874.552 282.11)"/><path d="M0.955913 0 0.955913-9.97973 2.86774-9.97973 2.86774 0 0.955913 0" fill="#012A4D" fill-rule="nonzero" fill-opacity="1" transform="matrix(1 0 0 1.00041 882.199 282.11)"/><path d="M0.955913-8.56498 0.955913-9.97973 2.86774-9.97973 2.86774-8.56498 0.955913-8.56498ZM0.955913 0 0.955913-7.26494 2.86774-7.26494 2.86774 0 0.955913 0" fill="#012A4D" fill-rule="nonzero" fill-opacity="1" transform="matrix(1 0 0 1.00041 886.023 282.11)"/><path d="M5.16193-7.41789C8.48851-7.45612 7.37965-3.09716 7.57083 0L5.65901 0C5.39135-2.17948 6.53845-6.00314 4.35896-6.00314 2.10301-6.00314 3.05892-2.29419 2.86774 0L0.955913 0 0.917677-7.26494 2.71479-7.26494C2.79127-6.8061 2.67656-6.19432 2.8295-5.81195 3.28834-6.8061 3.90013-7.37965 5.16193-7.41789" fill="#012A4D" fill-rule="nonzero" fill-opacity="1" transform="matrix(1 0 0 1.00041 889.846 282.11)"/><path d="M7.07376-1.83535C6.57668-0.688258 5.65901 0.191183 3.93836 0.152946 1.64417 0.0764731 0.535311-1.26181 0.535311-3.67071 0.535311-6.07961 1.68241-7.41789 3.9766-7.41789 6.34726-7.41789 7.15023-5.69724 7.18847-3.28834L2.52361-3.28834C2.52361-2.10301 2.8295-1.18533 4.01484-1.1471 4.70309-1.1471 5.16193-1.41475 5.31488-1.9883ZM5.35311-4.47367C5.5443-6.23255 3.17363-6.88258 2.67656-5.27664 2.60008-5.04722 2.52361-4.77957 2.52361-4.47367L5.35311-4.47367" fill="#012A4D" fill-rule="nonzero" fill-opacity="1" transform="matrix(1 0 0 1.00041 898.22 282.11)"/><path d="M5.2384-5.27664C5.27664-6.3855 2.56185-6.57668 2.52361-5.42959 3.09716-3.67071 7.03552-5.16193 7.07376-2.14125 7.11199 1.03239 0.802967 0.764731 0.497075-1.79712L2.14125-2.06477C2.29419-1.33828 2.90598-1.10886 3.82365-1.10886 5.08546-0.802967 6.00314-2.25596 4.74133-2.67656 3.09716-3.21187 0.841204-3.09716 0.764731-5.20017 0.688258-8.25909 6.65316-8.02967 6.92081-5.46782" fill="#012A4D" fill-rule="nonzero" fill-opacity="1" transform="matrix(1 0 0 1.00041 905.867 282.11)"/><path d="M-1858.3 1183.94C-1858.3 1181.89-1856.63 1180.22-1854.58 1180.22L-1762.9 1180.22C-1760.85 1180.22-1759.19 1181.89-1759.19 1183.94L-1759.19 1250.84C-1759.19 1252.89-1760.85 1254.55-1762.9 1254.55L-1854.58 1254.55C-1856.63 1254.55-1858.3 1252.89-1858.3 1250.84Z" stroke="#012A4D" stroke-width="3.71659" stroke-linecap="butt" stroke-linejoin="miter" stroke-miterlimit="4" stroke-opacity="1" fill="#FFFFFF" fill-rule="nonzero" fill-opacity="1" transform="matrix(1 0 0 1.00041 2687.14 -830.295)"/><path d="M6.46197-6.95905C6.42374-8.60322 2.86774-8.71793 2.75303-7.07376 3.44129-4.55015 8.52675-6.69139 8.64146-2.71479 8.75617 0.917677 2.33243 0.841204 0.841204-1.33828 0.611784-1.64417 0.458838-2.06477 0.382365-2.48537L2.29419-2.79127C2.4089-1.03239 6.57668-0.650021 6.72963-2.60008 6.07961-5.2384 0.99415-2.98245 0.841204-6.95905 0.688258-10.2856 6.69139-10.3239 8.02967-8.29733 8.22085-7.99143 8.33556-7.60907 8.41204-7.2267" fill="#012A4D" fill-rule="nonzero" fill-opacity="1" transform="matrix(1 0 0 1.00041 847.846 381.88)"/><path d="M7.07376-1.83535C6.57668-0.688258 5.65901 0.191183 3.93836 0.152946 1.64417 0.0764731 0.535311-1.26181 0.535311-3.67071 0.535311-6.07961 1.68241-7.41789 3.9766-7.41789 6.34726-7.41789 7.15023-5.69724 7.18847-3.28834L2.52361-3.28834C2.52361-2.10301 2.8295-1.18533 4.01484-1.1471 4.70309-1.1471 5.16193-1.41475 5.31488-1.9883ZM5.35311-4.47367C5.5443-6.23255 3.17363-6.88258 2.67656-5.27664 2.60008-5.04722 2.52361-4.77957 2.52361-4.47367L5.35311-4.47367" fill="#012A4D" fill-rule="nonzero" fill-opacity="1" transform="matrix(1 0 0 1.00041 857.023 381.88)"/><path d="M8.41204-6.00314C6.3855-5.65901 7.34141-2.17948 7.11199 0L5.2384 0 5.2384-4.09131C5.27664-5.12369 5.04722-5.9649 4.12955-6.00314 2.10301-5.62077 3.09716-2.17948 2.86774 0L0.955913 0 0.917677-7.26494 2.71479-7.26494C2.79127-6.8061 2.67656-6.19432 2.8295-5.81195 3.21187-7.83849 6.69139-7.9532 6.95905-5.81195 7.45612-6.65316 7.87672-7.45612 9.215-7.41789 12.3504-7.37965 11.1651-2.98245 11.3945 0L9.5209 0 9.5209-4.09131C9.48266-5.04722 9.32971-5.92666 8.41204-6.00314" fill="#012A4D" fill-rule="nonzero" fill-opacity="1" transform="matrix(1 0 0 1.00041 864.67 381.88)"/><path d="M5.08546-1.30004C4.47367-0.573548 3.93836 0.191183 2.63832 0.152946 1.22357 0.11471 0.420602-0.611784 0.420602-2.06477 0.382365-4.35896 2.52361-4.47367 4.85604-4.3972 4.89428-5.39135 4.74133-6.19432 3.78542-6.19432 3.09716-6.15608 2.79127-5.85019 2.71479-5.16193L0.726494-5.2384C0.99415-6.69139 2.10301-7.45612 3.86189-7.41789 5.62077-7.37965 6.69139-6.57668 6.72963-4.8178L6.76787-1.68241C6.72963-1.1471 7.2267-0.99415 7.72378-1.10886L7.72378-0.0764731C6.57668 0.229419 5.00899 0.11471 5.08546-1.30004ZM3.2501-1.18533C4.35896-1.18533 4.89428-2.10301 4.85604-3.36481 3.63247-3.36481 2.33243-3.47952 2.37066-2.21772 2.37066-1.5677 2.67656-1.18533 3.2501-1.18533" fill="#012A4D" fill-rule="nonzero" fill-opacity="1" transform="matrix(1 0 0 1.00041 876.906 381.88)"/><path d="M5.16193-7.41789C8.48851-7.45612 7.37965-3.09716 7.57083 0L5.65901 0C5.39135-2.17948 6.53845-6.00314 4.35896-6.00314 2.10301-6.00314 3.05892-2.29419 2.86774 0L0.955913 0 0.917677-7.26494 2.71479-7.26494C2.79127-6.8061 2.67656-6.19432 2.8295-5.81195 3.28834-6.8061 3.90013-7.37965 5.16193-7.41789" fill="#012A4D" fill-rule="nonzero" fill-opacity="1" transform="matrix(1 0 0 1.00041 884.553 381.88)"/><path d="M4.3972-0.11471C3.02069 0.420602 1.07062 0.152946 1.07062-1.72064L1.07062-6.00314 0.152946-6.00314 0.152946-7.26494 1.18533-7.26494 1.75888-8.98558 2.94421-8.98558 2.94421-7.26494 4.32073-7.26494 4.32073-6.00314 2.94421-6.00314 2.94421-2.21772C2.90598-1.33828 3.556-1.03239 4.3972-1.26181L4.3972-0.11471" fill="#012A4D" fill-rule="nonzero" fill-opacity="1" transform="matrix(1 0 0 1.00041 892.927 381.88)"/><path d="M0.955913-8.56498 0.955913-9.97973 2.86774-9.97973 2.86774-8.56498 0.955913-8.56498ZM0.955913 0 0.955913-7.26494 2.86774-7.26494 2.86774 0 0.955913 0" fill="#012A4D" fill-rule="nonzero" fill-opacity="1" transform="matrix(1 0 0 1.00041 897.477 381.88)"/><path d="M7.26494-2.4089C6.99728-0.802967 5.81195 0.152946 3.9766 0.152946 1.72064 0.152946 0.764731-1.30004 0.535311-3.59423 0.0764731-7.80025 6.42374-8.83264 7.18847-4.97075L5.31488-4.89428C5.2384-5.62077 4.74133-6.11784 3.9766-6.11784 2.8295-6.11784 2.63832-5.04722 2.52361-3.67071 2.29419-0.841204 5.00899-0.344129 5.35311-2.52361" fill="#012A4D" fill-rule="nonzero" fill-opacity="1" transform="matrix(1 0 0 1.00041 901.3 381.88)"/><path d="M9.17677-6.65316C9.17677-5.12369 8.29733-4.32073 7.11199-3.9766L9.67384 0 7.41789 0 5.2384-3.59423 2.90598-3.59423 2.90598 0 0.917677 0 0.917677-9.48266C4.47367-9.32971 9.215-10.3621 9.17677-6.65316ZM2.90598-5.12369C4.74133-5.20017 7.18847-4.66486 7.18847-6.57668 7.18847-8.41204 4.66486-7.80025 2.90598-7.91496L2.90598-5.12369" fill="#012A4D" fill-rule="nonzero" fill-opacity="1" transform="matrix(1 0 0 1.00041 847.102 398.407)"/><path d="M7.07376-1.83535C6.57668-0.688258 5.65901 0.191183 3.93836 0.152946 1.64417 0.0764731 0.535311-1.26181 0.535311-3.67071 0.535311-6.07961 1.68241-7.41789 3.9766-7.41789 6.34726-7.41789 7.15023-5.69724 7.18847-3.28834L2.52361-3.28834C2.52361-2.10301 2.8295-1.18533 4.01484-1.1471 4.70309-1.1471 5.16193-1.41475 5.31488-1.9883ZM5.35311-4.47367C5.5443-6.23255 3.17363-6.88258 2.67656-5.27664 2.60008-5.04722 2.52361-4.77957 2.52361-4.47367L5.35311-4.47367" fill="#012A4D" fill-rule="nonzero" fill-opacity="1" transform="matrix(1 0 0 1.00041 857.006 398.407)"/><path d="M5.08546-1.30004C4.47367-0.573548 3.93836 0.191183 2.63832 0.152946 1.22357 0.11471 0.420602-0.611784 0.420602-2.06477 0.382365-4.35896 2.52361-4.47367 4.85604-4.3972 4.89428-5.39135 4.74133-6.19432 3.78542-6.19432 3.09716-6.15608 2.79127-5.85019 2.71479-5.16193L0.726494-5.2384C0.99415-6.69139 2.10301-7.45612 3.86189-7.41789 5.62077-7.37965 6.69139-6.57668 6.72963-4.8178L6.76787-1.68241C6.72963-1.1471 7.2267-0.99415 7.72378-1.10886L7.72378-0.0764731C6.57668 0.229419 5.00899 0.11471 5.08546-1.30004ZM3.2501-1.18533C4.35896-1.18533 4.89428-2.10301 4.85604-3.36481 3.63247-3.36481 2.33243-3.47952 2.37066-2.21772 2.37066-1.5677 2.67656-1.18533 3.2501-1.18533" fill="#012A4D" fill-rule="nonzero" fill-opacity="1" transform="matrix(1 0 0 1.00041 864.653 398.407)"/><path d="M5.2384-5.27664C5.27664-6.3855 2.56185-6.57668 2.52361-5.42959 3.09716-3.67071 7.03552-5.16193 7.07376-2.14125 7.11199 1.03239 0.802967 0.764731 0.497075-1.79712L2.14125-2.06477C2.29419-1.33828 2.90598-1.10886 3.82365-1.10886 5.08546-0.802967 6.00314-2.25596 4.74133-2.67656 3.09716-3.21187 0.841204-3.09716 0.764731-5.20017 0.688258-8.25909 6.65316-8.02967 6.92081-5.46782" fill="#012A4D" fill-rule="nonzero" fill-opacity="1" transform="matrix(1 0 0 1.00041 872.3 398.407)"/><path d="M4.20602-7.41789C6.65316-7.41789 7.87672-6.04137 7.87672-3.63247 7.87672-1.18533 6.53845 0.152946 4.16778 0.152946 1.83535 0.152946 0.535311-1.22357 0.535311-3.63247 0.535311-6.00314 1.83535-7.41789 4.20602-7.41789ZM4.16778-1.1471C5.50606-1.1471 5.88843-2.21772 5.88843-3.63247 5.88843-5.16193 5.50606-6.11784 4.24425-6.11784 2.94421-6.11784 2.52361-5.12369 2.52361-3.63247 2.52361-2.25596 2.90598-1.1471 4.16778-1.1471" fill="#012A4D" fill-rule="nonzero" fill-opacity="1" transform="matrix(1 0 0 1.00041 879.948 398.407)"/><path d="M5.16193-7.41789C8.48851-7.45612 7.37965-3.09716 7.57083 0L5.65901 0C5.39135-2.17948 6.53845-6.00314 4.35896-6.00314 2.10301-6.00314 3.05892-2.29419 2.86774 0L0.955913 0 0.917677-7.26494 2.71479-7.26494C2.79127-6.8061 2.67656-6.19432 2.8295-5.81195 3.28834-6.8061 3.90013-7.37965 5.16193-7.41789" fill="#012A4D" fill-rule="nonzero" fill-opacity="1" transform="matrix(1 0 0 1.00041 888.321 398.407)"/><path d="M7.07376-1.83535C6.57668-0.688258 5.65901 0.191183 3.93836 0.152946 1.64417 0.0764731 0.535311-1.26181 0.535311-3.67071 0.535311-6.07961 1.68241-7.41789 3.9766-7.41789 6.34726-7.41789 7.15023-5.69724 7.18847-3.28834L2.52361-3.28834C2.52361-2.10301 2.8295-1.18533 4.01484-1.1471 4.70309-1.1471 5.16193-1.41475 5.31488-1.9883ZM5.35311-4.47367C5.5443-6.23255 3.17363-6.88258 2.67656-5.27664 2.60008-5.04722 2.52361-4.77957 2.52361-4.47367L5.35311-4.47367" fill="#012A4D" fill-rule="nonzero" fill-opacity="1" transform="matrix(1 0 0 1.00041 896.695 398.407)"/><path d="M5.16193-5.73548C3.67071-6.19432 2.86774-5.2384 2.86774-3.556L2.86774 0 0.955913 0 0.917677-7.26494 2.71479-7.26494C2.79127-6.76787 2.67656-6.15608 2.8295-5.73548 3.05892-6.8061 3.86189-7.76202 5.16193-7.30318L5.16193-5.73548" fill="#012A4D" fill-rule="nonzero" fill-opacity="1" transform="matrix(1 0 0 1.00041 904.343 398.407)"/><path d="M-1858.3 1295.44C-1858.3 1293.39-1856.63 1291.72-1854.58 1291.72L-1762.9 1291.72C-1760.85 1291.72-1759.19 1293.39-1759.19 1295.44L-1759.19 1362.33C-1759.19 1364.39-1760.85 1366.05-1762.9 1366.05L-1854.58 1366.05C-1856.63 1366.05-1858.3 1364.39-1858.3 1362.33Z" stroke="#012A4D" stroke-width="3.71659" stroke-linecap="butt" stroke-linejoin="miter" stroke-miterlimit="4" stroke-opacity="1" fill="#FFFFFF" fill-rule="nonzero" fill-opacity="1" transform="matrix(1 0 0 1.00041 2687.14 -830.295)"/><path d="M9.10029-3.63247C9.10029-0.99415 7.41789 0.152946 4.85604 0.152946 2.4089 0.152946 0.841204-0.955913 0.841204-3.556L0.841204-9.48266 2.79127-9.48266 2.79127-3.70894C2.75303-2.25596 3.51776-1.45299 4.89428-1.41475 8.33556-1.37652 6.76787-6.3855 7.11199-9.48266L9.10029-9.48266 9.10029-3.63247" fill="#012A4D" fill-rule="nonzero" fill-opacity="1" transform="matrix(1 0 0 1.00041 838.691 485.987)"/><path d="M5.2384-5.27664C5.27664-6.3855 2.56185-6.57668 2.52361-5.42959 3.09716-3.67071 7.03552-5.16193 7.07376-2.14125 7.11199 1.03239 0.802967 0.764731 0.497075-1.79712L2.14125-2.06477C2.29419-1.33828 2.90598-1.10886 3.82365-1.10886 5.08546-0.802967 6.00314-2.25596 4.74133-2.67656 3.09716-3.21187 0.841204-3.09716 0.764731-5.20017 0.688258-8.25909 6.65316-8.02967 6.92081-5.46782" fill="#012A4D" fill-rule="nonzero" fill-opacity="1" transform="matrix(1 0 0 1.00041 848.594 485.987)"/><path d="M7.07376-1.83535C6.57668-0.688258 5.65901 0.191183 3.93836 0.152946 1.64417 0.0764731 0.535311-1.26181 0.535311-3.67071 0.535311-6.07961 1.68241-7.41789 3.9766-7.41789 6.34726-7.41789 7.15023-5.69724 7.18847-3.28834L2.52361-3.28834C2.52361-2.10301 2.8295-1.18533 4.01484-1.1471 4.70309-1.1471 5.16193-1.41475 5.31488-1.9883ZM5.35311-4.47367C5.5443-6.23255 3.17363-6.88258 2.67656-5.27664 2.60008-5.04722 2.52361-4.77957 2.52361-4.47367L5.35311-4.47367" fill="#012A4D" fill-rule="nonzero" fill-opacity="1" transform="matrix(1 0 0 1.00041 856.241 485.987)"/><path d="M5.16193-5.73548C3.67071-6.19432 2.86774-5.2384 2.86774-3.556L2.86774 0 0.955913 0 0.917677-7.26494 2.71479-7.26494C2.79127-6.76787 2.67656-6.15608 2.8295-5.73548 3.05892-6.8061 3.86189-7.76202 5.16193-7.30318L5.16193-5.73548" fill="#012A4D" fill-rule="nonzero" fill-opacity="1" transform="matrix(1 0 0 1.00041 863.888 485.987)"/><path d="M3.36481-7.41789C4.55015-7.45612 5.12369-6.84434 5.58253-6.11784L5.5443-9.97973 7.45612-9.97973 7.49436 0 5.65901 0C5.58253-0.382365 5.65901-0.87944 5.5443-1.18533 5.12369-0.305892 4.43544 0.152946 3.21187 0.152946 1.22357 0.152946 0.611784-1.5677 0.573548-3.63247 0.573548-5.77372 1.30004-7.34141 3.36481-7.41789ZM4.01484-1.1471C5.27664-1.1471 5.5443-2.29419 5.58253-3.67071 5.62077-5.08546 5.2384-6.11784 4.01484-6.11784 2.79127-6.11784 2.56185-4.97075 2.52361-3.63247 2.52361-1.9883 3.02069-1.1471 4.01484-1.1471" fill="#012A4D" fill-rule="nonzero" fill-opacity="1" transform="matrix(1 0 0 1.00041 873.063 485.987)"/><path d="M0.955913-8.56498 0.955913-9.97973 2.86774-9.97973 2.86774-8.56498 0.955913-8.56498ZM0.955913 0 0.955913-7.26494 2.86774-7.26494 2.86774 0 0.955913 0" fill="#012A4D" fill-rule="nonzero" fill-opacity="1" transform="matrix(1 0 0 1.00041 881.437 485.987)"/><path d="M7.07376-1.83535C6.57668-0.688258 5.65901 0.191183 3.93836 0.152946 1.64417 0.0764731 0.535311-1.26181 0.535311-3.67071 0.535311-6.07961 1.68241-7.41789 3.9766-7.41789 6.34726-7.41789 7.15023-5.69724 7.18847-3.28834L2.52361-3.28834C2.52361-2.10301 2.8295-1.18533 4.01484-1.1471 4.70309-1.1471 5.16193-1.41475 5.31488-1.9883ZM5.35311-4.47367C5.5443-6.23255 3.17363-6.88258 2.67656-5.27664 2.60008-5.04722 2.52361-4.77957 2.52361-4.47367L5.35311-4.47367" fill="#012A4D" fill-rule="nonzero" fill-opacity="1" transform="matrix(1 0 0 1.00041 885.26 485.987)"/><path d="M4.3972-0.11471C3.02069 0.420602 1.07062 0.152946 1.07062-1.72064L1.07062-6.00314 0.152946-6.00314 0.152946-7.26494 1.18533-7.26494 1.75888-8.98558 2.94421-8.98558 2.94421-7.26494 4.32073-7.26494 4.32073-6.00314 2.94421-6.00314 2.94421-2.21772C2.90598-1.33828 3.556-1.03239 4.3972-1.26181L4.3972-0.11471" fill="#012A4D" fill-rule="nonzero" fill-opacity="1" transform="matrix(1 0 0 1.00041 892.908 485.987)"/><path d="M5.08546-1.30004C4.47367-0.573548 3.93836 0.191183 2.63832 0.152946 1.22357 0.11471 0.420602-0.611784 0.420602-2.06477 0.382365-4.35896 2.52361-4.47367 4.85604-4.3972 4.89428-5.39135 4.74133-6.19432 3.78542-6.19432 3.09716-6.15608 2.79127-5.85019 2.71479-5.16193L0.726494-5.2384C0.99415-6.69139 2.10301-7.45612 3.86189-7.41789 5.62077-7.37965 6.69139-6.57668 6.72963-4.8178L6.76787-1.68241C6.72963-1.1471 7.2267-0.99415 7.72378-1.10886L7.72378-0.0764731C6.57668 0.229419 5.00899 0.11471 5.08546-1.30004ZM3.2501-1.18533C4.35896-1.18533 4.89428-2.10301 4.85604-3.36481 3.63247-3.36481 2.33243-3.47952 2.37066-2.21772 2.37066-1.5677 2.67656-1.18533 3.2501-1.18533" fill="#012A4D" fill-rule="nonzero" fill-opacity="1" transform="matrix(1 0 0 1.00041 897.458 485.987)"/><path d="M5.16193-5.73548C3.67071-6.19432 2.86774-5.2384 2.86774-3.556L2.86774 0 0.955913 0 0.917677-7.26494 2.71479-7.26494C2.79127-6.76787 2.67656-6.15608 2.8295-5.73548 3.05892-6.8061 3.86189-7.76202 5.16193-7.30318L5.16193-5.73548" fill="#012A4D" fill-rule="nonzero" fill-opacity="1" transform="matrix(1 0 0 1.00041 905.105 485.987)"/><path d="M4.70309 0.382365C4.12955 2.02654 3.05892 3.28834 0.726494 2.75303L0.726494 1.41475C2.06477 1.72064 2.75303 0.99415 2.98245-0.0764731L0.11471-7.26494 2.10301-7.26494 3.93836-1.60593C4.3972-3.59423 5.00899-5.42959 5.62077-7.26494L7.57083-7.26494" fill="#012A4D" fill-rule="nonzero" fill-opacity="1" transform="matrix(1 0 0 1.00041 910.458 485.987)"/><path d="M5.16193-7.41789C8.48851-7.45612 7.37965-3.09716 7.57083 0L5.65901 0C5.39135-2.17948 6.53845-6.00314 4.35896-6.00314 2.10301-6.00314 3.05892-2.29419 2.86774 0L0.955913 0 0.917677-7.26494 2.71479-7.26494C2.79127-6.8061 2.67656-6.19432 2.8295-5.81195 3.28834-6.8061 3.90013-7.37965 5.16193-7.41789" fill="#012A4D" fill-rule="nonzero" fill-opacity="1" transform="matrix(1 0 0 1.00041 844.445 502.514)"/><path d="M7.07376-1.83535C6.57668-0.688258 5.65901 0.191183 3.93836 0.152946 1.64417 0.0764731 0.535311-1.26181 0.535311-3.67071 0.535311-6.07961 1.68241-7.41789 3.9766-7.41789 6.34726-7.41789 7.15023-5.69724 7.18847-3.28834L2.52361-3.28834C2.52361-2.10301 2.8295-1.18533 4.01484-1.1471 4.70309-1.1471 5.16193-1.41475 5.31488-1.9883ZM5.35311-4.47367C5.5443-6.23255 3.17363-6.88258 2.67656-5.27664 2.60008-5.04722 2.52361-4.77957 2.52361-4.47367L5.35311-4.47367" fill="#012A4D" fill-rule="nonzero" fill-opacity="1" transform="matrix(1 0 0 1.00041 852.819 502.514)"/><path d="M7.07376-1.83535C6.57668-0.688258 5.65901 0.191183 3.93836 0.152946 1.64417 0.0764731 0.535311-1.26181 0.535311-3.67071 0.535311-6.07961 1.68241-7.41789 3.9766-7.41789 6.34726-7.41789 7.15023-5.69724 7.18847-3.28834L2.52361-3.28834C2.52361-2.10301 2.8295-1.18533 4.01484-1.1471 4.70309-1.1471 5.16193-1.41475 5.31488-1.9883ZM5.35311-4.47367C5.5443-6.23255 3.17363-6.88258 2.67656-5.27664 2.60008-5.04722 2.52361-4.77957 2.52361-4.47367L5.35311-4.47367" fill="#012A4D" fill-rule="nonzero" fill-opacity="1" transform="matrix(1 0 0 1.00041 860.466 502.514)"/><path d="M3.36481-7.41789C4.55015-7.45612 5.12369-6.84434 5.58253-6.11784L5.5443-9.97973 7.45612-9.97973 7.49436 0 5.65901 0C5.58253-0.382365 5.65901-0.87944 5.5443-1.18533 5.12369-0.305892 4.43544 0.152946 3.21187 0.152946 1.22357 0.152946 0.611784-1.5677 0.573548-3.63247 0.573548-5.77372 1.30004-7.34141 3.36481-7.41789ZM4.01484-1.1471C5.27664-1.1471 5.5443-2.29419 5.58253-3.67071 5.62077-5.08546 5.2384-6.11784 4.01484-6.11784 2.79127-6.11784 2.56185-4.97075 2.52361-3.63247 2.52361-1.9883 3.02069-1.1471 4.01484-1.1471" fill="#012A4D" fill-rule="nonzero" fill-opacity="1" transform="matrix(1 0 0 1.00041 868.114 502.514)"/><path d="M5.2384-5.27664C5.27664-6.3855 2.56185-6.57668 2.52361-5.42959 3.09716-3.67071 7.03552-5.16193 7.07376-2.14125 7.11199 1.03239 0.802967 0.764731 0.497075-1.79712L2.14125-2.06477C2.29419-1.33828 2.90598-1.10886 3.82365-1.10886 5.08546-0.802967 6.00314-2.25596 4.74133-2.67656 3.09716-3.21187 0.841204-3.09716 0.764731-5.20017 0.688258-8.25909 6.65316-8.02967 6.92081-5.46782" fill="#012A4D" fill-rule="nonzero" fill-opacity="1" transform="matrix(1 0 0 1.00041 876.487 502.514)"/><path d="M5.08546-1.30004C4.47367-0.573548 3.93836 0.191183 2.63832 0.152946 1.22357 0.11471 0.420602-0.611784 0.420602-2.06477 0.382365-4.35896 2.52361-4.47367 4.85604-4.3972 4.89428-5.39135 4.74133-6.19432 3.78542-6.19432 3.09716-6.15608 2.79127-5.85019 2.71479-5.16193L0.726494-5.2384C0.99415-6.69139 2.10301-7.45612 3.86189-7.41789 5.62077-7.37965 6.69139-6.57668 6.72963-4.8178L6.76787-1.68241C6.72963-1.1471 7.2267-0.99415 7.72378-1.10886L7.72378-0.0764731C6.57668 0.229419 5.00899 0.11471 5.08546-1.30004ZM3.2501-1.18533C4.35896-1.18533 4.89428-2.10301 4.85604-3.36481 3.63247-3.36481 2.33243-3.47952 2.37066-2.21772 2.37066-1.5677 2.67656-1.18533 3.2501-1.18533" fill="#012A4D" fill-rule="nonzero" fill-opacity="1" transform="matrix(1 0 0 1.00041 887.954 502.514)"/><path d="M5.16193-7.41789C8.48851-7.45612 7.37965-3.09716 7.57083 0L5.65901 0C5.39135-2.17948 6.53845-6.00314 4.35896-6.00314 2.10301-6.00314 3.05892-2.29419 2.86774 0L0.955913 0 0.917677-7.26494 2.71479-7.26494C2.79127-6.8061 2.67656-6.19432 2.8295-5.81195 3.28834-6.8061 3.90013-7.37965 5.16193-7.41789" fill="#012A4D" fill-rule="nonzero" fill-opacity="1" transform="matrix(1 0 0 1.00041 895.601 502.514)"/><path d="M3.36481-7.41789C4.55015-7.45612 5.12369-6.84434 5.58253-6.11784L5.5443-9.97973 7.45612-9.97973 7.49436 0 5.65901 0C5.58253-0.382365 5.65901-0.87944 5.5443-1.18533 5.12369-0.305892 4.43544 0.152946 3.21187 0.152946 1.22357 0.152946 0.611784-1.5677 0.573548-3.63247 0.573548-5.77372 1.30004-7.34141 3.36481-7.41789ZM4.01484-1.1471C5.27664-1.1471 5.5443-2.29419 5.58253-3.67071 5.62077-5.08546 5.2384-6.11784 4.01484-6.11784 2.79127-6.11784 2.56185-4.97075 2.52361-3.63247 2.52361-1.9883 3.02069-1.1471 4.01484-1.1471" fill="#012A4D" fill-rule="nonzero" fill-opacity="1" transform="matrix(1 0 0 1.00041 903.975 502.514)"/><path d="M5.16193-7.41789C7.18847-7.41789 7.83849-5.73548 7.83849-3.67071 7.83849-1.52946 7.11199 0.0764731 5.04722 0.152946 3.86189 0.191183 3.32658-0.497075 2.79127-1.1471 2.90598 0.11471 2.86774 1.49122 2.86774 2.86774L0.955913 2.86774 0.917677-7.26494 2.75303-7.26494C2.8295-6.88258 2.75303-6.3855 2.86774-6.07961 3.28834-6.99728 3.9766-7.41789 5.16193-7.41789ZM4.35896-1.1471C5.62077-1.1471 5.85019-2.33243 5.88843-3.67071 5.88843-5.12369 5.5443-6.11784 4.35896-6.11784 2.21772-6.11784 2.25596-1.1471 4.35896-1.1471" fill="#012A4D" fill-rule="nonzero" fill-opacity="1" transform="matrix(1 0 0 1.00041 839.452 519.035)"/><path d="M5.16193-5.73548C3.67071-6.19432 2.86774-5.2384 2.86774-3.556L2.86774 0 0.955913 0 0.917677-7.26494 2.71479-7.26494C2.79127-6.76787 2.67656-6.15608 2.8295-5.73548 3.05892-6.8061 3.86189-7.76202 5.16193-7.30318L5.16193-5.73548" fill="#012A4D" fill-rule="nonzero" fill-opacity="1" transform="matrix(1 0 0 1.00041 847.826 519.035)"/><path d="M7.07376-1.83535C6.57668-0.688258 5.65901 0.191183 3.93836 0.152946 1.64417 0.0764731 0.535311-1.26181 0.535311-3.67071 0.535311-6.07961 1.68241-7.41789 3.9766-7.41789 6.34726-7.41789 7.15023-5.69724 7.18847-3.28834L2.52361-3.28834C2.52361-2.10301 2.8295-1.18533 4.01484-1.1471 4.70309-1.1471 5.16193-1.41475 5.31488-1.9883ZM5.35311-4.47367C5.5443-6.23255 3.17363-6.88258 2.67656-5.27664 2.60008-5.04722 2.52361-4.77957 2.52361-4.47367L5.35311-4.47367" fill="#012A4D" fill-rule="nonzero" fill-opacity="1" transform="matrix(1 0 0 1.00041 853.179 519.035)"/><path d="M4.62662-8.64146C3.59423-8.90911 2.98245-8.45027 3.17363-7.26494L4.62662-7.26494 4.62662-6.00314 3.17363-6.00314 3.17363 0 1.30004 0 1.30004-6.00314 0.229419-6.00314 0.229419-7.26494 1.30004-7.26494C0.955913-9.5209 2.52361-10.3621 4.62662-9.86502L4.62662-8.64146" fill="#012A4D" fill-rule="nonzero" fill-opacity="1" transform="matrix(1 0 0 1.00041 860.827 519.035)"/><path d="M7.07376-1.83535C6.57668-0.688258 5.65901 0.191183 3.93836 0.152946 1.64417 0.0764731 0.535311-1.26181 0.535311-3.67071 0.535311-6.07961 1.68241-7.41789 3.9766-7.41789 6.34726-7.41789 7.15023-5.69724 7.18847-3.28834L2.52361-3.28834C2.52361-2.10301 2.8295-1.18533 4.01484-1.1471 4.70309-1.1471 5.16193-1.41475 5.31488-1.9883ZM5.35311-4.47367C5.5443-6.23255 3.17363-6.88258 2.67656-5.27664 2.60008-5.04722 2.52361-4.77957 2.52361-4.47367L5.35311-4.47367" fill="#012A4D" fill-rule="nonzero" fill-opacity="1" transform="matrix(1 0 0 1.00041 865.377 519.035)"/><path d="M5.16193-5.73548C3.67071-6.19432 2.86774-5.2384 2.86774-3.556L2.86774 0 0.955913 0 0.917677-7.26494 2.71479-7.26494C2.79127-6.76787 2.67656-6.15608 2.8295-5.73548 3.05892-6.8061 3.86189-7.76202 5.16193-7.30318L5.16193-5.73548" fill="#012A4D" fill-rule="nonzero" fill-opacity="1" transform="matrix(1 0 0 1.00041 873.024 519.035)"/><path d="M7.07376-1.83535C6.57668-0.688258 5.65901 0.191183 3.93836 0.152946 1.64417 0.0764731 0.535311-1.26181 0.535311-3.67071 0.535311-6.07961 1.68241-7.41789 3.9766-7.41789 6.34726-7.41789 7.15023-5.69724 7.18847-3.28834L2.52361-3.28834C2.52361-2.10301 2.8295-1.18533 4.01484-1.1471 4.70309-1.1471 5.16193-1.41475 5.31488-1.9883ZM5.35311-4.47367C5.5443-6.23255 3.17363-6.88258 2.67656-5.27664 2.60008-5.04722 2.52361-4.77957 2.52361-4.47367L5.35311-4.47367" fill="#012A4D" fill-rule="nonzero" fill-opacity="1" transform="matrix(1 0 0 1.00041 878.377 519.035)"/><path d="M5.16193-7.41789C8.48851-7.45612 7.37965-3.09716 7.57083 0L5.65901 0C5.39135-2.17948 6.53845-6.00314 4.35896-6.00314 2.10301-6.00314 3.05892-2.29419 2.86774 0L0.955913 0 0.917677-7.26494 2.71479-7.26494C2.79127-6.8061 2.67656-6.19432 2.8295-5.81195 3.28834-6.8061 3.90013-7.37965 5.16193-7.41789" fill="#012A4D" fill-rule="nonzero" fill-opacity="1" transform="matrix(1 0 0 1.00041 886.025 519.035)"/><path d="M7.26494-2.4089C6.99728-0.802967 5.81195 0.152946 3.9766 0.152946 1.72064 0.152946 0.764731-1.30004 0.535311-3.59423 0.0764731-7.80025 6.42374-8.83264 7.18847-4.97075L5.31488-4.89428C5.2384-5.62077 4.74133-6.11784 3.9766-6.11784 2.8295-6.11784 2.63832-5.04722 2.52361-3.67071 2.29419-0.841204 5.00899-0.344129 5.35311-2.52361" fill="#012A4D" fill-rule="nonzero" fill-opacity="1" transform="matrix(1 0 0 1.00041 894.398 519.035)"/><path d="M7.07376-1.83535C6.57668-0.688258 5.65901 0.191183 3.93836 0.152946 1.64417 0.0764731 0.535311-1.26181 0.535311-3.67071 0.535311-6.07961 1.68241-7.41789 3.9766-7.41789 6.34726-7.41789 7.15023-5.69724 7.18847-3.28834L2.52361-3.28834C2.52361-2.10301 2.8295-1.18533 4.01484-1.1471 4.70309-1.1471 5.16193-1.41475 5.31488-1.9883ZM5.35311-4.47367C5.5443-6.23255 3.17363-6.88258 2.67656-5.27664 2.60008-5.04722 2.52361-4.77957 2.52361-4.47367L5.35311-4.47367" fill="#012A4D" fill-rule="nonzero" fill-opacity="1" transform="matrix(1 0 0 1.00041 902.045 519.035)"/><path d="M5.2384-5.27664C5.27664-6.3855 2.56185-6.57668 2.52361-5.42959 3.09716-3.67071 7.03552-5.16193 7.07376-2.14125 7.11199 1.03239 0.802967 0.764731 0.497075-1.79712L2.14125-2.06477C2.29419-1.33828 2.90598-1.10886 3.82365-1.10886 5.08546-0.802967 6.00314-2.25596 4.74133-2.67656 3.09716-3.21187 0.841204-3.09716 0.764731-5.20017 0.688258-8.25909 6.65316-8.02967 6.92081-5.46782" fill="#012A4D" fill-rule="nonzero" fill-opacity="1" transform="matrix(1 0 0 1.00041 909.693 519.035)"/><path d="M-2423.53 1149.25-2384.47 1149.25" stroke="#BBC909" stroke-width="5.57489" stroke-linecap="butt" stroke-linejoin="miter" stroke-miterlimit="4" stroke-opacity="1" fill="none" fill-rule="nonzero" transform="matrix(1 0 0 1.00041 2687.14 -830.295)"/><path d="M-2423.46 1152.04-2426.31 1152.04-2426.31 1146.46-2423.46 1146.46Z" stroke="#BBC909" stroke-width="0.0309716" stroke-linecap="butt" stroke-linejoin="miter" stroke-miterlimit="4" stroke-opacity="1" fill="#BBC909" fill-rule="nonzero" fill-opacity="1" transform="matrix(1 0 0 1.00041 2687.14 -830.295)"/><path d="M-2372.84 1149.25-2381.68 1152.12-2381.68 1146.38Z" stroke="#BBC909" stroke-width="5.57489" stroke-linecap="butt" stroke-linejoin="miter" stroke-miterlimit="4" stroke-opacity="1" fill="#BBC909" fill-rule="nonzero" fill-opacity="1" transform="matrix(1 0 0 1.00041 2687.14 -830.295)"/><path d="M-2423.53 1304.11-2384.47 1304.11" stroke="#BBC909" stroke-width="5.57489" stroke-linecap="butt" stroke-linejoin="miter" stroke-miterlimit="4" stroke-opacity="1" fill="none" fill-rule="nonzero" transform="matrix(1 0 0 1.00041 2687.14 -830.295)"/><path d="M-2423.46 1306.9-2426.31 1306.9-2426.31 1301.32-2423.46 1301.32Z" stroke="#BBC909" stroke-width="0.0309716" stroke-linecap="butt" stroke-linejoin="miter" stroke-miterlimit="4" stroke-opacity="1" fill="#BBC909" fill-rule="nonzero" fill-opacity="1" transform="matrix(1 0 0 1.00041 2687.14 -830.295)"/><path d="M-2372.84 1304.11-2381.68 1306.98-2381.68 1301.24Z" stroke="#BBC909" stroke-width="5.57489" stroke-linecap="butt" stroke-linejoin="miter" stroke-miterlimit="4" stroke-opacity="1" fill="#BBC909" fill-rule="nonzero" fill-opacity="1" transform="matrix(1 0 0 1.00041 2687.14 -830.295)"/><path d="M-2258.2 1143.06-2204.62 1143.06C-2202.57 1143.06-2200.9 1144.72-2200.9 1146.77L-2200.9 1169.18" stroke="#BBC909" stroke-width="5.57489" stroke-linecap="butt" stroke-linejoin="miter" stroke-miterlimit="4" stroke-opacity="1" fill="none" fill-rule="nonzero" transform="matrix(1 0 0 1.00041 2687.14 -830.295)"/><path d="M-2258.14 1145.84-2260.99 1145.84-2260.99 1140.27-2258.14 1140.27Z" stroke="#BBC909" stroke-width="0.0309716" stroke-linecap="butt" stroke-linejoin="miter" stroke-miterlimit="4" stroke-opacity="1" fill="#BBC909" fill-rule="nonzero" fill-opacity="1" transform="matrix(1 0 0 1.00041 2687.14 -830.295)"/><path d="M-2200.9 1180.8-2203.78 1171.96-2198.04 1171.96Z" stroke="#BBC909" stroke-width="5.57489" stroke-linecap="butt" stroke-linejoin="miter" stroke-miterlimit="4" stroke-opacity="1" fill="#BBC909" fill-rule="nonzero" fill-opacity="1" transform="matrix(1 0 0 1.00041 2687.14 -830.295)"/><path d="M-2176.13 1217.39C-2176.13 1231.08-2187.23 1242.17-2200.9 1242.17-2214.59 1242.17-2225.68 1231.08-2225.68 1217.39-2225.68 1203.7-2214.59 1192.61-2200.9 1192.61-2187.23 1192.61-2176.13 1203.7-2176.13 1217.39ZM-2218.43 1199.87-2183.39 1234.91M-2218.43 1234.91-2183.39 1199.87" stroke="#FFFFFF" stroke-width="5.57489" stroke-linecap="butt" stroke-linejoin="miter" stroke-miterlimit="4" stroke-opacity="1" fill="#8AB8E6" fill-rule="nonzero" fill-opacity="1" transform="matrix(1 0 0 1.00041 2687.14 -830.295)"/><path d="M-2258.2 1304.11-2204.62 1304.11C-2202.57 1304.11-2200.9 1302.44-2200.9 1300.39L-2200.9 1265.6" stroke="#BBC909" stroke-width="5.57489" stroke-linecap="butt" stroke-linejoin="miter" stroke-miterlimit="4" stroke-opacity="1" fill="none" fill-rule="nonzero" transform="matrix(1 0 0 1.00041 2687.14 -830.295)"/><path d="M-2258.14 1306.9-2260.99 1306.9-2260.99 1301.32-2258.14 1301.32Z" stroke="#BBC909" stroke-width="0.0309716" stroke-linecap="butt" stroke-linejoin="miter" stroke-miterlimit="4" stroke-opacity="1" fill="#BBC909" fill-rule="nonzero" fill-opacity="1" transform="matrix(1 0 0 1.00041 2687.14 -830.295)"/><path d="M-2200.9 1253.98-2198.04 1262.81-2203.78 1262.81Z" stroke="#BBC909" stroke-width="5.57489" stroke-linecap="butt" stroke-linejoin="miter" stroke-miterlimit="4" stroke-opacity="1" fill="#BBC909" fill-rule="nonzero" fill-opacity="1" transform="matrix(1 0 0 1.00041 2687.14 -830.295)"/><path d="M-2081.29 1180.64C-2081.29 1178.59-2079.62 1176.92-2077.57 1176.92L-1936.34 1176.92C-1934.29 1176.92-1932.63 1178.59-1932.63 1180.64L-1932.63 1254.14C-1932.63 1256.2-1934.29 1257.86-1936.34 1257.86L-2077.57 1257.86C-2079.62 1257.86-2081.29 1256.2-2081.29 1254.14Z" stroke="#012A4D" stroke-width="3.71659" stroke-linecap="butt" stroke-linejoin="miter" stroke-miterlimit="4" stroke-opacity="1" fill="#FFFFFF" fill-rule="nonzero" fill-opacity="1" transform="matrix(1 0 0 1.00041 2687.14 -830.295)"/><path d="M0.917677-9.48266C4.47367-9.44442 8.7944-10.0944 8.71793-6.46197 8.67969-3.59423 6.07961-3.09716 2.90598-3.32658L2.90598 0 0.917677 0 0.917677-9.48266ZM2.90598-4.85604C4.70309-4.85604 6.72963-4.58838 6.72963-6.42374 6.72963-8.22085 4.66486-7.91496 2.90598-7.91496L2.90598-4.85604" fill="#012A4D" fill-rule="nonzero" fill-opacity="1" transform="matrix(1 0 0 1.00041 615.67 382.14)"/><path d="M7.07376-1.83535C6.57668-0.688258 5.65901 0.191183 3.93836 0.152946 1.64417 0.0764731 0.535311-1.26181 0.535311-3.67071 0.535311-6.07961 1.68241-7.41789 3.9766-7.41789 6.34726-7.41789 7.15023-5.69724 7.18847-3.28834L2.52361-3.28834C2.52361-2.10301 2.8295-1.18533 4.01484-1.1471 4.70309-1.1471 5.16193-1.41475 5.31488-1.9883ZM5.35311-4.47367C5.5443-6.23255 3.17363-6.88258 2.67656-5.27664 2.60008-5.04722 2.52361-4.77957 2.52361-4.47367L5.35311-4.47367" fill="#012A4D" fill-rule="nonzero" fill-opacity="1" transform="matrix(1 0 0 1.00041 624.847 382.14)"/><path d="M5.16193-5.73548C3.67071-6.19432 2.86774-5.2384 2.86774-3.556L2.86774 0 0.955913 0 0.917677-7.26494 2.71479-7.26494C2.79127-6.76787 2.67656-6.15608 2.8295-5.73548 3.05892-6.8061 3.86189-7.76202 5.16193-7.30318L5.16193-5.73548" fill="#012A4D" fill-rule="nonzero" fill-opacity="1" transform="matrix(1 0 0 1.00041 632.494 382.14)"/><path d="M5.2384-5.27664C5.27664-6.3855 2.56185-6.57668 2.52361-5.42959 3.09716-3.67071 7.03552-5.16193 7.07376-2.14125 7.11199 1.03239 0.802967 0.764731 0.497075-1.79712L2.14125-2.06477C2.29419-1.33828 2.90598-1.10886 3.82365-1.10886 5.08546-0.802967 6.00314-2.25596 4.74133-2.67656 3.09716-3.21187 0.841204-3.09716 0.764731-5.20017 0.688258-8.25909 6.65316-8.02967 6.92081-5.46782" fill="#012A4D" fill-rule="nonzero" fill-opacity="1" transform="matrix(1 0 0 1.00041 637.848 382.14)"/><path d="M4.20602-7.41789C6.65316-7.41789 7.87672-6.04137 7.87672-3.63247 7.87672-1.18533 6.53845 0.152946 4.16778 0.152946 1.83535 0.152946 0.535311-1.22357 0.535311-3.63247 0.535311-6.00314 1.83535-7.41789 4.20602-7.41789ZM4.16778-1.1471C5.50606-1.1471 5.88843-2.21772 5.88843-3.63247 5.88843-5.16193 5.50606-6.11784 4.24425-6.11784 2.94421-6.11784 2.52361-5.12369 2.52361-3.63247 2.52361-2.25596 2.90598-1.1471 4.16778-1.1471" fill="#012A4D" fill-rule="nonzero" fill-opacity="1" transform="matrix(1 0 0 1.00041 645.495 382.14)"/><path d="M5.16193-7.41789C8.48851-7.45612 7.37965-3.09716 7.57083 0L5.65901 0C5.39135-2.17948 6.53845-6.00314 4.35896-6.00314 2.10301-6.00314 3.05892-2.29419 2.86774 0L0.955913 0 0.917677-7.26494 2.71479-7.26494C2.79127-6.8061 2.67656-6.19432 2.8295-5.81195 3.28834-6.8061 3.90013-7.37965 5.16193-7.41789" fill="#012A4D" fill-rule="nonzero" fill-opacity="1" transform="matrix(1 0 0 1.00041 653.869 382.14)"/><path d="M5.08546-1.30004C4.47367-0.573548 3.93836 0.191183 2.63832 0.152946 1.22357 0.11471 0.420602-0.611784 0.420602-2.06477 0.382365-4.35896 2.52361-4.47367 4.85604-4.3972 4.89428-5.39135 4.74133-6.19432 3.78542-6.19432 3.09716-6.15608 2.79127-5.85019 2.71479-5.16193L0.726494-5.2384C0.99415-6.69139 2.10301-7.45612 3.86189-7.41789 5.62077-7.37965 6.69139-6.57668 6.72963-4.8178L6.76787-1.68241C6.72963-1.1471 7.2267-0.99415 7.72378-1.10886L7.72378-0.0764731C6.57668 0.229419 5.00899 0.11471 5.08546-1.30004ZM3.2501-1.18533C4.35896-1.18533 4.89428-2.10301 4.85604-3.36481 3.63247-3.36481 2.33243-3.47952 2.37066-2.21772 2.37066-1.5677 2.67656-1.18533 3.2501-1.18533" fill="#012A4D" fill-rule="nonzero" fill-opacity="1" transform="matrix(1 0 0 1.00041 662.242 382.14)"/><path d="M0.955913 0 0.955913-9.97973 2.86774-9.97973 2.86774 0 0.955913 0" fill="#012A4D" fill-rule="nonzero" fill-opacity="1" transform="matrix(1 0 0 1.00041 669.89 382.14)"/><path d="M0.955913-8.56498 0.955913-9.97973 2.86774-9.97973 2.86774-8.56498 0.955913-8.56498ZM0.955913 0 0.955913-7.26494 2.86774-7.26494 2.86774 0 0.955913 0" fill="#012A4D" fill-rule="nonzero" fill-opacity="1" transform="matrix(1 0 0 1.00041 673.713 382.14)"/><path d="M0.458838 0 0.458838-1.33828 4.09131-5.92666 0.726494-5.92666 0.726494-7.26494 6.15608-7.26494 6.15608-5.92666 2.56185-1.37652 6.50021-1.37652 6.50021 0 0.458838 0" fill="#012A4D" fill-rule="nonzero" fill-opacity="1" transform="matrix(1 0 0 1.00041 677.537 382.14)"/><path d="M7.07376-1.83535C6.57668-0.688258 5.65901 0.191183 3.93836 0.152946 1.64417 0.0764731 0.535311-1.26181 0.535311-3.67071 0.535311-6.07961 1.68241-7.41789 3.9766-7.41789 6.34726-7.41789 7.15023-5.69724 7.18847-3.28834L2.52361-3.28834C2.52361-2.10301 2.8295-1.18533 4.01484-1.1471 4.70309-1.1471 5.16193-1.41475 5.31488-1.9883ZM5.35311-4.47367C5.5443-6.23255 3.17363-6.88258 2.67656-5.27664 2.60008-5.04722 2.52361-4.77957 2.52361-4.47367L5.35311-4.47367" fill="#012A4D" fill-rule="nonzero" fill-opacity="1" transform="matrix(1 0 0 1.00041 684.42 382.14)"/><path d="M3.36481-7.41789C4.55015-7.45612 5.12369-6.84434 5.58253-6.11784L5.5443-9.97973 7.45612-9.97973 7.49436 0 5.65901 0C5.58253-0.382365 5.65901-0.87944 5.5443-1.18533 5.12369-0.305892 4.43544 0.152946 3.21187 0.152946 1.22357 0.152946 0.611784-1.5677 0.573548-3.63247 0.573548-5.77372 1.30004-7.34141 3.36481-7.41789ZM4.01484-1.1471C5.27664-1.1471 5.5443-2.29419 5.58253-3.67071 5.62077-5.08546 5.2384-6.11784 4.01484-6.11784 2.79127-6.11784 2.56185-4.97075 2.52361-3.63247 2.52361-1.9883 3.02069-1.1471 4.01484-1.1471" fill="#012A4D" fill-rule="nonzero" fill-opacity="1" transform="matrix(1 0 0 1.00041 692.067 382.14)"/><path d="M4.35896-6.00314C2.10301-6.00314 3.05892-2.29419 2.86774 0L0.955913 0 0.955913-9.97973 2.86774-9.97973 2.8295-5.81195C3.28834-6.8061 3.90013-7.37965 5.16193-7.41789 8.45027-7.45612 7.37965-3.09716 7.57083 0L5.65901 0C5.39135-2.17948 6.53845-6.00314 4.35896-6.00314" fill="#012A4D" fill-rule="nonzero" fill-opacity="1" transform="matrix(1 0 0 1.00041 704.268 382.14)"/><path d="M7.07376-1.83535C6.57668-0.688258 5.65901 0.191183 3.93836 0.152946 1.64417 0.0764731 0.535311-1.26181 0.535311-3.67071 0.535311-6.07961 1.68241-7.41789 3.9766-7.41789 6.34726-7.41789 7.15023-5.69724 7.18847-3.28834L2.52361-3.28834C2.52361-2.10301 2.8295-1.18533 4.01484-1.1471 4.70309-1.1471 5.16193-1.41475 5.31488-1.9883ZM5.35311-4.47367C5.5443-6.23255 3.17363-6.88258 2.67656-5.27664 2.60008-5.04722 2.52361-4.77957 2.52361-4.47367L5.35311-4.47367" fill="#012A4D" fill-rule="nonzero" fill-opacity="1" transform="matrix(1 0 0 1.00041 712.641 382.14)"/><path d="M5.08546-1.30004C4.47367-0.573548 3.93836 0.191183 2.63832 0.152946 1.22357 0.11471 0.420602-0.611784 0.420602-2.06477 0.382365-4.35896 2.52361-4.47367 4.85604-4.3972 4.89428-5.39135 4.74133-6.19432 3.78542-6.19432 3.09716-6.15608 2.79127-5.85019 2.71479-5.16193L0.726494-5.2384C0.99415-6.69139 2.10301-7.45612 3.86189-7.41789 5.62077-7.37965 6.69139-6.57668 6.72963-4.8178L6.76787-1.68241C6.72963-1.1471 7.2267-0.99415 7.72378-1.10886L7.72378-0.0764731C6.57668 0.229419 5.00899 0.11471 5.08546-1.30004ZM3.2501-1.18533C4.35896-1.18533 4.89428-2.10301 4.85604-3.36481 3.63247-3.36481 2.33243-3.47952 2.37066-2.21772 2.37066-1.5677 2.67656-1.18533 3.2501-1.18533" fill="#012A4D" fill-rule="nonzero" fill-opacity="1" transform="matrix(1 0 0 1.00041 720.289 382.14)"/><path d="M0.955913 0 0.955913-9.97973 2.86774-9.97973 2.86774 0 0.955913 0" fill="#012A4D" fill-rule="nonzero" fill-opacity="1" transform="matrix(1 0 0 1.00041 727.936 382.14)"/><path d="M4.3972-0.11471C3.02069 0.420602 1.07062 0.152946 1.07062-1.72064L1.07062-6.00314 0.152946-6.00314 0.152946-7.26494 1.18533-7.26494 1.75888-8.98558 2.94421-8.98558 2.94421-7.26494 4.32073-7.26494 4.32073-6.00314 2.94421-6.00314 2.94421-2.21772C2.90598-1.33828 3.556-1.03239 4.3972-1.26181L4.3972-0.11471" fill="#012A4D" fill-rule="nonzero" fill-opacity="1" transform="matrix(1 0 0 1.00041 731.76 382.14)"/><path d="M4.35896-6.00314C2.10301-6.00314 3.05892-2.29419 2.86774 0L0.955913 0 0.955913-9.97973 2.86774-9.97973 2.8295-5.81195C3.28834-6.8061 3.90013-7.37965 5.16193-7.41789 8.45027-7.45612 7.37965-3.09716 7.57083 0L5.65901 0C5.39135-2.17948 6.53845-6.00314 4.35896-6.00314" fill="#012A4D" fill-rule="nonzero" fill-opacity="1" transform="matrix(1 0 0 1.00041 736.31 382.14)"/><path d="M5.62077 0 3.67071-3.28834 2.86774-2.71479 2.86774 0 0.955913 0 0.955913-9.97973 2.86774-9.97973 2.86774-4.24425 5.42959-7.26494 7.45612-7.26494 4.93251-4.43544 7.68554 0 5.62077 0" fill="#012A4D" fill-rule="nonzero" fill-opacity="1" transform="matrix(1 0 0 1.00041 623.723 398.661)"/><path d="M5.16193-7.41789C8.48851-7.45612 7.37965-3.09716 7.57083 0L5.65901 0C5.39135-2.17948 6.53845-6.00314 4.35896-6.00314 2.10301-6.00314 3.05892-2.29419 2.86774 0L0.955913 0 0.917677-7.26494 2.71479-7.26494C2.79127-6.8061 2.67656-6.19432 2.8295-5.81195 3.28834-6.8061 3.90013-7.37965 5.16193-7.41789" fill="#012A4D" fill-rule="nonzero" fill-opacity="1" transform="matrix(1 0 0 1.00041 631.37 398.661)"/><path d="M4.20602-7.41789C6.65316-7.41789 7.87672-6.04137 7.87672-3.63247 7.87672-1.18533 6.53845 0.152946 4.16778 0.152946 1.83535 0.152946 0.535311-1.22357 0.535311-3.63247 0.535311-6.00314 1.83535-7.41789 4.20602-7.41789ZM4.16778-1.1471C5.50606-1.1471 5.88843-2.21772 5.88843-3.63247 5.88843-5.16193 5.50606-6.11784 4.24425-6.11784 2.94421-6.11784 2.52361-5.12369 2.52361-3.63247 2.52361-2.25596 2.90598-1.1471 4.16778-1.1471" fill="#012A4D" fill-rule="nonzero" fill-opacity="1" transform="matrix(1 0 0 1.00041 639.744 398.661)"/><path d="M8.83264 0 6.84434 0 5.35311-5.92666 3.82365 0 1.83535 0-0.0382365-7.26494 1.72064-7.26494 2.94421-1.72064C3.28834-3.70894 3.86189-5.42959 4.32073-7.26494L6.34726-7.26494 7.76202-1.72064 8.98558-7.26494 10.7445-7.26494" fill="#012A4D" fill-rule="nonzero" fill-opacity="1" transform="matrix(1 0 0 1.00041 648.118 398.661)"/><path d="M0.955913 0 0.955913-9.97973 2.86774-9.97973 2.86774 0 0.955913 0" fill="#012A4D" fill-rule="nonzero" fill-opacity="1" transform="matrix(1 0 0 1.00041 658.824 398.661)"/><path d="M7.07376-1.83535C6.57668-0.688258 5.65901 0.191183 3.93836 0.152946 1.64417 0.0764731 0.535311-1.26181 0.535311-3.67071 0.535311-6.07961 1.68241-7.41789 3.9766-7.41789 6.34726-7.41789 7.15023-5.69724 7.18847-3.28834L2.52361-3.28834C2.52361-2.10301 2.8295-1.18533 4.01484-1.1471 4.70309-1.1471 5.16193-1.41475 5.31488-1.9883ZM5.35311-4.47367C5.5443-6.23255 3.17363-6.88258 2.67656-5.27664 2.60008-5.04722 2.52361-4.77957 2.52361-4.47367L5.35311-4.47367" fill="#012A4D" fill-rule="nonzero" fill-opacity="1" transform="matrix(1 0 0 1.00041 662.648 398.661)"/><path d="M3.36481-7.41789C4.55015-7.45612 5.12369-6.84434 5.58253-6.11784L5.5443-9.97973 7.45612-9.97973 7.49436 0 5.65901 0C5.58253-0.382365 5.65901-0.87944 5.5443-1.18533 5.12369-0.305892 4.43544 0.152946 3.21187 0.152946 1.22357 0.152946 0.611784-1.5677 0.573548-3.63247 0.573548-5.77372 1.30004-7.34141 3.36481-7.41789ZM4.01484-1.1471C5.27664-1.1471 5.5443-2.29419 5.58253-3.67071 5.62077-5.08546 5.2384-6.11784 4.01484-6.11784 2.79127-6.11784 2.56185-4.97075 2.52361-3.63247 2.52361-1.9883 3.02069-1.1471 4.01484-1.1471" fill="#012A4D" fill-rule="nonzero" fill-opacity="1" transform="matrix(1 0 0 1.00041 670.295 398.661)"/><path d="M7.45612-0.229419C7.87672 3.1354 2.86774 3.82365 1.18533 1.75888 1.03239 1.52946 0.955913 1.26181 0.87944 0.955913L2.75303 0.726494C2.86774 1.33828 3.36481 1.64417 4.05307 1.68241 5.58253 1.68241 5.65901 0.267656 5.58253-1.33828 5.16193-0.497075 4.43544 0 3.2501 0 1.22357 0 0.573548-1.64417 0.573548-3.70894 0.573548-5.85019 1.26181-7.37965 3.36481-7.41789 4.51191-7.41789 5.12369-6.88258 5.62077-6.11784L5.69724-7.26494 7.49436-7.26494ZM4.01484-1.33828C5.2384-1.33828 5.58253-2.37066 5.58253-3.74718 5.58253-5.08546 5.2384-6.11784 4.05307-6.11784 2.8295-6.11784 2.56185-5.00899 2.52361-3.70894 2.52361-2.33243 2.86774-1.33828 4.01484-1.33828" fill="#012A4D" fill-rule="nonzero" fill-opacity="1" transform="matrix(1 0 0 1.00041 678.669 398.661)"/><path d="M7.07376-1.83535C6.57668-0.688258 5.65901 0.191183 3.93836 0.152946 1.64417 0.0764731 0.535311-1.26181 0.535311-3.67071 0.535311-6.07961 1.68241-7.41789 3.9766-7.41789 6.34726-7.41789 7.15023-5.69724 7.18847-3.28834L2.52361-3.28834C2.52361-2.10301 2.8295-1.18533 4.01484-1.1471 4.70309-1.1471 5.16193-1.41475 5.31488-1.9883ZM5.35311-4.47367C5.5443-6.23255 3.17363-6.88258 2.67656-5.27664 2.60008-5.04722 2.52361-4.77957 2.52361-4.47367L5.35311-4.47367" fill="#012A4D" fill-rule="nonzero" fill-opacity="1" transform="matrix(1 0 0 1.00041 687.043 398.661)"/><path d="M7.45612-0.229419C7.87672 3.1354 2.86774 3.82365 1.18533 1.75888 1.03239 1.52946 0.955913 1.26181 0.87944 0.955913L2.75303 0.726494C2.86774 1.33828 3.36481 1.64417 4.05307 1.68241 5.58253 1.68241 5.65901 0.267656 5.58253-1.33828 5.16193-0.497075 4.43544 0 3.2501 0 1.22357 0 0.573548-1.64417 0.573548-3.70894 0.573548-5.85019 1.26181-7.37965 3.36481-7.41789 4.51191-7.41789 5.12369-6.88258 5.62077-6.11784L5.69724-7.26494 7.49436-7.26494ZM4.01484-1.33828C5.2384-1.33828 5.58253-2.37066 5.58253-3.74718 5.58253-5.08546 5.2384-6.11784 4.05307-6.11784 2.8295-6.11784 2.56185-5.00899 2.52361-3.70894 2.52361-2.33243 2.86774-1.33828 4.01484-1.33828" fill="#012A4D" fill-rule="nonzero" fill-opacity="1" transform="matrix(1 0 0 1.00041 698.513 398.661)"/><path d="M5.16193-5.73548C3.67071-6.19432 2.86774-5.2384 2.86774-3.556L2.86774 0 0.955913 0 0.917677-7.26494 2.71479-7.26494C2.79127-6.76787 2.67656-6.15608 2.8295-5.73548 3.05892-6.8061 3.86189-7.76202 5.16193-7.30318L5.16193-5.73548" fill="#012A4D" fill-rule="nonzero" fill-opacity="1" transform="matrix(1 0 0 1.00041 706.887 398.661)"/><path d="M5.08546-1.30004C4.47367-0.573548 3.93836 0.191183 2.63832 0.152946 1.22357 0.11471 0.420602-0.611784 0.420602-2.06477 0.382365-4.35896 2.52361-4.47367 4.85604-4.3972 4.89428-5.39135 4.74133-6.19432 3.78542-6.19432 3.09716-6.15608 2.79127-5.85019 2.71479-5.16193L0.726494-5.2384C0.99415-6.69139 2.10301-7.45612 3.86189-7.41789 5.62077-7.37965 6.69139-6.57668 6.72963-4.8178L6.76787-1.68241C6.72963-1.1471 7.2267-0.99415 7.72378-1.10886L7.72378-0.0764731C6.57668 0.229419 5.00899 0.11471 5.08546-1.30004ZM3.2501-1.18533C4.35896-1.18533 4.89428-2.10301 4.85604-3.36481 3.63247-3.36481 2.33243-3.47952 2.37066-2.21772 2.37066-1.5677 2.67656-1.18533 3.2501-1.18533" fill="#012A4D" fill-rule="nonzero" fill-opacity="1" transform="matrix(1 0 0 1.00041 712.24 398.661)"/><path d="M5.16193-7.41789C7.18847-7.41789 7.83849-5.73548 7.83849-3.67071 7.83849-1.52946 7.11199 0.0764731 5.04722 0.152946 3.86189 0.191183 3.32658-0.497075 2.79127-1.1471 2.90598 0.11471 2.86774 1.49122 2.86774 2.86774L0.955913 2.86774 0.917677-7.26494 2.75303-7.26494C2.8295-6.88258 2.75303-6.3855 2.86774-6.07961 3.28834-6.99728 3.9766-7.41789 5.16193-7.41789ZM4.35896-1.1471C5.62077-1.1471 5.85019-2.33243 5.88843-3.67071 5.88843-5.12369 5.5443-6.11784 4.35896-6.11784 2.21772-6.11784 2.25596-1.1471 4.35896-1.1471" fill="#012A4D" fill-rule="nonzero" fill-opacity="1" transform="matrix(1 0 0 1.00041 719.887 398.661)"/><path d="M4.35896-6.00314C2.10301-6.00314 3.05892-2.29419 2.86774 0L0.955913 0 0.955913-9.97973 2.86774-9.97973 2.8295-5.81195C3.28834-6.8061 3.90013-7.37965 5.16193-7.41789 8.45027-7.45612 7.37965-3.09716 7.57083 0L5.65901 0C5.39135-2.17948 6.53845-6.00314 4.35896-6.00314" fill="#012A4D" fill-rule="nonzero" fill-opacity="1" transform="matrix(1 0 0 1.00041 728.261 398.661)"/><path d="M-1697.24 1180.64C-1697.24 1178.59-1695.58 1176.92-1693.53 1176.92L-1552.3 1176.92C-1550.25 1176.92-1548.58 1178.59-1548.58 1180.64L-1548.58 1254.14C-1548.58 1256.2-1550.25 1257.86-1552.3 1257.86L-1693.53 1257.86C-1695.58 1257.86-1697.24 1256.2-1697.24 1254.14Z" stroke="#012A4D" stroke-width="3.71659" stroke-linecap="butt" stroke-linejoin="miter" stroke-miterlimit="4" stroke-opacity="1" fill="#FFFFFF" fill-rule="nonzero" fill-opacity="1" transform="matrix(1 0 0 1.00041 2687.14 -830.295)"/><path d="M2.90598-7.9532 2.90598-5.00899 7.76202-5.00899 7.76202-3.47952 2.90598-3.47952 2.90598 0 0.917677 0 0.917677-9.48266 7.91496-9.48266 7.91496-7.9532 2.90598-7.9532" fill="#012A4D" fill-rule="nonzero" fill-opacity="1" transform="matrix(1 0 0 1.00041 1035.26 390.425)"/><path d="M4.20602-7.41789C6.65316-7.41789 7.87672-6.04137 7.87672-3.63247 7.87672-1.18533 6.53845 0.152946 4.16778 0.152946 1.83535 0.152946 0.535311-1.22357 0.535311-3.63247 0.535311-6.00314 1.83535-7.41789 4.20602-7.41789ZM4.16778-1.1471C5.50606-1.1471 5.88843-2.21772 5.88843-3.63247 5.88843-5.16193 5.50606-6.11784 4.24425-6.11784 2.94421-6.11784 2.52361-5.12369 2.52361-3.63247 2.52361-2.25596 2.90598-1.1471 4.16778-1.1471" fill="#012A4D" fill-rule="nonzero" fill-opacity="1" transform="matrix(1 0 0 1.00041 1043.63 390.425)"/><path d="M4.20602-7.41789C6.65316-7.41789 7.87672-6.04137 7.87672-3.63247 7.87672-1.18533 6.53845 0.152946 4.16778 0.152946 1.83535 0.152946 0.535311-1.22357 0.535311-3.63247 0.535311-6.00314 1.83535-7.41789 4.20602-7.41789ZM4.16778-1.1471C5.50606-1.1471 5.88843-2.21772 5.88843-3.63247 5.88843-5.16193 5.50606-6.11784 4.24425-6.11784 2.94421-6.11784 2.52361-5.12369 2.52361-3.63247 2.52361-2.25596 2.90598-1.1471 4.16778-1.1471" fill="#012A4D" fill-rule="nonzero" fill-opacity="1" transform="matrix(1 0 0 1.00041 1052.01 390.425)"/><path d="M3.36481-7.41789C4.55015-7.45612 5.12369-6.84434 5.58253-6.11784L5.5443-9.97973 7.45612-9.97973 7.49436 0 5.65901 0C5.58253-0.382365 5.65901-0.87944 5.5443-1.18533 5.12369-0.305892 4.43544 0.152946 3.21187 0.152946 1.22357 0.152946 0.611784-1.5677 0.573548-3.63247 0.573548-5.77372 1.30004-7.34141 3.36481-7.41789ZM4.01484-1.1471C5.27664-1.1471 5.5443-2.29419 5.58253-3.67071 5.62077-5.08546 5.2384-6.11784 4.01484-6.11784 2.79127-6.11784 2.56185-4.97075 2.52361-3.63247 2.52361-1.9883 3.02069-1.1471 4.01484-1.1471" fill="#012A4D" fill-rule="nonzero" fill-opacity="1" transform="matrix(1 0 0 1.00041 1060.38 390.425)"/><path d="M7.45612 0 4.09131-4.35896 2.90598-3.44129 2.90598 0 0.917677 0 0.917677-9.48266 2.90598-9.48266 2.90598-5.16193 7.18847-9.48266 9.48266-9.48266 5.42959-5.46782 9.82679 0 7.45612 0" fill="#012A4D" fill-rule="nonzero" fill-opacity="1" transform="matrix(1 0 0 1.00041 1072.58 390.425)"/><path d="M2.56185-4.77957C2.56185-2.71479 3.44129-1.41475 5.42959-1.41475 6.50021-1.41475 7.45612-1.68241 8.02967-2.21772L8.02967-3.51776 5.73548-3.51776 5.73548-5.00899 9.86502-5.00899 9.86502-1.52946C8.87087-0.535311 7.34141 0.152946 5.35311 0.152946 2.21772 0.152946 0.764731-1.60593 0.573548-4.77957 0.305892-9.02382 4.8178-10.7062 8.22085-8.94735 8.94735-8.56498 9.32971-7.9532 9.6356-7.15023L7.83849-6.57668C7.41789-7.45612 6.72963-8.06791 5.42959-8.06791 3.40305-8.02967 2.56185-6.8061 2.56185-4.77957" fill="#012A4D" fill-rule="nonzero" fill-opacity="1" transform="matrix(1 0 0 1.00041 1082.49 390.425)"/><path d="M-2170.55 1217.39-2103.79 1217.39" stroke="#BBC909" stroke-width="5.57489" stroke-linecap="butt" stroke-linejoin="miter" stroke-miterlimit="4" stroke-opacity="1" fill="none" fill-rule="nonzero" transform="matrix(1 0 0 1.00041 2687.14 -830.295)"/><path d="M-2170.49 1220.18-2173.51 1220.18-2173.34 1217.42-2173.42 1215.37-2173.52 1214.59-2170.49 1214.59Z" stroke="#BBC909" stroke-width="0.0309716" stroke-linecap="butt" stroke-linejoin="miter" stroke-miterlimit="4" stroke-opacity="1" fill="#BBC909" fill-rule="nonzero" fill-opacity="1" transform="matrix(1 0 0 1.00041 2687.14 -830.295)"/><path d="M-2092.17 1217.39-2101.01 1220.26-2101.01 1214.52Z" stroke="#BBC909" stroke-width="5.57489" stroke-linecap="butt" stroke-linejoin="miter" stroke-miterlimit="4" stroke-opacity="1" fill="#BBC909" fill-rule="nonzero" fill-opacity="1" transform="matrix(1 0 0 1.00041 2687.14 -830.295)"/><path d="M-1910.12 1217.39-1880.8 1217.39" stroke="#BBC909" stroke-width="5.57489" stroke-linecap="butt" stroke-linejoin="miter" stroke-miterlimit="4" stroke-opacity="1" fill="none" fill-rule="nonzero" transform="matrix(1 0 0 1.00041 2687.14 -830.295)"/><path d="M-1921.75 1217.39-1912.91 1214.52-1912.91 1220.26ZM-1869.17 1217.39-1878.01 1220.26-1878.01 1214.52Z" stroke="#BBC909" stroke-width="5.57489" stroke-linecap="butt" stroke-linejoin="miter" stroke-miterlimit="4" stroke-opacity="1" fill="#BBC909" fill-rule="nonzero" fill-opacity="1" transform="matrix(1 0 0 1.00041 2687.14 -830.295)"/><path d="M-1808.74 1135.32-1808.74 1157.72" stroke="#BBC909" stroke-width="5.57489" stroke-linecap="butt" stroke-linejoin="miter" stroke-miterlimit="4" stroke-opacity="1" fill="none" fill-rule="nonzero" transform="matrix(1 0 0 1.00041 2687.14 -830.295)"/><path d="M-1808.74 1132.53-1805.95 1132.43-1805.95 1135.39-1811.53 1135.39-1811.53 1132.41Z" stroke="#BBC909" stroke-width="0.0309716" stroke-linecap="butt" stroke-linejoin="miter" stroke-miterlimit="4" stroke-opacity="1" fill="#BBC909" fill-rule="nonzero" fill-opacity="1" transform="matrix(1 0 0 1.00041 2687.14 -830.295)"/><path d="M-1808.74 1169.34-1811.61 1160.51-1805.87 1160.51Z" stroke="#BBC909" stroke-width="5.57489" stroke-linecap="butt" stroke-linejoin="miter" stroke-miterlimit="4" stroke-opacity="1" fill="#BBC909" fill-rule="nonzero" fill-opacity="1" transform="matrix(1 0 0 1.00041 2687.14 -830.295)"/><path d="M-1808.74 1259.2-1808.74 1269.22" stroke="#BBC909" stroke-width="5.57489" stroke-linecap="butt" stroke-linejoin="miter" stroke-miterlimit="4" stroke-opacity="1" fill="none" fill-rule="nonzero" transform="matrix(1 0 0 1.00041 2687.14 -830.295)"/><path d="M-1805.95 1259.27-1811.53 1259.27-1811.53 1256.41-1805.95 1256.41Z" stroke="#BBC909" stroke-width="0.0309716" stroke-linecap="butt" stroke-linejoin="miter" stroke-miterlimit="4" stroke-opacity="1" fill="#BBC909" fill-rule="nonzero" fill-opacity="1" transform="matrix(1 0 0 1.00041 2687.14 -830.295)"/><path d="M-1808.74 1280.84-1811.61 1272.01-1805.87 1272.01Z" stroke="#BBC909" stroke-width="5.57489" stroke-linecap="butt" stroke-linejoin="miter" stroke-miterlimit="4" stroke-opacity="1" fill="#BBC909" fill-rule="nonzero" fill-opacity="1" transform="matrix(1 0 0 1.00041 2687.14 -830.295)"/><path d="M-1701.89 1217.39-1736.68 1217.39" stroke="#BBC909" stroke-width="5.57489" stroke-linecap="butt" stroke-linejoin="miter" stroke-miterlimit="4" stroke-opacity="1" fill="none" fill-rule="nonzero" transform="matrix(1 0 0 1.00041 2687.14 -830.295)"/><path d="M-1699.1 1220.18-1701.95 1220.18-1701.95 1214.6-1699.1 1214.6Z" stroke="#BBC909" stroke-width="0.0309716" stroke-linecap="butt" stroke-linejoin="miter" stroke-miterlimit="4" stroke-opacity="1" fill="#BBC909" fill-rule="nonzero" fill-opacity="1" transform="matrix(1 0 0 1.00041 2687.14 -830.295)"/><path d="M-1748.31 1217.39-1739.47 1214.52-1739.47 1220.26Z" stroke="#BBC909" stroke-width="5.57489" stroke-linecap="butt" stroke-linejoin="miter" stroke-miterlimit="4" stroke-opacity="1" fill="#BBC909" fill-rule="nonzero" fill-opacity="1" transform="matrix(1 0 0 1.00041 2687.14 -830.295)"/></g></g></g></g></svg>