<svg width="313" height="166" viewBox="0 0 313 166" fill="none" xmlns="http://www.w3.org/2000/svg">
<path d="M1.656 24V7.2H4.56V21.384H12.432V24H1.656ZM14.6873 24V7.2H25.3913V9.816H17.5913V14.232H24.7193V16.848H17.5913V21.384H25.5113V24H14.6873ZM26.8472 24L31.4552 7.2H36.4712L41.0792 24H38.1032L37.0952 20.16H30.8312L29.8232 24H26.8472ZM31.5032 17.52H36.4232L34.1672 9H33.7592L31.5032 17.52ZM43.2107 24V7.2H50.3867C51.4427 7.2 52.3627 7.384 53.1467 7.752C53.9307 8.12 54.5387 8.64 54.9707 9.312C55.4187 9.968 55.6427 10.76 55.6427 11.688V11.952C55.6427 12.992 55.3947 13.824 54.8987 14.448C54.4027 15.072 53.8027 15.528 53.0987 15.816V16.2C53.7227 16.232 54.2107 16.448 54.5627 16.848C54.9307 17.248 55.1147 17.784 55.1147 18.456V24H52.2347V18.864C52.2347 18.464 52.1227 18.144 51.8987 17.904C51.6907 17.648 51.3467 17.52 50.8667 17.52H46.1147V24H43.2107ZM46.1147 14.904H50.0987C50.9307 14.904 51.5787 14.688 52.0427 14.256C52.5227 13.808 52.7627 13.216 52.7627 12.48V12.264C52.7627 11.512 52.5307 10.92 52.0667 10.488C51.6027 10.04 50.9467 9.816 50.0987 9.816H46.1147V14.904ZM58.3748 24V7.2H63.8948L67.8548 22.056H68.2388V7.2H71.0948V24H65.5988L61.6388 9.144H61.2308V24H58.3748ZM79.0659 24L83.6739 7.2H88.6899L93.2979 24H90.3219L89.3139 20.16H83.0499L82.0419 24H79.0659ZM83.7219 17.52H88.6419L86.3859 9H85.9779L83.7219 17.52ZM94.8774 24V21.456H97.1334V9.744H94.8774V7.2H103.469C104.477 7.2 105.357 7.376 106.109 7.728C106.877 8.064 107.469 8.552 107.885 9.192C108.317 9.816 108.533 10.568 108.533 11.448V11.664C108.533 12.432 108.389 13.064 108.101 13.56C107.813 14.056 107.469 14.44 107.069 14.712C106.669 14.984 106.285 15.176 105.917 15.288V15.696C106.285 15.792 106.677 15.976 107.093 16.248C107.525 16.504 107.885 16.888 108.173 17.4C108.477 17.896 108.629 18.544 108.629 19.344V19.584C108.629 20.496 108.405 21.288 107.957 21.96C107.525 22.616 106.925 23.12 106.157 23.472C105.405 23.824 104.533 24 103.541 24H94.8774ZM100.013 21.384H103.205C103.973 21.384 104.581 21.2 105.029 20.832C105.493 20.448 105.725 19.912 105.725 19.224V19.008C105.725 18.32 105.501 17.792 105.053 17.424C104.605 17.04 103.989 16.848 103.205 16.848H100.013V21.384ZM100.013 14.232H103.181C103.917 14.232 104.509 14.048 104.957 13.68C105.421 13.312 105.653 12.8 105.653 12.144V11.904C105.653 11.248 105.421 10.736 104.957 10.368C104.509 10 103.917 9.816 103.181 9.816H100.013V14.232ZM117.776 24.336C115.696 24.336 114.032 23.76 112.784 22.608C111.552 21.44 110.936 19.768 110.936 17.592V13.608C110.936 11.432 111.552 9.768 112.784 8.616C114.032 7.448 115.696 6.864 117.776 6.864C119.872 6.864 121.536 7.448 122.768 8.616C124 9.768 124.616 11.432 124.616 13.608V17.592C124.616 19.768 124 21.44 122.768 22.608C121.536 23.76 119.872 24.336 117.776 24.336ZM117.776 21.744C119.024 21.744 119.992 21.384 120.68 20.664C121.384 19.928 121.736 18.936 121.736 17.688V13.512C121.736 12.264 121.384 11.28 120.68 10.56C119.992 9.824 119.024 9.456 117.776 9.456C116.544 9.456 115.576 9.824 114.872 10.56C114.184 11.28 113.84 12.264 113.84 13.512V17.688C113.84 18.936 114.184 19.928 114.872 20.664C115.576 21.384 116.544 21.744 117.776 21.744ZM133.899 24.336C132.555 24.336 131.395 24.096 130.419 23.616C129.459 23.12 128.715 22.408 128.187 21.48C127.675 20.552 127.419 19.448 127.419 18.168V7.2H130.299V18.24C130.299 19.36 130.611 20.224 131.235 20.832C131.859 21.44 132.747 21.744 133.899 21.744C135.067 21.744 135.955 21.44 136.563 20.832C137.187 20.224 137.499 19.36 137.499 18.24V7.2H140.379V18.168C140.379 19.448 140.123 20.552 139.611 21.48C139.099 22.408 138.355 23.12 137.379 23.616C136.403 24.096 135.243 24.336 133.899 24.336ZM147.577 24V9.816H142.561V7.2H155.473V9.816H150.457V24H147.577ZM163.14 24V7.2H168.54L171.804 22.056H172.212L175.5 7.2H180.876V24H178.092V9.288H177.684L174.42 24H169.62L166.356 9.288H165.948V24H163.14ZM184.211 24V7.2H194.915V9.816H187.115V14.232H194.243V16.848H187.115V21.384H195.035V24H184.211Z" fill="#012A4D"/>
<path d="M283.421 163.814C284.269 165.24 286.11 165.712 287.534 164.868L310.73 151.116C312.153 150.272 312.62 148.432 311.772 147.006C310.924 145.58 309.083 145.109 307.659 145.953L287.041 158.176L274.758 137.522C273.91 136.096 272.069 135.625 270.646 136.468C269.222 137.312 268.756 139.152 269.604 140.578L283.421 163.814ZM120.361 44.9213C120.085 56.6792 123.3 65.1056 129.578 70.7153C135.735 76.2165 144.349 78.5553 153.92 79.311C163.529 80.0697 174.563 79.263 185.957 78.063C197.467 76.8507 209.246 75.2507 220.834 74.3088C232.379 73.3703 243.399 73.1206 253.109 74.5656C262.812 76.0096 270.974 79.112 277.039 84.6854C289.032 95.7067 294.177 117.816 283.091 161.541L288.907 163.031C300.069 119.006 295.749 93.7425 281.092 80.2728C273.832 73.6008 264.373 70.1782 253.976 68.631C243.586 67.0848 232.028 67.3776 220.331 68.3284C208.677 69.2758 196.552 70.912 185.312 72.0959C173.955 73.292 163.393 74.0415 154.376 73.3296C145.321 72.6147 138.28 70.456 133.569 66.2461C128.978 62.1447 126.112 55.6462 126.359 45.0788L120.361 44.9213Z" fill="#FF9195"/>
</svg>
