<svg width="36" height="48" viewBox="0 0 36 48" fill="none" xmlns="http://www.w3.org/2000/svg">
<path d="M17.25 19.5C17.25 19.125 16.875 18.75 16.5 18.75C16.0312 18.75 15.75 19.125 15.75 19.5C15.75 19.7812 15.75 21.75 16.5938 24.2812C16.7812 23.4375 17.25 21.2812 17.25 19.5ZM24 0V12H36L24 0ZM7.5 39.6562C7.5 40.5938 8.4375 40.7812 8.8125 40.2188C9.28125 39.5625 10.125 38.25 11.25 36.4688C9.84375 37.2188 8.625 38.0625 7.6875 39.0938C7.5 39.2812 7.5 39.4688 7.5 39.6562ZM21 12V0H4.5C1.96875 0 0 2.0625 0 4.5V43.5C0 46.0312 1.96875 48 4.5 48H31.5C33.9375 48 36 46.0312 36 43.5V15H24C22.3125 15 21 13.6875 21 12ZM27.375 29.25C29.625 29.25 31.5 31.125 31.5 33.375C31.5 35.7188 29.7188 37.5 27.375 37.5C26.8125 37.5 26.3438 37.5 25.7812 37.3125C23.9062 36.6562 22.2188 35.8125 20.7188 34.6875C18.4688 35.1562 16.4062 35.8125 14.625 36.4688C13.3125 39 12.0938 40.875 11.25 42C10.5 42.9375 9.375 43.5 8.15625 43.5C6.09375 43.5 4.5 41.9062 4.5 39.8438C4.5 38.7188 4.78125 37.7812 5.53125 37.0312C7.03125 35.5312 9 34.125 11.4375 33C12.4688 30.8438 13.5 28.6875 14.25 26.5312C12.75 22.7812 12.75 19.5938 12.75 19.5C12.75 17.4375 14.3438 15.75 16.5 15.75C18.5625 15.75 20.25 17.4375 20.25 19.5C20.25 21.8438 19.5 24.75 19.4062 25.4062C19.3125 25.6875 19.2188 26.0625 19.0312 26.3438C19.7812 27.6562 20.7188 28.875 21.8438 29.9062C24.6562 29.4375 26.625 29.3438 26.9062 29.25H27.375ZM14.625 33.2812C16.3125 32.7188 18 32.25 19.5938 31.875C18.4688 30.75 17.5312 29.5312 16.7812 28.3125C16.125 30.0938 15.375 31.7812 14.625 33.2812ZM27.375 34.5C28.0312 34.5 28.5 34.0312 28.5 33.4688C28.5 32.8125 27.9375 32.25 27.375 32.25H27C26.9062 32.3438 25.4062 32.3438 23.1562 32.7188C24.1875 33.375 25.4062 33.9375 26.7188 34.4062C27 34.5 27.1875 34.5 27.375 34.5Z" fill="#012A4D"/>
</svg>
