<svg width="24" height="23" viewBox="0 0 24 23" fill="none" xmlns="http://www.w3.org/2000/svg">
<path d="M22.5469 18.9531C23.4609 19.7969 23.4609 21.2734 22.5469 22.1172C22.125 22.5391 21.5625 22.75 21 22.75C20.3672 22.75 19.8047 22.5391 19.3828 22.1172L12 14.7344L4.54688 22.1172C4.125 22.5391 3.5625 22.75 3 22.75C2.36719 22.75 1.80469 22.5391 1.38281 22.1172C0.46875 21.2734 0.46875 19.7969 1.38281 18.9531L8.76562 11.5L1.38281 4.11719C0.46875 3.27344 0.46875 1.79688 1.38281 0.953125C2.22656 0.0390625 3.70312 0.0390625 4.54688 0.953125L12 8.33594L19.3828 0.953125C20.2266 0.0390625 21.7031 0.0390625 22.5469 0.953125C23.4609 1.79688 23.4609 3.27344 22.5469 4.11719L15.1641 11.5703L22.5469 18.9531Z" fill="#EBF5FF"/>
</svg>
