<svg width="122" height="127" viewBox="0 0 122 127" fill="none" xmlns="http://www.w3.org/2000/svg">
<path d="M56.6561 120V103.2H62.0561L65.3201 118.056H65.7281L69.0161 103.2H74.3921V120H71.6081V105.288H71.2001L67.9361 120H63.1361L59.8721 105.288H59.4641V120H56.6561ZM77.7264 120V103.2H88.4304V105.816H80.6304V110.232H87.7584V112.848H80.6304V117.384H88.5504V120H77.7264ZM91.0624 120V103.2H96.5824L100.542 118.056H100.926V103.2H103.782V120H98.2864L94.3264 105.144H93.9184V120H91.0624ZM113.478 120.336C112.134 120.336 110.974 120.096 109.998 119.616C109.038 119.12 108.294 118.408 107.766 117.48C107.254 116.552 106.998 115.448 106.998 114.168V103.2H109.878V114.24C109.878 115.36 110.19 116.224 110.814 116.832C111.438 117.44 112.326 117.744 113.478 117.744C114.646 117.744 115.534 117.44 116.142 116.832C116.766 116.224 117.078 115.36 117.078 114.24V103.2H119.958V114.168C119.958 115.448 119.702 116.552 119.19 117.48C118.678 118.408 117.934 119.12 116.958 119.616C115.982 120.096 114.822 120.336 113.478 120.336Z" fill="#012A4D"/>
<path d="M67.043 28.1656C68.3866 27.1961 68.6898 25.3209 67.7203 23.9774L51.9209 2.08257C50.9514 0.738997 49.0763 0.43577 47.7327 1.4053C46.3891 2.37482 46.0859 4.24996 47.0554 5.59353L61.0993 25.0556L41.6372 39.0994C40.2937 40.0689 39.9904 41.9441 40.96 43.2876C41.9295 44.6312 43.8046 44.9344 45.1482 43.9649L67.043 28.1656ZM6.196 60.5444C6.20212 50.011 10.8856 40.6058 20.3252 34.5201C29.8455 28.3822 44.5432 25.4173 64.8086 28.6944L65.7664 22.7713C44.5728 19.3441 28.2313 22.2841 17.074 29.4772C5.83596 36.7225 0.20324 48.0744 0.196004 60.5409L6.196 60.5444ZM0.196004 60.5409C0.188932 72.7255 4.28434 84.0826 12.2236 92.8598C20.1673 101.642 31.8052 107.673 46.5957 109.49L47.3272 103.535C33.7836 101.871 23.5322 96.4175 16.6733 88.8348C9.81 81.2472 6.18973 71.3598 6.196 60.5444L0.196004 60.5409Z" fill="#FF9195"/>
</svg>
