<svg width="197" height="107" viewBox="0 0 197 107" fill="none" xmlns="http://www.w3.org/2000/svg">
<path d="M7.968 69.336C5.92 69.336 4.288 68.76 3.072 67.608C1.856 66.44 1.248 64.768 1.248 62.592V58.608C1.248 56.432 1.856 54.768 3.072 53.616C4.288 52.448 5.92 51.864 7.968 51.864C10.016 51.864 11.592 52.424 12.696 53.544C13.816 54.664 14.376 56.2 14.376 58.152V58.296H11.544V58.08C11.544 57.024 11.248 56.16 10.656 55.488C10.08 54.8 9.184 54.456 7.968 54.456C6.784 54.456 5.848 54.824 5.16 55.56C4.488 56.28 4.152 57.28 4.152 58.56V62.64C4.152 63.904 4.488 64.904 5.16 65.64C5.848 66.376 6.784 66.744 7.968 66.744C9.184 66.744 10.08 66.408 10.656 65.736C11.248 65.048 11.544 64.176 11.544 63.12V62.712H14.376V63.048C14.376 65 13.816 66.536 12.696 67.656C11.592 68.776 10.016 69.336 7.968 69.336ZM17.0779 69V52.2H19.9819V59.256H26.6059V52.2H29.5099V69H26.6059V61.896H19.9819V69H17.0779ZM32.8279 69V52.2H43.5319V54.816H35.7319V59.232H42.8599V61.848H35.7319V66.384H43.6519V69H32.8279ZM52.4758 69.336C50.4278 69.336 48.7958 68.76 47.5798 67.608C46.3638 66.44 45.7558 64.768 45.7558 62.592V58.608C45.7558 56.432 46.3638 54.768 47.5798 53.616C48.7958 52.448 50.4278 51.864 52.4758 51.864C54.5238 51.864 56.0998 52.424 57.2038 53.544C58.3238 54.664 58.8838 56.2 58.8838 58.152V58.296H56.0518V58.08C56.0518 57.024 55.7558 56.16 55.1638 55.488C54.5878 54.8 53.6918 54.456 52.4758 54.456C51.2918 54.456 50.3558 54.824 49.6678 55.56C48.9958 56.28 48.6598 57.28 48.6598 58.56V62.64C48.6598 63.904 48.9958 64.904 49.6678 65.64C50.3558 66.376 51.2918 66.744 52.4758 66.744C53.6918 66.744 54.5878 66.408 55.1638 65.736C55.7558 65.048 56.0518 64.176 56.0518 63.12V62.712H58.8838V63.048C58.8838 65 58.3238 66.536 57.2038 67.656C56.0998 68.776 54.5238 69.336 52.4758 69.336ZM61.5857 69V52.2H64.4897V59.04H64.8977L70.7537 52.2H74.4737L67.1537 60.48L74.7137 69H70.8977L64.8977 62.016H64.4897V69H61.5857ZM89.0646 69.336C86.9846 69.336 85.3206 68.76 84.0726 67.608C82.8406 66.44 82.2246 64.768 82.2246 62.592V58.608C82.2246 56.432 82.8406 54.768 84.0726 53.616C85.3206 52.448 86.9846 51.864 89.0646 51.864C91.1606 51.864 92.8246 52.448 94.0566 53.616C95.2886 54.768 95.9046 56.432 95.9046 58.608V62.592C95.9046 64.768 95.2886 66.44 94.0566 67.608C92.8246 68.76 91.1606 69.336 89.0646 69.336ZM89.0646 66.744C90.3126 66.744 91.2806 66.384 91.9686 65.664C92.6726 64.928 93.0246 63.936 93.0246 62.688V58.512C93.0246 57.264 92.6726 56.28 91.9686 55.56C91.2806 54.824 90.3126 54.456 89.0646 54.456C87.8326 54.456 86.8646 54.824 86.1606 55.56C85.4726 56.28 85.1286 57.264 85.1286 58.512V62.688C85.1286 63.936 85.4726 64.928 86.1606 65.664C86.8646 66.384 87.8326 66.744 89.0646 66.744ZM105.188 69.336C103.844 69.336 102.684 69.096 101.708 68.616C100.748 68.12 100.004 67.408 99.4764 66.48C98.9644 65.552 98.7084 64.448 98.7084 63.168V52.2H101.588V63.24C101.588 64.36 101.9 65.224 102.524 65.832C103.148 66.44 104.036 66.744 105.188 66.744C106.356 66.744 107.244 66.44 107.852 65.832C108.476 65.224 108.788 64.36 108.788 63.24V52.2H111.668V63.168C111.668 64.448 111.412 65.552 110.9 66.48C110.388 67.408 109.644 68.12 108.668 68.616C107.692 69.096 106.532 69.336 105.188 69.336ZM118.866 69V54.816H113.85V52.2H126.762V54.816H121.746V69H118.866ZM1.656 100V83.2H7.056L10.32 98.056H10.728L14.016 83.2H19.392V100H16.608V85.288H16.2L12.936 100H8.136L4.872 85.288H4.464V100H1.656ZM27.0703 100V94.072L21.2863 83.2H24.5263L28.3183 90.616H28.7263L32.5183 83.2H35.7343L29.9503 94.072V100H27.0703ZM43.4919 100V83.2H50.6679C51.7239 83.2 52.6439 83.384 53.4279 83.752C54.2119 84.12 54.8199 84.64 55.2519 85.312C55.6999 85.968 55.9239 86.76 55.9239 87.688V87.952C55.9239 88.992 55.6759 89.824 55.1799 90.448C54.6839 91.072 54.0839 91.528 53.3799 91.816V92.2C54.0039 92.232 54.4919 92.448 54.8439 92.848C55.2119 93.248 55.3959 93.784 55.3959 94.456V100H52.5159V94.864C52.5159 94.464 52.4039 94.144 52.1799 93.904C51.9719 93.648 51.6279 93.52 51.1479 93.52H46.3959V100H43.4919ZM46.3959 90.904H50.3799C51.2119 90.904 51.8599 90.688 52.3239 90.256C52.8039 89.808 53.0439 89.216 53.0439 88.48V88.264C53.0439 87.512 52.8119 86.92 52.3479 86.488C51.8839 86.04 51.2279 85.816 50.3799 85.816H46.3959V90.904ZM58.656 100V83.2H69.36V85.816H61.56V90.232H68.688V92.848H61.56V97.384H69.48V100H58.656ZM77.7759 100.336C76.4959 100.336 75.3599 100.112 74.3679 99.664C73.3919 99.2 72.6239 98.536 72.0639 97.672C71.5039 96.808 71.2239 95.752 71.2239 94.504V93.88H74.0799V94.504C74.0799 95.608 74.4159 96.432 75.0879 96.976C75.7599 97.52 76.6559 97.792 77.7759 97.792C78.9119 97.792 79.7679 97.56 80.3439 97.096C80.9199 96.632 81.2079 96.032 81.2079 95.296C81.2079 94.8 81.0719 94.4 80.7999 94.096C80.5279 93.776 80.1279 93.52 79.5999 93.328C79.0879 93.136 78.4639 92.952 77.7279 92.776L77.0079 92.632C75.9039 92.376 74.9439 92.056 74.1279 91.672C73.3279 91.272 72.7119 90.76 72.2799 90.136C71.8479 89.512 71.6319 88.696 71.6319 87.688C71.6319 86.68 71.8719 85.816 72.3519 85.096C72.8319 84.376 73.5119 83.824 74.3919 83.44C75.2719 83.056 76.3039 82.864 77.4879 82.864C78.6719 82.864 79.7279 83.064 80.6559 83.464C81.5839 83.864 82.3119 84.464 82.8399 85.264C83.3839 86.064 83.6559 87.064 83.6559 88.264V89.056H80.7999V88.264C80.7999 87.576 80.6639 87.024 80.3919 86.608C80.1199 86.192 79.7359 85.888 79.2399 85.696C78.7439 85.504 78.1599 85.408 77.4879 85.408C76.4959 85.408 75.7439 85.6 75.2319 85.984C74.7199 86.368 74.4639 86.912 74.4639 87.616C74.4639 88.064 74.5759 88.448 74.7999 88.768C75.0399 89.072 75.3839 89.328 75.8319 89.536C76.2959 89.728 76.8719 89.896 77.5599 90.04L78.2799 90.208C79.4319 90.464 80.4399 90.792 81.3039 91.192C82.1679 91.576 82.8399 92.088 83.3199 92.728C83.8159 93.368 84.0639 94.2 84.0639 95.224C84.0639 96.232 83.7999 97.12 83.2719 97.888C82.7599 98.656 82.0319 99.256 81.0879 99.688C80.1599 100.12 79.0559 100.336 77.7759 100.336ZM92.9775 100.336C91.6335 100.336 90.4735 100.096 89.4975 99.616C88.5375 99.12 87.7935 98.408 87.2655 97.48C86.7535 96.552 86.4975 95.448 86.4975 94.168V83.2H89.3775V94.24C89.3775 95.36 89.6895 96.224 90.3135 96.832C90.9375 97.44 91.8255 97.744 92.9775 97.744C94.1455 97.744 95.0335 97.44 95.6415 96.832C96.2655 96.224 96.5775 95.36 96.5775 94.24V83.2H99.4575V94.168C99.4575 95.448 99.2015 96.552 98.6895 97.48C98.1775 98.408 97.4335 99.12 96.4575 99.616C95.4815 100.096 94.3215 100.336 92.9775 100.336ZM102.695 100V83.2H108.095L111.359 98.056H111.767L115.055 83.2H120.431V100H117.647V85.288H117.239L113.975 100H109.175L105.911 85.288H105.503V100H102.695ZM123.765 100V83.2H134.469V85.816H126.669V90.232H133.797V92.848H126.669V97.384H134.589V100H123.765ZM137.485 94.72V83.2H140.293V94.72H137.485ZM138.901 100.336C138.293 100.336 137.781 100.136 137.365 99.736C136.965 99.336 136.765 98.824 136.765 98.2C136.765 97.592 136.965 97.088 137.365 96.688C137.781 96.288 138.293 96.088 138.901 96.088C139.509 96.088 140.013 96.288 140.413 96.688C140.813 97.088 141.013 97.6 141.013 98.224C141.013 98.848 140.813 99.36 140.413 99.76C140.013 100.144 139.509 100.336 138.901 100.336Z" fill="#012A4D"/>
<path d="M174 44.5L171 44.5L171 44.5L174 44.5ZM176.121 0.878686C174.95 -0.292888 173.05 -0.292889 171.879 0.878683L152.787 19.9706C151.615 21.1421 151.615 23.0416 152.787 24.2132C153.958 25.3848 155.858 25.3848 157.029 24.2132L174 7.24265L190.971 24.2132C192.142 25.3848 194.042 25.3848 195.213 24.2132C196.385 23.0416 196.385 21.1422 195.213 19.9706L176.121 0.878686ZM177 44.5L177 3.00001L171 3L171 44.5L177 44.5ZM171 44.5C171 56.3749 168.087 61.2288 164.812 63.4574C161.223 65.8998 156.26 66 150 66L150 72C155.74 72 162.777 72.1002 168.188 68.4176C173.913 64.5212 177 57.1251 177 44.5L171 44.5Z" fill="#FF9195"/>
</svg>
