<svg width="277" height="89" viewBox="0 0 277 89" fill="none" xmlns="http://www.w3.org/2000/svg">
<path d="M69.2398 39L61.7998 11H66.7598L73.0798 35.92H73.6398L79.9998 11H84.9598L77.4798 39H69.2398ZM88.4864 39V11H93.3264V39H88.4864ZM98.838 39V11H116.678V15.36H103.678V22.72H115.558V27.08H103.678V34.64H116.878V39H98.838ZM123.465 39L119.585 11H124.345L127.385 35.68H128.065L131.985 11H140.345L144.265 35.68H144.945L147.945 11H152.745L148.825 39H140.465L136.505 13.84H135.825L131.825 39H123.465ZM168.855 39L164.975 11H169.735L172.775 35.68H173.455L177.375 11H185.735L189.655 35.68H190.335L193.335 11H198.135L194.215 39H185.855L181.895 13.84H181.215L177.215 39H168.855ZM212.605 39.56C209.138 39.56 206.365 38.6 204.285 36.68C202.232 34.7333 201.205 31.9467 201.205 28.32V21.68C201.205 18.0533 202.232 15.28 204.285 13.36C206.365 11.4133 209.138 10.44 212.605 10.44C216.098 10.44 218.872 11.4133 220.925 13.36C222.978 15.28 224.005 18.0533 224.005 21.68V28.32C224.005 31.9467 222.978 34.7333 220.925 36.68C218.872 38.6 216.098 39.56 212.605 39.56ZM212.605 35.24C214.685 35.24 216.298 34.64 217.445 33.44C218.618 32.2133 219.205 30.56 219.205 28.48V21.52C219.205 19.44 218.618 17.8 217.445 16.6C216.298 15.3733 214.685 14.76 212.605 14.76C210.552 14.76 208.938 15.3733 207.765 16.6C206.618 17.8 206.045 19.44 206.045 21.52V28.48C206.045 30.56 206.618 32.2133 207.765 33.44C208.938 34.64 210.552 35.24 212.605 35.24ZM228.838 39V11H240.798C242.558 11 244.091 11.3067 245.398 11.92C246.705 12.5333 247.718 13.4 248.438 14.52C249.185 15.6133 249.558 16.9333 249.558 18.48V18.92C249.558 20.6533 249.145 22.04 248.318 23.08C247.491 24.12 246.491 24.88 245.318 25.36V26C246.358 26.0533 247.171 26.4133 247.758 27.08C248.371 27.7467 248.678 28.64 248.678 29.76V39H243.878V30.44C243.878 29.7733 243.691 29.24 243.318 28.84C242.971 28.4133 242.398 28.2 241.598 28.2H233.678V39H228.838ZM233.678 23.84H240.318C241.705 23.84 242.785 23.48 243.558 22.76C244.358 22.0133 244.758 21.0267 244.758 19.8V19.44C244.758 18.1867 244.371 17.2 243.598 16.48C242.825 15.7333 241.731 15.36 240.318 15.36H233.678V23.84ZM254.111 39V11H258.951V22.4H259.631L269.391 11H275.591L263.391 24.8L275.991 39H269.631L259.631 27.36H258.951V39H254.111Z" fill="#012A4D"/>
<path d="M25.9646 87.2743C24.8675 88.5159 22.9717 88.6331 21.73 87.5361L1.49676 69.6583C0.255141 68.5612 0.137961 66.6654 1.23503 65.4237C2.3321 64.1821 4.22797 64.065 5.46959 65.162L23.4547 81.0533L39.3461 63.0682C40.4431 61.8266 42.339 61.7094 43.5806 62.8065C44.8222 63.9035 44.9394 65.7994 43.8424 67.041L25.9646 87.2743ZM53.9593 29C45.4223 29 39.4575 28.9184 35.0818 29.6719C30.9372 30.3856 28.8541 31.7402 27.515 34.2575C25.9727 37.1566 25.1878 41.9945 25.1459 50.3942C25.1045 58.6789 25.7691 69.8677 26.7108 85.1028L20.7222 85.473C19.7853 70.3142 19.1034 58.895 19.146 50.3643C19.188 41.9487 19.9174 35.7639 22.2179 31.4395C24.7216 26.7332 28.81 24.6636 34.0636 23.7589C39.086 22.894 45.7463 23 53.9593 23L53.9593 29Z" fill="#FF9195"/>
</svg>
