<svg xmlns="http://www.w3.org/2000/svg" viewBox="0 0 226.36 164.75"><defs><style>.cls-1{fill:#6e6e6e;}.cls-2{fill:none;}</style></defs><g id="Layer_2" data-name="Layer 2"><g id="Layer_1-2" data-name="Layer 1"><path class="cls-1" d="M62.72,15.43V22.3H29.36V15.43H23.87V132.81h5.49V99.58h9.33v33.23h2.68V99.58h9.34v33.23h2.68V99.58h9.33v33.23h5.49V15.43Zm-24,80.12H29.36v-17h9.33Zm1.23-44.4H33.3V37.79c0-2.75,1.48-5,3.31-5s3.31,2.22,3.31,5Zm2.81-13.36c0-2.75,1.48-5,3.31-5s3.31,2.22,3.31,5V51.15H42.73Zm8,57.76H41.37v-17h9.34Zm1.45-44.4V37.79c0-2.75,1.48-5,3.31-5s3.31,2.22,3.31,5V51.15Zm10.56,44.4H53.39v-17h9.33Z"/><path class="cls-1" d="M197.14,15.43V22.3H163.78V15.43h-5.49V132.81h5.49V99.58h9.34v33.23h2.67V99.58h9.34v33.23h2.68V99.58h9.33v33.23h5.49V15.43Zm-24,80.12h-9.34v-17h9.34Zm1.22-44.4h-6.62V37.79c0-2.75,1.48-5,3.31-5s3.31,2.22,3.31,5Zm2.81-13.36c0-2.75,1.48-5,3.31-5s3.31,2.22,3.31,5V51.15h-6.62Zm8,57.76h-9.34v-17h9.34Zm1.45-44.4V37.79c0-2.75,1.48-5,3.31-5s3.31,2.22,3.31,5V51.15Zm10.56,44.4h-9.33v-17h9.33Z"/><path class="cls-1" d="M69.56,129.87h87.06V100.68H69.56Zm72.73-16a4.57,4.57,0,0,1,9.1,0v7h-9.1Zm-13.1,0a4.57,4.57,0,0,1,9.1,0v7h-9.1Zm-23.66,2.87c0-3.49,2.9-6.36,6.64-6.77v-1h2v1a7.09,7.09,0,0,1,6.47,6.75v11.55h-6.47v1.44h-2v-1.44h-6.64Zm-17.65-2.91a4.57,4.57,0,0,1,9.1,0v7h-9.1Zm-13.09,0a4.57,4.57,0,0,1,9.1,0v7h-9.1Z"/><path class="cls-1" d="M69.56,98h87.06V71.5H69.56Zm72.81-12.55a4.57,4.57,0,0,1,9.1,0v7h-9.1Zm-13.09,0a4.57,4.57,0,0,1,9.1,0v7h-9.1Zm-9.55,2.26V79.46a4.35,4.35,0,0,1,4.55,4.12v8.81h-4.55ZM108.61,80a4.58,4.58,0,0,1,9.12,0V92.39h-9.12Zm-6.55,3.57a4.35,4.35,0,0,1,4.56-4.12V92.36h-4.56ZM88,85.4a4.57,4.57,0,0,1,9.1,0v7H88Zm-13.1,0a4.57,4.57,0,0,1,9.1,0v7h-9.1Z"/><rect class="cls-1" x="112.17" y="128.29" width="2" height="1.43"/><path class="cls-1" d="M114.17,110v-1h-2v1c.3,0,.61-.06.92-.06A9.46,9.46,0,0,1,114.17,110Z"/><path class="cls-1" d="M114.17,128.29V110a9.46,9.46,0,0,0-1.08-.08c-.31,0-.62,0-.92.06v18.32Z"/><polygon class="cls-1" points="113.8 67.35 112.68 67.35 69.56 67.35 69.56 69.46 156.62 69.46 156.62 67.35 113.8 67.35"/><rect class="cls-1" x="112.63" y="51.15" width="1.24" height="14.1"/><polygon class="cls-1" points="122.55 54.45 126.03 51.15 114.79 51.15 114.79 57.74 126.03 57.74 122.55 54.45"/><rect class="cls-1" x="105.53" y="131.18" width="15.11" height="2"/><rect class="cls-1" x="103.79" y="134.98" width="18.59" height="2"/><rect class="cls-1" x="102.28" y="138.68" width="21.61" height="2"/><rect class="cls-2" width="226.36" height="164.75"/></g></g></svg>