<svg xmlns="http://www.w3.org/2000/svg" viewBox="0 0 226.36 163.55"><defs><style>.cls-1{fill:#6e6e6e;}.cls-2{fill:none;}</style></defs><g id="Layer_2" data-name="Layer 2"><g id="Layer_1-2" data-name="Layer 1"><path class="cls-1" d="M132.13,129.13h15.48V59.3l-34.78-19-34.77,19v69.83h26.53m25.94-43.6h8.53V97.34h-8.53ZM86,86.43h8.52v11.8H86Zm15.06,42.69h-8M105,98.23H96.45V86.43H105Zm23.65-.89H120.1V85.53h8.53Zm-6-32.67a9.78,9.78,0,1,1-9.78-9.78A9.78,9.78,0,0,1,122.61,64.67Z"/><polygon class="cls-1" points="72.95 48.8 72.95 57.26 112.83 35.45 152.72 57.26 152.72 48.8 112.83 26.98 72.95 48.8"/><path class="cls-1" d="M152.87,129.13h58.44V91.44H152.87Zm42.28-32.4h8.53v11.8h-8.53Zm0,16.38h8.53v11.8h-8.53ZM184.72,96.73h8.53v11.8h-8.53Zm0,16.38h8.53v11.8h-8.53ZM170.93,96.73h8.53v11.8h-8.53Zm0,16.38h8.53v11.8h-8.53ZM160.5,96.73H169v11.8H160.5Zm0,16.38H169v11.8H160.5Z"/><path class="cls-1" d="M14.36,129.13H72.79V91.44H14.36Zm42.28-32.4h8.52v11.8H56.64Zm0,16.38h8.52v11.8H56.64ZM46.21,96.73h8.52v11.8H46.21Zm0,16.38h8.52v11.8H46.21ZM32.42,96.73h8.52v11.8H32.42Zm0,16.38h8.52v11.8H32.42ZM22,96.73h8.52v11.8H22Zm0,16.38h8.52v11.8H22Z"/><polygon class="cls-1" points="14.36 87.92 72.79 87.92 72.79 69.08 31.2 69.08 14.36 87.92"/><polygon class="cls-1" points="194.46 69.08 152.87 69.08 152.87 87.92 211.31 87.92 194.46 69.08"/><path class="cls-1" d="M118.26,65h-4.2V58.1h-1.79v8.8h6Z"/><rect class="cls-2" width="226.36" height="163.55"/></g></g></svg>