<svg xmlns="http://www.w3.org/2000/svg" viewBox="0 0 226.36 164.75"><defs><style>.cls-1{fill:#6e6e6e;}.cls-2{fill:none;}</style></defs><g id="Layer_2" data-name="Layer 2"><g id="Layer_1-2" data-name="Layer 1"><path class="cls-1" d="M141.61,58.88H127V49.71l5.1,4.31,2.16-2.55L113.18,33.66,92.12,51.47,94.28,54l5.1-4.31v9.17H84.75L65.24,83.14h8.65v39.32h78.58V83.14h8.65ZM101.78,46.76l11.4-9.64,11.4,9.64v13h-22.8Zm-8.38,70.7H82.83V105.27H93.4Zm0-19H82.83V90.37a5.29,5.29,0,0,1,10.57,0Zm19.2,22.91h-8V105.27h8Zm-4.71-22.91V90.37a5.29,5.29,0,0,1,10.58,0v8.12Zm13.9,22.91h-8V105.27h8Zm21.74-3.94H133V105.27h10.57Zm0-19H133V90.37a5.29,5.29,0,0,1,10.57,0Z"/><path class="cls-1" d="M124.58,46.76l-11.4-9.64-11.4,9.64v13h22.8Zm-.92,12.12h-21v-12L113.18,38l10.48,8.86Z"/><path class="cls-1" d="M111.29,43.42a2.11,2.11,0,0,0,0,.26A5.61,5.61,0,0,0,107.66,48l-1,5.74c-.61.38-1,.81-1,1.28,0,1.44,3.34,2.61,7.45,2.61s7.44-1.17,7.44-2.61c0-.47-.34-.9-1-1.28l-1-5.74a5.61,5.61,0,0,0-3.65-4.35,2.11,2.11,0,0,0,0-.26,1.89,1.89,0,1,0-3.78,0Zm1.89-1a1,1,0,0,1,1,1v0a5.71,5.71,0,0,0-2,0v0A1,1,0,0,1,113.18,42.4Zm.14,13.34a1.26,1.26,0,0,0,1.26-1.26,1.07,1.07,0,0,0,0-.25c2.48.12,4.32.55,4.32,1.06s-2.52,1.09-5.63,1.09-5.64-.49-5.64-1.09,1.93-1,4.49-1.07a1.22,1.22,0,0,0,0,.26A1.26,1.26,0,0,0,113.32,55.74Z"/><rect class="cls-2" width="226.36" height="164.75"/></g></g></svg>