<svg xmlns="http://www.w3.org/2000/svg" viewBox="0 0 226.36 164.75"><defs><style>.cls-1{fill:#6e6e6e;}.cls-2{fill:none;}</style></defs><g id="Layer_2" data-name="Layer 2"><g id="Layer_1-2" data-name="Layer 1"><path class="cls-1" d="M67.46,117.49h91.36V83.6H67.46Zm76.32-18.58a4.77,4.77,0,1,1,9.54,0V107h-9.54Zm-13.74,0a4.78,4.78,0,1,1,9.55,0V107H130Zm-24.83,3.33a7.93,7.93,0,0,1,7-7.86V93.19h2.1v1.22a7.92,7.92,0,0,1,6.79,7.83v13.43h-6.79v1.66h-2.1v-1.66h-7ZM86.7,98.87a4.77,4.77,0,1,1,9.54,0V107H86.7ZM73,98.91a4.77,4.77,0,1,1,9.54,0V107H73Z"/><path class="cls-1" d="M67.46,80.45h91.36V49.7H67.46Zm76.4-14.57a4.78,4.78,0,0,1,9.55,0V74h-9.55Zm-13.73,0a4.77,4.77,0,1,1,9.54,0V74h-9.54Zm-10,2.63V59a4.78,4.78,0,0,1,4.79,4.78V74H120.1Zm-11.65-9a4.78,4.78,0,0,1,9.56,0V74h-9.56Zm-6.88,4.14a4.78,4.78,0,0,1,4.78-4.78v15h-4.78ZM86.78,65.85a4.78,4.78,0,0,1,9.55,0v8.08H86.78ZM73,65.88a4.78,4.78,0,0,1,9.55,0V74H73Z"/><rect class="cls-1" x="112.18" y="115.67" width="2.1" height="1.66"/><path class="cls-1" d="M114.28,94.41V93.19h-2.1v1.19a7.5,7.5,0,0,1,1-.06A8.62,8.62,0,0,1,114.28,94.41Z"/><path class="cls-1" d="M114.28,115.67V94.41a8.62,8.62,0,0,0-1.14-.09,7.5,7.5,0,0,0-1,.06v21.29Z"/><polygon class="cls-1" points="113.97 42.44 112.66 42.44 62.49 42.44 62.49 47.33 163.79 47.33 163.79 42.44 113.97 42.44"/><rect class="cls-1" x="112.66" y="26.06" width="1.31" height="16.38"/><polygon class="cls-1" points="123.07 29.89 126.72 26.06 114.93 26.06 114.93 33.72 126.72 33.72 123.07 29.89"/><rect class="cls-1" x="105.21" y="119.01" width="15.85" height="2.33"/><rect class="cls-1" x="103.39" y="123.44" width="19.51" height="2.33"/><rect class="cls-1" x="101.8" y="127.73" width="22.68" height="2.33"/><rect class="cls-2" width="226.36" height="164.75"/></g></g></svg>