<svg width="32" height="27" viewBox="0 0 32 27" fill="none" xmlns="http://www.w3.org/2000/svg">
<path d="M0.25 2.25C0.25 1.05469 1.23438 0 2.5 0H29.5C30.6953 0 31.75 1.05469 31.75 2.25C31.75 3.51562 30.6953 4.5 29.5 4.5H2.5C1.23438 4.5 0.25 3.51562 0.25 2.25ZM0.25 13.5C0.25 12.3047 1.23438 11.25 2.5 11.25H29.5C30.6953 11.25 31.75 12.3047 31.75 13.5C31.75 14.7656 30.6953 15.75 29.5 15.75H2.5C1.23438 15.75 0.25 14.7656 0.25 13.5ZM29.5 27H2.5C1.23438 27 0.25 26.0156 0.25 24.75C0.25 23.5547 1.23438 22.5 2.5 22.5H29.5C30.6953 22.5 31.75 23.5547 31.75 24.75C31.75 26.0156 30.6953 27 29.5 27Z" fill="#012A4D"/>
</svg>
